%TF.GenerationSoftware,KiCad,Pcbnew,8.0.1*%
%TF.CreationDate,2024-11-27T15:43:16-06:00*%
%TF.ProjectId,XAmplifier,58416d70-6c69-4666-9965-722e6b696361,rev?*%
%TF.SameCoordinates,Original*%
%TF.FileFunction,Copper,L4,Bot*%
%TF.FilePolarity,Positive*%
%FSLAX46Y46*%
G04 Gerber Fmt 4.6, Leading zero omitted, Abs format (unit mm)*
G04 Created by KiCad (PCBNEW 8.0.1) date 2024-11-27 15:43:16*
%MOMM*%
%LPD*%
G01*
G04 APERTURE LIST*
G04 Aperture macros list*
%AMRoundRect*
0 Rectangle with rounded corners*
0 $1 Rounding radius*
0 $2 $3 $4 $5 $6 $7 $8 $9 X,Y pos of 4 corners*
0 Add a 4 corners polygon primitive as box body*
4,1,4,$2,$3,$4,$5,$6,$7,$8,$9,$2,$3,0*
0 Add four circle primitives for the rounded corners*
1,1,$1+$1,$2,$3*
1,1,$1+$1,$4,$5*
1,1,$1+$1,$6,$7*
1,1,$1+$1,$8,$9*
0 Add four rect primitives between the rounded corners*
20,1,$1+$1,$2,$3,$4,$5,0*
20,1,$1+$1,$4,$5,$6,$7,0*
20,1,$1+$1,$6,$7,$8,$9,0*
20,1,$1+$1,$8,$9,$2,$3,0*%
G04 Aperture macros list end*
%TA.AperFunction,SMDPad,CuDef*%
%ADD10RoundRect,0.135000X-0.135000X-0.185000X0.135000X-0.185000X0.135000X0.185000X-0.135000X0.185000X0*%
%TD*%
%TA.AperFunction,SMDPad,CuDef*%
%ADD11RoundRect,0.135000X0.185000X-0.135000X0.185000X0.135000X-0.185000X0.135000X-0.185000X-0.135000X0*%
%TD*%
%TA.AperFunction,SMDPad,CuDef*%
%ADD12RoundRect,0.200000X-0.275000X0.200000X-0.275000X-0.200000X0.275000X-0.200000X0.275000X0.200000X0*%
%TD*%
%TA.AperFunction,ComponentPad*%
%ADD13C,2.000000*%
%TD*%
%TA.AperFunction,ComponentPad*%
%ADD14R,2.000000X2.000000*%
%TD*%
%TA.AperFunction,ComponentPad*%
%ADD15C,1.600000*%
%TD*%
%TA.AperFunction,ComponentPad*%
%ADD16R,1.600000X1.600000*%
%TD*%
%TA.AperFunction,ComponentPad*%
%ADD17C,1.498600*%
%TD*%
%TA.AperFunction,SMDPad,CuDef*%
%ADD18RoundRect,0.140000X-0.170000X0.140000X-0.170000X-0.140000X0.170000X-0.140000X0.170000X0.140000X0*%
%TD*%
%TA.AperFunction,ComponentPad*%
%ADD19C,6.400000*%
%TD*%
%TA.AperFunction,ComponentPad*%
%ADD20C,1.800000*%
%TD*%
%TA.AperFunction,ComponentPad*%
%ADD21R,1.800000X1.800000*%
%TD*%
%TA.AperFunction,ComponentPad*%
%ADD22C,3.098800*%
%TD*%
%TA.AperFunction,ComponentPad*%
%ADD23O,1.800000X1.000000*%
%TD*%
%TA.AperFunction,ComponentPad*%
%ADD24O,2.100000X1.000000*%
%TD*%
%TA.AperFunction,ComponentPad*%
%ADD25C,2.900000*%
%TD*%
%TA.AperFunction,ComponentPad*%
%ADD26C,3.400000*%
%TD*%
%TA.AperFunction,HeatsinkPad*%
%ADD27C,0.500000*%
%TD*%
%TA.AperFunction,HeatsinkPad*%
%ADD28R,2.500000X1.500000*%
%TD*%
%TA.AperFunction,ComponentPad*%
%ADD29R,1.700000X1.700000*%
%TD*%
%TA.AperFunction,ComponentPad*%
%ADD30O,1.700000X1.700000*%
%TD*%
%TA.AperFunction,SMDPad,CuDef*%
%ADD31RoundRect,0.250000X0.450000X-0.262500X0.450000X0.262500X-0.450000X0.262500X-0.450000X-0.262500X0*%
%TD*%
%TA.AperFunction,SMDPad,CuDef*%
%ADD32RoundRect,0.250000X0.262500X0.450000X-0.262500X0.450000X-0.262500X-0.450000X0.262500X-0.450000X0*%
%TD*%
%TA.AperFunction,SMDPad,CuDef*%
%ADD33RoundRect,0.250000X-0.450000X0.262500X-0.450000X-0.262500X0.450000X-0.262500X0.450000X0.262500X0*%
%TD*%
%TA.AperFunction,SMDPad,CuDef*%
%ADD34RoundRect,0.250000X-0.262500X-0.450000X0.262500X-0.450000X0.262500X0.450000X-0.262500X0.450000X0*%
%TD*%
%TA.AperFunction,SMDPad,CuDef*%
%ADD35RoundRect,0.200000X0.275000X-0.200000X0.275000X0.200000X-0.275000X0.200000X-0.275000X-0.200000X0*%
%TD*%
%TA.AperFunction,SMDPad,CuDef*%
%ADD36RoundRect,0.140000X0.140000X0.170000X-0.140000X0.170000X-0.140000X-0.170000X0.140000X-0.170000X0*%
%TD*%
%TA.AperFunction,SMDPad,CuDef*%
%ADD37RoundRect,0.140000X0.170000X-0.140000X0.170000X0.140000X-0.170000X0.140000X-0.170000X-0.140000X0*%
%TD*%
%TA.AperFunction,SMDPad,CuDef*%
%ADD38RoundRect,0.140000X-0.140000X-0.170000X0.140000X-0.170000X0.140000X0.170000X-0.140000X0.170000X0*%
%TD*%
%TA.AperFunction,ViaPad*%
%ADD39C,0.564200*%
%TD*%
%TA.AperFunction,ViaPad*%
%ADD40C,1.100000*%
%TD*%
%TA.AperFunction,Conductor*%
%ADD41C,0.508000*%
%TD*%
%TA.AperFunction,Conductor*%
%ADD42C,0.254000*%
%TD*%
%TA.AperFunction,Conductor*%
%ADD43C,0.635000*%
%TD*%
%TA.AperFunction,Conductor*%
%ADD44C,0.203200*%
%TD*%
%TA.AperFunction,Conductor*%
%ADD45C,0.381000*%
%TD*%
%TA.AperFunction,Conductor*%
%ADD46C,0.154000*%
%TD*%
G04 APERTURE END LIST*
D10*
%TO.P,R439,1*%
%TO.N,/Hardware & IO Connectors/USB_CC_R*%
X101740000Y-74268000D03*
%TO.P,R439,2*%
%TO.N,/Hardware & IO Connectors/USB_CC_SW*%
X102760000Y-74268000D03*
%TD*%
D11*
%TO.P,R400,1*%
%TO.N,/Phantom Power Management/+48V_PH_R*%
X113899191Y-104933480D03*
%TO.P,R400,2*%
%TO.N,/Input Gating/+48V_PH*%
X113899191Y-103913480D03*
%TD*%
D12*
%TO.P,R443,1*%
%TO.N,/48V Regulator/+48V_SNS*%
X115950000Y-78675000D03*
%TO.P,R443,2*%
%TO.N,/48V Regulator/+48V_G_R*%
X115950000Y-80325000D03*
%TD*%
D13*
%TO.P,C412,2*%
%TO.N,Net-(D413-A)*%
X140000000Y-108000000D03*
D14*
%TO.P,C412,1*%
%TO.N,/Amplifier/RG1*%
X145000000Y-108000000D03*
%TD*%
%TO.P,C401,1*%
%TO.N,/Phantom Power Management/+48V_FLT*%
X132502323Y-86500000D03*
D13*
%TO.P,C401,2*%
%TO.N,/Phantom Power Management/+48V_FLT_N*%
X137502323Y-86500000D03*
%TD*%
%TO.P,C403,2*%
%TO.N,GND*%
X131897677Y-74190000D03*
D14*
%TO.P,C403,1*%
%TO.N,/Phantom Power Management/+48V_PH_SW*%
X136897677Y-74190000D03*
%TD*%
%TO.P,C406,1*%
%TO.N,/Phantom Power Management/+35V_AMP_G*%
X148252323Y-100210000D03*
D13*
%TO.P,C406,2*%
%TO.N,GND*%
X153252323Y-100210000D03*
%TD*%
D15*
%TO.P,C414,2*%
%TO.N,/Amplifier/AMP_OUT_FLT-*%
X108680000Y-120250000D03*
D16*
%TO.P,C414,1*%
%TO.N,/Amplifier/AMP_OUT-*%
X108680000Y-116750000D03*
%TD*%
D17*
%TO.P,SW400,6,C*%
%TO.N,/Input Gating/+48V_PH*%
X174802509Y-127548923D03*
%TO.P,SW400,5,B*%
%TO.N,/Phantom Power Management/+48V_PH_SW*%
X177291709Y-127548923D03*
%TO.P,SW400,4,A*%
%TO.N,Net-(SW400B-A)*%
X179780909Y-127548923D03*
%TO.P,SW400,3,C*%
%TO.N,/Phantom Power Management/+48V_PH_SW_R*%
X174802509Y-130038123D03*
%TO.P,SW400,2,B*%
%TO.N,/Phantom Power Management/+48V_PH_R*%
X177291709Y-130038123D03*
%TO.P,SW400,1,A*%
%TO.N,unconnected-(SW400A-A-Pad1)*%
X179780909Y-130038123D03*
%TD*%
D15*
%TO.P,C407,1*%
%TO.N,/Hardware & IO Connectors/XLR In+*%
X100500000Y-85000000D03*
%TO.P,C407,2*%
%TO.N,/Input Gating/In+_R*%
X105500000Y-85000000D03*
%TD*%
D18*
%TO.P,C424,2*%
%TO.N,GND1*%
X109860000Y-75274274D03*
%TO.P,C424,1*%
%TO.N,+5V_USB*%
X109860000Y-74314274D03*
%TD*%
D19*
%TO.P,MH402,1,1*%
%TO.N,Earth*%
X99680000Y-131200000D03*
%TD*%
%TO.P,MH400,1,1*%
%TO.N,Earth*%
X99680000Y-69200000D03*
%TD*%
D20*
%TO.P,D404,3,A2*%
%TO.N,/Phantom Power Management/PH_LED_GR_R*%
X202800000Y-128860000D03*
%TO.P,D404,2,K*%
%TO.N,/Phantom Power Management/GND_R*%
X205340000Y-128860000D03*
D21*
%TO.P,D404,1,A1*%
%TO.N,/Phantom Power Management/PH_LED_RED_R*%
X207880000Y-128860000D03*
%TD*%
D22*
%TO.P,SW403,A,A*%
%TO.N,/Amplifier/RG2_R*%
X202605418Y-102909437D03*
%TO.P,SW403,12,12*%
%TO.N,Net-(R421-Pad1)*%
X210603878Y-97308737D03*
%TO.P,SW403,11,11*%
%TO.N,Net-(R420-Pad1)*%
X207731138Y-92332877D03*
%TO.P,SW403,10,10*%
%TO.N,Net-(R419-Pad1)*%
X202755278Y-89460137D03*
%TO.P,SW403,9,9*%
%TO.N,Net-(R418-Pad1)*%
X197004718Y-89460137D03*
%TO.P,SW403,8,8*%
%TO.N,Net-(R417-Pad1)*%
X192028858Y-92332877D03*
%TO.P,SW403,7,7*%
%TO.N,Net-(R416-Pad1)*%
X189156118Y-97308737D03*
%TO.P,SW403,6,6*%
%TO.N,Net-(R415-Pad1)*%
X189156118Y-103059297D03*
%TO.P,SW403,5,5*%
%TO.N,Net-(R414-Pad1)*%
X192028858Y-108035157D03*
%TO.P,SW403,4,4*%
%TO.N,Net-(R413-Pad1)*%
X197004718Y-110907897D03*
%TO.P,SW403,3,3*%
%TO.N,Net-(R412-Pad1)*%
X202755278Y-110907897D03*
%TO.P,SW403,2,2*%
%TO.N,Net-(R411-Pad1)*%
X207731138Y-108035157D03*
%TO.P,SW403,1,1*%
%TO.N,Net-(R411-Pad2)*%
X210603878Y-103059297D03*
%TD*%
D13*
%TO.P,C402,2*%
%TO.N,GND*%
X153252323Y-86500000D03*
D14*
%TO.P,C402,1*%
%TO.N,/Phantom Power Management/+48V_PH_G*%
X148252323Y-86500000D03*
%TD*%
D15*
%TO.P,C408,1*%
%TO.N,/Hardware & IO Connectors/XLR In-*%
X100500000Y-97400000D03*
%TO.P,C408,2*%
%TO.N,/Input Gating/In-_R*%
X105500000Y-97400000D03*
%TD*%
%TO.P,C413,2*%
%TO.N,/Amplifier/AMP_OUT_FLT+*%
X117680000Y-120097349D03*
D16*
%TO.P,C413,1*%
%TO.N,/Amplifier/AMP_OUT+*%
X117680000Y-116597349D03*
%TD*%
D15*
%TO.P,C416,1*%
%TO.N,/Amplifier/Line Out+*%
X97460000Y-109830000D03*
%TO.P,C416,2*%
%TO.N,GND*%
X102460000Y-109830000D03*
%TD*%
D18*
%TO.P,C423,2*%
%TO.N,GND1*%
X110870000Y-75270000D03*
%TO.P,C423,1*%
%TO.N,+5V_USB*%
X110870000Y-74310000D03*
%TD*%
D23*
%TO.P,J409,S1,SHIELD*%
%TO.N,Earth*%
X77435000Y-75770000D03*
D24*
X81635000Y-75770000D03*
D23*
X77435000Y-67130000D03*
D24*
X81635000Y-67130000D03*
%TD*%
D17*
%TO.P,SW404,1,A*%
%TO.N,unconnected-(SW404A-A-Pad1)*%
X179768785Y-72839200D03*
%TO.P,SW404,2,B*%
%TO.N,GND1*%
X177279585Y-72839200D03*
%TO.P,SW404,3,C*%
%TO.N,/Hardware & IO Connectors/USB_CC_SW*%
X174790385Y-72839200D03*
%TO.P,SW404,4,A*%
%TO.N,/Hardware & IO Connectors/USB_PWR*%
X179768785Y-70350000D03*
%TO.P,SW404,5,B*%
%TO.N,/Hardware & IO Connectors/USB_SW*%
X177279585Y-70350000D03*
%TO.P,SW404,6,C*%
%TO.N,GND1*%
X174790385Y-70350000D03*
%TD*%
D19*
%TO.P,MH401,1,1*%
%TO.N,Earth*%
X164680000Y-69200000D03*
%TD*%
D25*
%TO.P,J406,G*%
%TO.N,Earth*%
X81960000Y-128140000D03*
%TO.P,J406,3*%
%TO.N,/Amplifier/Line Out-*%
X92130000Y-119890000D03*
D26*
%TO.P,J406,2*%
%TO.N,/Amplifier/Line Out+*%
X88315000Y-116080000D03*
%TO.P,J406,1*%
%TO.N,GND*%
X87680000Y-123700000D03*
%TD*%
D19*
%TO.P,MH403,1,1*%
%TO.N,Earth*%
X164680000Y-131200000D03*
%TD*%
D15*
%TO.P,C415,1*%
%TO.N,/Amplifier/Line Out-*%
X97485000Y-122430000D03*
%TO.P,C415,2*%
%TO.N,GND*%
X102485000Y-122430000D03*
%TD*%
D27*
%TO.P,U401,13,GND*%
%TO.N,GND1*%
X114481101Y-79512999D03*
X113481101Y-79512999D03*
X112481101Y-79512999D03*
D28*
X113481101Y-80012999D03*
D27*
X114481101Y-80512999D03*
X113481101Y-80512999D03*
X112481101Y-80512999D03*
%TD*%
D25*
%TO.P,J407,G*%
%TO.N,Earth*%
X81960000Y-101600000D03*
%TO.P,J407,3*%
%TO.N,/Hardware & IO Connectors/XLR In-*%
X92130000Y-93350000D03*
D26*
%TO.P,J407,2*%
%TO.N,/Hardware & IO Connectors/XLR In+*%
X88315000Y-89540000D03*
%TO.P,J407,1*%
%TO.N,GND*%
X87680000Y-97160000D03*
%TD*%
D14*
%TO.P,C404,1*%
%TO.N,/Amplifier/+35V_AMP*%
X132000000Y-100210000D03*
D13*
%TO.P,C404,2*%
%TO.N,GND*%
X137000000Y-100210000D03*
%TD*%
D15*
%TO.P,C417,2*%
%TO.N,GND*%
X106832651Y-109160000D03*
D16*
%TO.P,C417,1*%
%TO.N,/Amplifier/AMP_OUT-*%
X110332651Y-109160000D03*
%TD*%
D29*
%TO.P,J405,1,Pin_1*%
%TO.N,/Amplifier/RG2*%
X175477804Y-84101463D03*
D30*
%TO.P,J405,2,Pin_2*%
X175477804Y-86641463D03*
%TO.P,J405,3,Pin_3*%
%TO.N,/Amplifier/RG1*%
X175477804Y-89181463D03*
%TO.P,J405,4,Pin_4*%
X175477804Y-91721463D03*
%TD*%
D31*
%TO.P,R411,1*%
%TO.N,Net-(R411-Pad1)*%
X210500000Y-107662500D03*
%TO.P,R411,2*%
%TO.N,Net-(R411-Pad2)*%
X210500000Y-105837500D03*
%TD*%
D32*
%TO.P,R420,1*%
%TO.N,Net-(R420-Pad1)*%
X207412500Y-89250000D03*
%TO.P,R420,2*%
%TO.N,Net-(R419-Pad1)*%
X205587500Y-89250000D03*
%TD*%
D33*
%TO.P,R416,1*%
%TO.N,Net-(R416-Pad1)*%
X186781218Y-99271517D03*
%TO.P,R416,2*%
%TO.N,Net-(R415-Pad1)*%
X186781218Y-101096517D03*
%TD*%
D34*
%TO.P,R413,1*%
%TO.N,Net-(R413-Pad1)*%
X198967498Y-113282797D03*
%TO.P,R413,2*%
%TO.N,Net-(R412-Pad1)*%
X200792498Y-113282797D03*
%TD*%
%TO.P,R414,1*%
%TO.N,Net-(R414-Pad1)*%
X192337500Y-111000000D03*
%TO.P,R414,2*%
%TO.N,Net-(R413-Pad1)*%
X194162500Y-111000000D03*
%TD*%
D30*
%TO.P,J403,4,Pin_4*%
%TO.N,/Amplifier/RG1*%
X166680000Y-91720000D03*
%TO.P,J403,3,Pin_3*%
X166680000Y-89180000D03*
%TO.P,J403,2,Pin_2*%
%TO.N,/Amplifier/RG2*%
X166680000Y-86640000D03*
D29*
%TO.P,J403,1,Pin_1*%
X166680000Y-84100000D03*
%TD*%
D34*
%TO.P,R412,1*%
%TO.N,Net-(R412-Pad1)*%
X205587500Y-111000000D03*
%TO.P,R412,2*%
%TO.N,Net-(R411-Pad1)*%
X207412500Y-111000000D03*
%TD*%
D35*
%TO.P,R421,1*%
%TO.N,Net-(R421-Pad1)*%
X210500000Y-94575000D03*
%TO.P,R421,2*%
%TO.N,Net-(R420-Pad1)*%
X210500000Y-92925000D03*
%TD*%
D29*
%TO.P,J401,1,Pin_1*%
%TO.N,/Phantom Power Management/PH_LED_GR*%
X175380000Y-108700000D03*
D30*
%TO.P,J401,2,Pin_2*%
%TO.N,GND*%
X175380000Y-111240000D03*
%TO.P,J401,3,Pin_3*%
X175380000Y-113780000D03*
%TO.P,J401,4,Pin_4*%
%TO.N,/Phantom Power Management/PH_LED_RED*%
X175380000Y-116320000D03*
%TD*%
D36*
%TO.P,C433,1*%
%TO.N,/48V Regulator/+48V_SS*%
X113410854Y-83685206D03*
%TO.P,C433,2*%
%TO.N,GND1*%
X112450854Y-83685206D03*
%TD*%
D29*
%TO.P,J400,1,Pin_1*%
%TO.N,/Phantom Power Management/PH_LED_GR*%
X166680000Y-108700000D03*
D30*
%TO.P,J400,2,Pin_2*%
%TO.N,GND*%
X166680000Y-111240000D03*
%TO.P,J400,3,Pin_3*%
X166680000Y-113780000D03*
%TO.P,J400,4,Pin_4*%
%TO.N,/Phantom Power Management/PH_LED_RED*%
X166680000Y-116320000D03*
%TD*%
D32*
%TO.P,R418,1*%
%TO.N,Net-(R418-Pad1)*%
X194162500Y-89500000D03*
%TO.P,R418,2*%
%TO.N,Net-(R417-Pad1)*%
X192337500Y-89500000D03*
%TD*%
D18*
%TO.P,C429,1*%
%TO.N,/48V Regulator/+48V_VCC*%
X110697754Y-79214274D03*
%TO.P,C429,2*%
%TO.N,GND1*%
X110697754Y-80174274D03*
%TD*%
D30*
%TO.P,J404,4,Pin_4*%
%TO.N,/Amplifier/RG2_R*%
X183280000Y-108680000D03*
%TO.P,J404,3,Pin_3*%
X183280000Y-111220000D03*
%TO.P,J404,2,Pin_2*%
%TO.N,/Amplifier/RG1_R*%
X183280000Y-113760000D03*
D29*
%TO.P,J404,1,Pin_1*%
X183280000Y-116300000D03*
%TD*%
D30*
%TO.P,J402,4,Pin_4*%
%TO.N,/Phantom Power Management/PH_LED_RED_R*%
X183278435Y-84220112D03*
%TO.P,J402,3,Pin_3*%
%TO.N,/Phantom Power Management/GND_R*%
X183278435Y-86760112D03*
%TO.P,J402,2,Pin_2*%
X183278435Y-89300112D03*
D29*
%TO.P,J402,1,Pin_1*%
%TO.N,/Phantom Power Management/PH_LED_GR_R*%
X183278435Y-91840112D03*
%TD*%
D32*
%TO.P,R422,2*%
%TO.N,/Amplifier/RG1_R*%
X205837500Y-103000000D03*
%TO.P,R422,1*%
%TO.N,Net-(R421-Pad1)*%
X207662500Y-103000000D03*
%TD*%
D18*
%TO.P,C432,1*%
%TO.N,/48V Regulator/+48V_ITH*%
X111397754Y-83014274D03*
%TO.P,C432,2*%
%TO.N,GND1*%
X111397754Y-83974274D03*
%TD*%
D33*
%TO.P,R415,1*%
%TO.N,Net-(R415-Pad1)*%
X189250000Y-105837500D03*
%TO.P,R415,2*%
%TO.N,Net-(R414-Pad1)*%
X189250000Y-107662500D03*
%TD*%
D11*
%TO.P,R445,1*%
%TO.N,/48V Regulator/+48V_ITH*%
X111497754Y-82104274D03*
%TO.P,R445,2*%
%TO.N,/48V Regulator/+48V_ITH_R*%
X111497754Y-81084274D03*
%TD*%
D37*
%TO.P,R435,1*%
%TO.N,/Hardware & IO Connectors/USB_CC2*%
X80250000Y-73230000D03*
%TO.P,R435,2*%
%TO.N,/Hardware & IO Connectors/USB_CC_R*%
X80250000Y-72270000D03*
%TD*%
D33*
%TO.P,R417,1*%
%TO.N,Net-(R417-Pad1)*%
X189250000Y-92837500D03*
%TO.P,R417,2*%
%TO.N,Net-(R416-Pad1)*%
X189250000Y-94662500D03*
%TD*%
D38*
%TO.P,C434,1*%
%TO.N,/48V Regulator/+48V_ITH_R*%
X112617754Y-81594274D03*
%TO.P,C434,2*%
%TO.N,GND1*%
X113577754Y-81594274D03*
%TD*%
D37*
%TO.P,C431,2*%
%TO.N,GND1*%
X115100000Y-77020000D03*
%TO.P,C431,1*%
%TO.N,/48V Regulator/+48V_SNS*%
X115100000Y-77980000D03*
%TD*%
D32*
%TO.P,R419,1*%
%TO.N,Net-(R419-Pad1)*%
X200792498Y-87085237D03*
%TO.P,R419,2*%
%TO.N,Net-(R418-Pad1)*%
X198967498Y-87085237D03*
%TD*%
D18*
%TO.P,R436,1*%
%TO.N,/Hardware & IO Connectors/USB_CC1*%
X80250000Y-70270000D03*
%TO.P,R436,2*%
%TO.N,/Hardware & IO Connectors/USB_CC_R*%
X80250000Y-71230000D03*
%TD*%
D39*
%TO.N,/48V Regulator/+48V_SW*%
X119680000Y-75268000D03*
X118680000Y-75268000D03*
X119680000Y-74268000D03*
X118680000Y-74268000D03*
X117680000Y-71268000D03*
X117680000Y-72268000D03*
X117680000Y-73268000D03*
X117680000Y-74268000D03*
X117680000Y-75268000D03*
X116680000Y-75268000D03*
X116680000Y-74268000D03*
X116680000Y-73268000D03*
X116680000Y-72268000D03*
X116680000Y-71268000D03*
X119680000Y-70268000D03*
X118680000Y-70268000D03*
X117680000Y-70268000D03*
X116680000Y-70268000D03*
X116680000Y-69268000D03*
X117680000Y-69268000D03*
X118680000Y-69268000D03*
X119680000Y-69268000D03*
X120680000Y-69268000D03*
X120680000Y-70268000D03*
X121680000Y-70268000D03*
X121680000Y-71268000D03*
X120680000Y-71268000D03*
X122680000Y-71268000D03*
X119430000Y-71718000D03*
X119430000Y-72918000D03*
X118230000Y-72318000D03*
X118830000Y-72318000D03*
X118230000Y-71718000D03*
X118230000Y-72918000D03*
X118830000Y-71718000D03*
X118830000Y-72918000D03*
X118230000Y-73518000D03*
X118830000Y-73518000D03*
X119430000Y-72318000D03*
X119430000Y-73518000D03*
X122180000Y-71968000D03*
X122180000Y-73168000D03*
X120980000Y-72568000D03*
X121580000Y-72568000D03*
X120980000Y-71968000D03*
X120980000Y-73168000D03*
X121580000Y-71968000D03*
X121580000Y-73168000D03*
X120980000Y-73768000D03*
X121580000Y-73768000D03*
X122180000Y-72568000D03*
X122180000Y-73768000D03*
%TO.N,+48V*%
X122180000Y-75968000D03*
X122180000Y-77168000D03*
X120980000Y-76568000D03*
X121580000Y-76568000D03*
X120980000Y-75968000D03*
X120980000Y-77168000D03*
X121580000Y-75968000D03*
X121580000Y-77168000D03*
X120980000Y-77768000D03*
X121580000Y-77768000D03*
X122180000Y-76568000D03*
X122180000Y-77768000D03*
%TO.N,GND1*%
X109880000Y-75950000D03*
X110870000Y-75270000D03*
X109860000Y-75274274D03*
%TO.N,+5V_USB*%
X110500000Y-71500000D03*
X109500000Y-71500000D03*
X111500000Y-71500000D03*
X111000000Y-72200000D03*
X110000000Y-72200000D03*
%TO.N,GND1*%
X112200000Y-94950000D03*
%TO.N,/Hardware & IO Connectors/USB_CC_R*%
X111400000Y-87800000D03*
%TO.N,GND1*%
X119150000Y-82800000D03*
X115680000Y-74268000D03*
%TO.N,/48V Regulator/+48V_SNS*%
X115100000Y-77950000D03*
%TO.N,/48V Regulator/+48V_G_R*%
X117368500Y-82206500D03*
D40*
%TO.N,*%
X193880000Y-76984000D03*
X192580000Y-123384000D03*
X189980000Y-123384000D03*
X191280000Y-123384000D03*
X191280000Y-124584000D03*
X193880000Y-75784000D03*
X192580000Y-75784000D03*
X189980000Y-124584000D03*
X192580000Y-124584000D03*
X192580000Y-76984000D03*
X193880000Y-124584000D03*
X189980000Y-76984000D03*
X189980000Y-75784000D03*
X191280000Y-75784000D03*
X191280000Y-76984000D03*
X193880000Y-123384000D03*
D39*
%TO.N,GND*%
X107550000Y-101700000D03*
X145988293Y-130250051D03*
X147145636Y-69603099D03*
X143841974Y-70318078D03*
X112614167Y-106867295D03*
X143167826Y-130674749D03*
X127871604Y-72680000D03*
X127528775Y-76636408D03*
X147119117Y-130255168D03*
X128250251Y-73319606D03*
X145988293Y-131017578D03*
X143817666Y-131032929D03*
X101092314Y-90894703D03*
X103870624Y-106316043D03*
X142501359Y-69591485D03*
X117564006Y-88801930D03*
X128296302Y-75500467D03*
X153130000Y-93240000D03*
X143176783Y-69959899D03*
X146014812Y-70365509D03*
X126895000Y-95275000D03*
X124200000Y-97275000D03*
X142491126Y-70302727D03*
X144858404Y-69618449D03*
X133687274Y-93073473D03*
X127513424Y-71989226D03*
X128240017Y-71989226D03*
X128291185Y-76631291D03*
X127539008Y-74338942D03*
X116350000Y-104550000D03*
X127513424Y-73329840D03*
X142477052Y-130306336D03*
X144826768Y-131007345D03*
X127528775Y-75500467D03*
X143807432Y-130296102D03*
X103800000Y-125800000D03*
X142477052Y-131032929D03*
X144831885Y-130270518D03*
X144853287Y-70355276D03*
X128275835Y-74344059D03*
X147150753Y-70365509D03*
X118379836Y-100645918D03*
X147124234Y-131017578D03*
X143831740Y-69591485D03*
X129886646Y-90401865D03*
X146014812Y-69597982D03*
%TO.N,+48V*%
X122600000Y-78800000D03*
X120000000Y-86500000D03*
X122200000Y-83200000D03*
X120972754Y-81519274D03*
X121400000Y-82200000D03*
X121000000Y-79500000D03*
X122200000Y-80800000D03*
X120000000Y-80500000D03*
X121795326Y-86272964D03*
X120972754Y-82744274D03*
X122600000Y-79800000D03*
X121790209Y-81519411D03*
X121400000Y-87000000D03*
X121000000Y-78500000D03*
X120000000Y-79500000D03*
X120000000Y-81500000D03*
X120000000Y-82500000D03*
X121000000Y-86500000D03*
X120972754Y-83894274D03*
X121400000Y-83200000D03*
X120000000Y-78500000D03*
X122200000Y-87000000D03*
X122200000Y-85600000D03*
X122307010Y-79308932D03*
X122000000Y-78800000D03*
X121779975Y-83939681D03*
X122000000Y-79800000D03*
X121000000Y-80500000D03*
X120000000Y-83500000D03*
X120000000Y-84500000D03*
X120000000Y-85500000D03*
X121400000Y-84600000D03*
X122200000Y-84600000D03*
X121000000Y-85500000D03*
X122200000Y-82200000D03*
%TO.N,/Phantom Power Management/+35V_AMP_G*%
X141690000Y-89160000D03*
X142542500Y-93250000D03*
%TO.N,/Phantom Power Management/+48V_PH_SW*%
X145517500Y-79382500D03*
X114850000Y-88100000D03*
%TO.N,+5V_USB*%
X109800000Y-73000000D03*
X90562371Y-71849283D03*
X112500000Y-69500000D03*
X90943271Y-72569298D03*
X109800000Y-73600000D03*
X90255000Y-72545000D03*
X112475060Y-72394076D03*
X112500000Y-70500000D03*
X113000000Y-72000000D03*
X110500000Y-69500000D03*
X112000000Y-73600000D03*
X113000000Y-76500000D03*
X110500000Y-70500000D03*
X112000000Y-74500000D03*
X112000000Y-72000000D03*
X112493695Y-73186075D03*
X109500000Y-69500000D03*
X111500000Y-69500000D03*
X111500000Y-70500000D03*
X113000000Y-72800000D03*
X109860000Y-74314274D03*
X91250000Y-73250000D03*
X110883460Y-74315084D03*
X91388534Y-71836860D03*
X91647250Y-72569677D03*
X110800000Y-73000000D03*
X113000000Y-74500000D03*
X112000000Y-76500000D03*
X112500000Y-71500000D03*
X113000000Y-73600000D03*
X110800000Y-73600000D03*
X112000000Y-72800000D03*
X109500000Y-70500000D03*
X112000000Y-75500000D03*
X113000000Y-75500000D03*
X90500000Y-73250000D03*
%TO.N,/48V Regulator/+48V_VCC*%
X110697754Y-79284274D03*
%TO.N,/48V Regulator/+48V_ITH*%
X111856101Y-82162999D03*
%TO.N,/Input Gating/+48V_PH*%
X96400000Y-84737500D03*
X113900000Y-97870000D03*
X96400000Y-97262500D03*
X171750000Y-122600000D03*
%TO.N,/Amplifier/+35V_AMP*%
X119289688Y-99600000D03*
X120930000Y-104400000D03*
%TO.N,/Amplifier/RG2*%
X129400000Y-102800000D03*
X138200000Y-94450000D03*
X124295000Y-106725000D03*
%TO.N,/Hardware & IO Connectors/USB_CC1*%
X81250000Y-70200000D03*
%TO.N,/Hardware & IO Connectors/USB_CC2*%
X81250000Y-73200000D03*
%TO.N,/48V Regulator/+48V_SS*%
X113800000Y-83300000D03*
%TO.N,GND1*%
X94098993Y-76116576D03*
X124365067Y-82203985D03*
X126500000Y-85000000D03*
X83250000Y-68250000D03*
X98741058Y-75338815D03*
X125323413Y-71999459D03*
X109500000Y-76500000D03*
X124365067Y-86967772D03*
X111000000Y-76500000D03*
X126500000Y-87000000D03*
X125127478Y-86962655D03*
X94098993Y-75389983D03*
X125323413Y-73329840D03*
X126500000Y-82000000D03*
X124292348Y-79303815D03*
X128500000Y-87000000D03*
X110250000Y-76500000D03*
X124954999Y-72674883D03*
X124769298Y-81513211D03*
X127500000Y-83000000D03*
X124576353Y-76626174D03*
X124753948Y-83902779D03*
X98746175Y-76101225D03*
X124375301Y-84588437D03*
X112200000Y-84600000D03*
X95429373Y-75379749D03*
X124596820Y-73340074D03*
X125132595Y-83206888D03*
X95439607Y-76116576D03*
X128500000Y-83000000D03*
X128500000Y-84000000D03*
X96448709Y-76090992D03*
X128500000Y-85000000D03*
X96453826Y-75354165D03*
X126500000Y-81000000D03*
X124375301Y-83196654D03*
X126500000Y-86000000D03*
X128500000Y-86000000D03*
X124000000Y-78800000D03*
X95695000Y-68195000D03*
X124370184Y-80822436D03*
X114103965Y-81096283D03*
X124000000Y-79800000D03*
X124738597Y-86282114D03*
X125323413Y-74333825D03*
X125122361Y-84588437D03*
X97610234Y-76101225D03*
X124612171Y-71989226D03*
X127500000Y-86000000D03*
X124576353Y-75490233D03*
X115600000Y-84200000D03*
X94789767Y-75758396D03*
X83248892Y-74631436D03*
X97610234Y-75333698D03*
X125425000Y-79000000D03*
X124370184Y-85570872D03*
X127500000Y-81000000D03*
X125343880Y-75490233D03*
X124586586Y-74328708D03*
X89400000Y-67600000D03*
X125500000Y-80000000D03*
X127500000Y-84000000D03*
X126500000Y-84000000D03*
X126500000Y-83000000D03*
X124600000Y-79800000D03*
X127500000Y-85000000D03*
X125122361Y-85565755D03*
X115100000Y-83050000D03*
X127500000Y-82000000D03*
X111400000Y-84600000D03*
X124600000Y-78800000D03*
X125338763Y-76621057D03*
X127500000Y-87000000D03*
X125132595Y-80827553D03*
X125127478Y-82214219D03*
X110682402Y-80972978D03*
%TO.N,Earth*%
X147114000Y-133970000D03*
X94784650Y-78675001D03*
X97600000Y-79053647D03*
X75973338Y-113319234D03*
X143821506Y-66664647D03*
X146025046Y-67413087D03*
X98730824Y-78291237D03*
X96443592Y-78306587D03*
X96438475Y-79043414D03*
X95449841Y-79033180D03*
X98735941Y-79053647D03*
X142491126Y-66674881D03*
X146025046Y-66645560D03*
X94109226Y-78306587D03*
X147155870Y-66650677D03*
X143162709Y-133591354D03*
X143827900Y-133949533D03*
X95439607Y-78306587D03*
X147108883Y-133207590D03*
X145978059Y-133970000D03*
X143181900Y-67043294D03*
X144863521Y-67402854D03*
X94098993Y-79017829D03*
X144868638Y-66666027D03*
X142487285Y-133222940D03*
X144821651Y-133222940D03*
X142491126Y-67401474D03*
X142477052Y-133934182D03*
X145978059Y-133202473D03*
X144816534Y-133959767D03*
X97600000Y-78286120D03*
X147160987Y-67413087D03*
X143817666Y-133222940D03*
X143831740Y-67401474D03*
%TD*%
D41*
%TO.N,/Hardware & IO Connectors/USB_CC_SW*%
X140640000Y-73450000D02*
X135450000Y-68260000D01*
X103180000Y-74268000D02*
X102760000Y-74268000D01*
X174179585Y-73450000D02*
X140640000Y-73450000D01*
X174790385Y-72839200D02*
X174179585Y-73450000D01*
X135450000Y-68260000D02*
X109188000Y-68260000D01*
X109188000Y-68260000D02*
X103180000Y-74268000D01*
%TO.N,/Hardware & IO Connectors/USB_CC_R*%
X82675000Y-71775000D02*
X80285000Y-71775000D01*
X101740000Y-74268000D02*
X85168000Y-74268000D01*
X101740000Y-74578000D02*
X101740000Y-74268000D01*
X103400000Y-78600000D02*
X103400000Y-76238000D01*
X111400000Y-86600000D02*
X103400000Y-78600000D01*
X103400000Y-76238000D02*
X101740000Y-74578000D01*
X111400000Y-87800000D02*
X111400000Y-86600000D01*
X85168000Y-74268000D02*
X82675000Y-71775000D01*
D42*
%TO.N,GND1*%
X115100000Y-74848000D02*
X115100000Y-77020000D01*
X115680000Y-74268000D02*
X115100000Y-74848000D01*
%TO.N,/48V Regulator/+48V_G_R*%
X117368500Y-82206500D02*
X117368500Y-81762500D01*
X117368500Y-81762500D02*
X115950000Y-80344000D01*
D43*
%TO.N,/Phantom Power Management/+48V_PH_SW*%
X129770000Y-88100000D02*
X114850000Y-88100000D01*
X130770000Y-85294000D02*
X130770000Y-87100000D01*
X131296000Y-84768000D02*
X130770000Y-85294000D01*
X140182000Y-84768000D02*
X131296000Y-84768000D01*
X130770000Y-87100000D02*
X129770000Y-88100000D01*
X145517500Y-79382500D02*
X145517500Y-79432500D01*
X145517500Y-79432500D02*
X140182000Y-84768000D01*
%TO.N,/Input Gating/+48V_PH*%
X169310000Y-122600000D02*
X171750000Y-122600000D01*
X166460000Y-119750000D02*
X169310000Y-122600000D01*
X113900000Y-103620000D02*
X130030000Y-119750000D01*
X113900000Y-97870000D02*
X113900000Y-103620000D01*
X130030000Y-119750000D02*
X166460000Y-119750000D01*
%TO.N,/Phantom Power Management/+48V_PH_R*%
X129795000Y-120935000D02*
X113899191Y-105039191D01*
X165635000Y-120935000D02*
X129795000Y-120935000D01*
X173505094Y-128805094D02*
X165635000Y-120935000D01*
X176058680Y-128805094D02*
X173505094Y-128805094D01*
X177291709Y-130038123D02*
X176058680Y-128805094D01*
X113899191Y-105039191D02*
X113899191Y-104933480D01*
D41*
%TO.N,/Amplifier/+35V_AMP*%
X123193567Y-101600000D02*
X130400000Y-101600000D01*
X130400000Y-101600000D02*
X132000000Y-100000000D01*
X120930000Y-103870000D02*
X120930000Y-103863567D01*
X120930000Y-103863567D02*
X123193567Y-101600000D01*
D43*
%TO.N,/Input Gating/+48V_PH*%
X171750000Y-122600000D02*
X174802509Y-125652509D01*
X174802509Y-125652509D02*
X174802509Y-127548923D01*
X113900000Y-97870000D02*
X113900000Y-103890000D01*
X107200000Y-91150000D02*
X103700000Y-91150000D01*
X113900000Y-97850000D02*
X107200000Y-91150000D01*
X113900000Y-97870000D02*
X113900000Y-97850000D01*
X97590248Y-97262500D02*
X103700000Y-91152748D01*
X96400000Y-97262500D02*
X97590248Y-97262500D01*
X103700000Y-91152748D02*
X103700000Y-91150000D01*
D41*
%TO.N,/Amplifier/+35V_AMP*%
X120930000Y-104400000D02*
X120930000Y-103870000D01*
%TO.N,GND1*%
X112200000Y-94950000D02*
X112200000Y-84600000D01*
D44*
%TO.N,/48V Regulator/+48V_SS*%
X113800000Y-83300000D02*
X113772028Y-83300000D01*
X113772028Y-83300000D02*
X113377754Y-83694274D01*
D41*
%TO.N,GND1*%
X110697754Y-80957626D02*
X110697754Y-80174274D01*
X110682402Y-80972978D02*
X110697754Y-80957626D01*
D42*
%TO.N,/48V Regulator/+48V_SNS*%
X115100000Y-77950000D02*
X115100000Y-77980000D01*
X115100000Y-78350000D02*
X115100000Y-77950000D01*
X115740000Y-78990000D02*
X115100000Y-78350000D01*
X115950000Y-78990000D02*
X115740000Y-78990000D01*
D41*
X115683474Y-78633474D02*
X115877754Y-78633474D01*
%TO.N,GND1*%
X113481101Y-79512999D02*
X113479344Y-79511242D01*
D45*
%TO.N,/Phantom Power Management/GND_R*%
X205150000Y-85300000D02*
X212600000Y-92750000D01*
X184738547Y-85300000D02*
X205150000Y-85300000D01*
X183278435Y-86760112D02*
X184738547Y-85300000D01*
X212600000Y-92750000D02*
X212600000Y-121600000D01*
X212600000Y-121600000D02*
X205340000Y-128860000D01*
X183278435Y-89300112D02*
X183278435Y-86760112D01*
D41*
%TO.N,/Phantom Power Management/+35V_AMP_G*%
X141690000Y-92397500D02*
X142542500Y-93250000D01*
X141690000Y-89160000D02*
X141690000Y-92397500D01*
D46*
%TO.N,/48V Regulator/+48V_ITH*%
X111797376Y-82104274D02*
X111856101Y-82162999D01*
X111497754Y-82104274D02*
X111797376Y-82104274D01*
X111397754Y-83014274D02*
X111397754Y-82204274D01*
D45*
%TO.N,/Phantom Power Management/PH_LED_GR_R*%
X205500000Y-108747917D02*
X205500000Y-105700000D01*
D41*
%TO.N,/Phantom Power Management/PH_LED_GR*%
X166680000Y-108700000D02*
X175380000Y-108700000D01*
D45*
%TO.N,/Phantom Power Management/PH_LED_GR_R*%
X205200000Y-100200000D02*
X186136089Y-100200000D01*
X183278435Y-91840112D02*
X183278435Y-97342346D01*
X206492175Y-125167825D02*
X206492175Y-109740092D01*
X206750000Y-101750000D02*
X205200000Y-100200000D01*
X205500000Y-105700000D02*
X206750000Y-104450000D01*
X206492175Y-125167825D02*
X202800000Y-128860000D01*
X186136089Y-100200000D02*
X183278435Y-97342346D01*
X206492175Y-109740092D02*
X205500000Y-108747917D01*
X206750000Y-104450000D02*
X206750000Y-101750000D01*
D43*
%TO.N,/Input Gating/+48V_PH*%
X103700000Y-91150000D02*
X97287500Y-84737500D01*
X97287500Y-84737500D02*
X96400000Y-84737500D01*
D41*
%TO.N,Net-(R411-Pad2)*%
X210500000Y-105837500D02*
X210500000Y-103163175D01*
%TO.N,Net-(R411-Pad1)*%
X207731138Y-108035157D02*
X210127343Y-108035157D01*
X210127343Y-108035157D02*
X210500000Y-107662500D01*
X207412500Y-111000000D02*
X207412500Y-108353795D01*
%TO.N,Net-(R412-Pad1)*%
X200792498Y-112870677D02*
X202755278Y-110907897D01*
X202755278Y-110907897D02*
X205495397Y-110907897D01*
%TO.N,Net-(R413-Pad1)*%
X194254603Y-110907897D02*
X197004718Y-110907897D01*
X197004718Y-111320017D02*
X198967498Y-113282797D01*
%TO.N,Net-(R414-Pad1)*%
X189250000Y-107662500D02*
X189622657Y-108035157D01*
X192028858Y-110691358D02*
X192337500Y-111000000D01*
X192028858Y-108035157D02*
X192028858Y-110691358D01*
X189622657Y-108035157D02*
X192028858Y-108035157D01*
%TO.N,Net-(R415-Pad1)*%
X188743998Y-103059297D02*
X186781218Y-101096517D01*
X189156118Y-103059297D02*
X189156118Y-105743618D01*
%TO.N,Net-(R416-Pad1)*%
X189250000Y-94662500D02*
X189250000Y-97214855D01*
X188743998Y-97308737D02*
X186781218Y-99271517D01*
%TO.N,Net-(R417-Pad1)*%
X192337500Y-89500000D02*
X192337500Y-92024235D01*
X189754623Y-92332877D02*
X189250000Y-92837500D01*
X192028858Y-92332877D02*
X189754623Y-92332877D01*
%TO.N,Net-(R418-Pad1)*%
X198967498Y-87497357D02*
X197004718Y-89460137D01*
X197004718Y-89460137D02*
X194202363Y-89460137D01*
%TO.N,Net-(R419-Pad1)*%
X202755278Y-89460137D02*
X205377363Y-89460137D01*
X200792498Y-87497357D02*
X202755278Y-89460137D01*
%TO.N,Net-(R420-Pad1)*%
X210500000Y-92925000D02*
X209907877Y-92332877D01*
X207412500Y-89250000D02*
X207412500Y-92014239D01*
X209907877Y-92332877D02*
X207731138Y-92332877D01*
%TO.N,Net-(R421-Pad1)*%
X207662500Y-100250115D02*
X210603878Y-97308737D01*
X207662500Y-103000000D02*
X207662500Y-100250115D01*
X210500000Y-94575000D02*
X210500000Y-97204859D01*
%TO.N,/Amplifier/+35V_AMP*%
X119289688Y-99600000D02*
X119289688Y-102229688D01*
X119289688Y-102229688D02*
X120930000Y-103870000D01*
%TO.N,/Amplifier/RG1_R*%
X192253112Y-112750000D02*
X184290000Y-112750000D01*
X205837500Y-103000000D02*
X200587500Y-108250000D01*
%TO.N,/Amplifier/RG1*%
X166680000Y-91720000D02*
X166680000Y-89180000D01*
%TO.N,/Amplifier/RG1_R*%
X195338888Y-108250000D02*
X193296000Y-110292888D01*
X193296000Y-110292888D02*
X193296000Y-111707112D01*
%TO.N,/Amplifier/RG1*%
X166680000Y-89180000D02*
X175476341Y-89180000D01*
%TO.N,/Amplifier/RG1_R*%
X193296000Y-111707112D02*
X192253112Y-112750000D01*
%TO.N,/Amplifier/RG1*%
X175477804Y-89181463D02*
X175477804Y-91721463D01*
%TO.N,/Amplifier/RG1_R*%
X184290000Y-112750000D02*
X183280000Y-113760000D01*
%TO.N,/Amplifier/RG1*%
X175477804Y-91721463D02*
X166681463Y-91721463D01*
%TO.N,/Amplifier/RG1_R*%
X183280000Y-116300000D02*
X183280000Y-113760000D01*
X200587500Y-108250000D02*
X195338888Y-108250000D01*
%TO.N,/Amplifier/RG2*%
X158870000Y-94450000D02*
X166680000Y-86640000D01*
%TO.N,/Amplifier/RG2_R*%
X185210000Y-106750000D02*
X190622200Y-106750000D01*
X192372200Y-105000000D02*
X200514855Y-105000000D01*
%TO.N,/Amplifier/RG2*%
X166680000Y-84100000D02*
X175476341Y-84100000D01*
X138200000Y-94450000D02*
X158870000Y-94450000D01*
%TO.N,/Amplifier/RG2_R*%
X190622200Y-106750000D02*
X192372200Y-105000000D01*
X183280000Y-111220000D02*
X183280000Y-108680000D01*
X183280000Y-108680000D02*
X185210000Y-106750000D01*
%TO.N,/Amplifier/RG2*%
X166680000Y-86640000D02*
X166680000Y-84100000D01*
%TO.N,/Amplifier/RG2_R*%
X200514855Y-105000000D02*
X202605418Y-102909437D01*
%TO.N,/Amplifier/RG2*%
X129400000Y-102800000D02*
X125475000Y-106725000D01*
X175477804Y-84101463D02*
X175477804Y-86641463D01*
X175477804Y-86641463D02*
X166681463Y-86641463D01*
X125475000Y-106725000D02*
X124295000Y-106725000D01*
D42*
%TO.N,/Hardware & IO Connectors/USB_CC1*%
X81250000Y-70200000D02*
X80320000Y-70200000D01*
%TO.N,/Hardware & IO Connectors/USB_CC2*%
X81250000Y-73200000D02*
X80280000Y-73200000D01*
D46*
%TO.N,/48V Regulator/+48V_ITH_R*%
X112107754Y-81084274D02*
X112617754Y-81594274D01*
X111497754Y-81084274D02*
X112107754Y-81084274D01*
D41*
%TO.N,GND1*%
X112200000Y-83936060D02*
X112200000Y-84600000D01*
X176000000Y-73910000D02*
X171660000Y-78250000D01*
X177070800Y-72839200D02*
X176000000Y-73910000D01*
X171660000Y-78250000D02*
X130250000Y-78250000D01*
X174830000Y-70350000D02*
X176000000Y-71520000D01*
X111397754Y-83974274D02*
X111397754Y-84597754D01*
X112450854Y-83685206D02*
X112200000Y-83936060D01*
X113605974Y-81594274D02*
X114103965Y-81096283D01*
X176000000Y-71520000D02*
X176000000Y-73910000D01*
X111397754Y-84597754D02*
X111400000Y-84600000D01*
X130250000Y-78250000D02*
X127500000Y-81000000D01*
X174790385Y-70350000D02*
X174830000Y-70350000D01*
X177279585Y-72839200D02*
X177070800Y-72839200D01*
%TO.N,/Hardware & IO Connectors/USB_CC_R*%
X80250000Y-72270000D02*
X80250000Y-71230000D01*
D45*
%TO.N,/Phantom Power Management/PH_LED_RED_R*%
X210670112Y-84220112D02*
X214000000Y-87550000D01*
X214000000Y-87550000D02*
X214000000Y-122740000D01*
D41*
%TO.N,/Phantom Power Management/PH_LED_RED*%
X166680000Y-116320000D02*
X175380000Y-116320000D01*
D45*
%TO.N,/Phantom Power Management/PH_LED_RED_R*%
X214000000Y-122740000D02*
X207880000Y-128860000D01*
X183278435Y-84220112D02*
X210670112Y-84220112D01*
%TD*%
%TA.AperFunction,Conductor*%
%TO.N,Earth*%
G36*
X193937555Y-63599947D02*
G01*
X193981732Y-63618290D01*
X194000001Y-63662446D01*
X194000098Y-68464084D01*
X193981793Y-68508278D01*
X193937599Y-68526585D01*
X193937560Y-68526585D01*
X136426991Y-68492013D01*
X136382835Y-68473707D01*
X135762232Y-67853103D01*
X135762223Y-67853096D01*
X135646279Y-67786155D01*
X135646270Y-67786151D01*
X135516951Y-67751501D01*
X135516946Y-67751500D01*
X135516945Y-67751500D01*
X109254945Y-67751500D01*
X109121055Y-67751500D01*
X109121054Y-67751500D01*
X109121048Y-67751501D01*
X108991729Y-67786151D01*
X108991720Y-67786155D01*
X108875776Y-67853096D01*
X108875767Y-67853103D01*
X108272115Y-68456755D01*
X108227921Y-68475061D01*
X108227883Y-68475061D01*
X96509186Y-68468017D01*
X96465003Y-68449685D01*
X96461209Y-68445527D01*
X96244773Y-68185787D01*
X96230823Y-68153935D01*
X96217788Y-68054919D01*
X96163719Y-67924385D01*
X96077707Y-67812293D01*
X95965615Y-67726281D01*
X95965611Y-67726279D01*
X95835085Y-67672213D01*
X95831128Y-67671153D01*
X95831744Y-67668850D01*
X95798934Y-67650745D01*
X95480000Y-67268000D01*
X89852438Y-67268000D01*
X89808244Y-67249694D01*
X89802853Y-67243548D01*
X89782707Y-67217293D01*
X89670615Y-67131281D01*
X89670611Y-67131279D01*
X89540084Y-67077213D01*
X89540074Y-67077210D01*
X89400002Y-67058770D01*
X89399998Y-67058770D01*
X89259925Y-67077210D01*
X89259915Y-67077213D01*
X89129388Y-67131279D01*
X89017293Y-67217293D01*
X88997147Y-67243548D01*
X88955720Y-67267465D01*
X88947562Y-67268000D01*
X83480002Y-67268000D01*
X83480000Y-67268000D01*
X83479999Y-67268000D01*
X83479998Y-67268001D01*
X82788620Y-67931589D01*
X82745370Y-67948998D01*
X80550000Y-67950000D01*
X80549999Y-67950001D01*
X80551198Y-69678141D01*
X80532923Y-69722348D01*
X80488741Y-69740684D01*
X80478921Y-69739915D01*
X80458741Y-69736719D01*
X80451045Y-69735500D01*
X80451044Y-69735500D01*
X80048959Y-69735500D01*
X80048954Y-69735501D01*
X79956572Y-69750132D01*
X79956571Y-69750132D01*
X79845228Y-69806865D01*
X79756865Y-69895228D01*
X79700131Y-70006574D01*
X79700130Y-70006576D01*
X79685501Y-70098941D01*
X79685500Y-70098957D01*
X79685500Y-70441040D01*
X79685501Y-70441045D01*
X79700132Y-70533427D01*
X79700132Y-70533428D01*
X79756865Y-70644771D01*
X79817900Y-70705806D01*
X79836206Y-70750000D01*
X79817900Y-70794194D01*
X79756865Y-70855228D01*
X79700131Y-70966574D01*
X79700130Y-70966576D01*
X79685501Y-71058941D01*
X79685500Y-71058957D01*
X79685500Y-71401040D01*
X79685501Y-71401045D01*
X79700132Y-71493427D01*
X79700132Y-71493428D01*
X79734688Y-71561245D01*
X79741500Y-71589620D01*
X79741500Y-71910379D01*
X79734688Y-71938754D01*
X79700131Y-72006574D01*
X79700130Y-72006576D01*
X79685501Y-72098941D01*
X79685500Y-72098957D01*
X79685500Y-72441040D01*
X79685501Y-72441045D01*
X79700132Y-72533427D01*
X79700132Y-72533428D01*
X79756865Y-72644771D01*
X79817900Y-72705806D01*
X79836206Y-72750000D01*
X79817900Y-72794194D01*
X79756865Y-72855228D01*
X79700131Y-72966574D01*
X79700130Y-72966576D01*
X79685501Y-73058941D01*
X79685500Y-73058957D01*
X79685500Y-73401040D01*
X79685501Y-73401045D01*
X79700132Y-73493427D01*
X79700132Y-73493428D01*
X79734233Y-73560354D01*
X79756865Y-73604771D01*
X79845229Y-73693135D01*
X79956573Y-73749868D01*
X79956574Y-73749868D01*
X79956576Y-73749869D01*
X80048941Y-73764498D01*
X80048943Y-73764498D01*
X80048955Y-73764500D01*
X80451044Y-73764499D01*
X80481794Y-73759629D01*
X80528308Y-73770795D01*
X80553302Y-73811581D01*
X80554072Y-73821316D01*
X80554963Y-75105200D01*
X80554963Y-75105201D01*
X82959120Y-75102597D01*
X82996752Y-75115145D01*
X83175066Y-75249248D01*
X83199383Y-75290442D01*
X83200000Y-75299199D01*
X83200000Y-77200000D01*
X100864015Y-77200266D01*
X100908209Y-77218572D01*
X100926514Y-77262686D01*
X100929964Y-79972052D01*
X100911714Y-80016270D01*
X100909194Y-80018660D01*
X98680001Y-82017998D01*
X98679998Y-82018003D01*
X97950000Y-83799996D01*
X97830867Y-84336095D01*
X97803410Y-84375266D01*
X97756297Y-84383549D01*
X97725661Y-84366731D01*
X97638721Y-84279790D01*
X97638715Y-84279785D01*
X97619655Y-84268780D01*
X97619655Y-84268781D01*
X97508283Y-84204480D01*
X97508280Y-84204479D01*
X97362811Y-84165501D01*
X97362806Y-84165500D01*
X97362805Y-84165500D01*
X96324695Y-84165500D01*
X96324694Y-84165500D01*
X96324688Y-84165501D01*
X96179219Y-84204479D01*
X96179216Y-84204480D01*
X96048782Y-84279787D01*
X96048778Y-84279790D01*
X95942290Y-84386278D01*
X95942287Y-84386282D01*
X95866980Y-84516716D01*
X95866979Y-84516719D01*
X95828001Y-84662188D01*
X95828000Y-84662196D01*
X95828000Y-84812803D01*
X95828001Y-84812811D01*
X95866979Y-84958280D01*
X95866980Y-84958283D01*
X95891066Y-85000000D01*
X95935577Y-85077096D01*
X95942287Y-85088717D01*
X95942290Y-85088721D01*
X96048778Y-85195209D01*
X96048782Y-85195212D01*
X96048784Y-85195214D01*
X96135882Y-85245500D01*
X96179216Y-85270519D01*
X96179219Y-85270520D01*
X96179574Y-85270615D01*
X96324695Y-85309500D01*
X97024682Y-85309500D01*
X97068876Y-85327806D01*
X97234376Y-85493306D01*
X97252682Y-85537500D01*
X97234376Y-85581694D01*
X97190182Y-85600000D01*
X85000000Y-85600000D01*
X85000000Y-117470613D01*
X84981694Y-117514807D01*
X84970537Y-117525963D01*
X84970535Y-117525965D01*
X84871987Y-117673451D01*
X84804105Y-117837335D01*
X84769500Y-118011308D01*
X84769500Y-118188691D01*
X84804105Y-118362664D01*
X84871987Y-118526548D01*
X84970535Y-118674034D01*
X84981694Y-118685193D01*
X85000000Y-118729387D01*
X85000000Y-132216271D01*
X85000000Y-132216272D01*
X194446332Y-132168109D01*
X194490534Y-132186395D01*
X194508859Y-132230581D01*
X194508859Y-132230725D01*
X194500116Y-136937616D01*
X194481728Y-136981776D01*
X194437616Y-137000000D01*
X95000000Y-137000000D01*
X75285135Y-137000000D01*
X75240941Y-136981694D01*
X75222635Y-136937521D01*
X75221085Y-132230581D01*
X75218305Y-123788691D01*
X77889500Y-123788691D01*
X77924105Y-123962664D01*
X77991987Y-124126548D01*
X78090535Y-124274034D01*
X78215965Y-124399464D01*
X78363451Y-124498012D01*
X78363452Y-124498012D01*
X78363453Y-124498013D01*
X78527334Y-124565894D01*
X78701309Y-124600500D01*
X78878691Y-124600500D01*
X79052666Y-124565894D01*
X79216547Y-124498013D01*
X79364035Y-124399464D01*
X79489464Y-124274035D01*
X79588013Y-124126547D01*
X79655894Y-123962666D01*
X79690500Y-123788691D01*
X79690500Y-123611309D01*
X79655894Y-123437334D01*
X79588013Y-123273453D01*
X79525069Y-123179252D01*
X79489464Y-123125965D01*
X79364034Y-123000535D01*
X79216548Y-122901987D01*
X79052664Y-122834105D01*
X78878691Y-122799500D01*
X78701309Y-122799500D01*
X78527335Y-122834105D01*
X78363451Y-122901987D01*
X78215965Y-123000535D01*
X78090535Y-123125965D01*
X77991987Y-123273451D01*
X77924105Y-123437335D01*
X77889500Y-123611308D01*
X77889500Y-123788691D01*
X75218305Y-123788691D01*
X75216461Y-118188691D01*
X77769500Y-118188691D01*
X77804105Y-118362664D01*
X77871987Y-118526548D01*
X77970535Y-118674034D01*
X78095965Y-118799464D01*
X78243451Y-118898012D01*
X78243452Y-118898012D01*
X78243453Y-118898013D01*
X78407334Y-118965894D01*
X78581309Y-119000500D01*
X78758691Y-119000500D01*
X78932666Y-118965894D01*
X79096547Y-118898013D01*
X79244035Y-118799464D01*
X79369464Y-118674035D01*
X79468013Y-118526547D01*
X79535894Y-118362666D01*
X79570500Y-118188691D01*
X79570500Y-118011309D01*
X79535894Y-117837334D01*
X79468013Y-117673453D01*
X79402272Y-117575066D01*
X79369464Y-117525965D01*
X79244034Y-117400535D01*
X79096548Y-117301987D01*
X78932664Y-117234105D01*
X78758691Y-117199500D01*
X78581309Y-117199500D01*
X78407335Y-117234105D01*
X78243451Y-117301987D01*
X78095965Y-117400535D01*
X77970535Y-117525965D01*
X77871987Y-117673451D01*
X77804105Y-117837335D01*
X77769500Y-118011308D01*
X77769500Y-118188691D01*
X75216461Y-118188691D01*
X75215796Y-116168691D01*
X82969500Y-116168691D01*
X83004105Y-116342664D01*
X83071987Y-116506548D01*
X83170535Y-116654034D01*
X83295965Y-116779464D01*
X83443451Y-116878012D01*
X83443452Y-116878012D01*
X83443453Y-116878013D01*
X83607334Y-116945894D01*
X83781309Y-116980500D01*
X83958691Y-116980500D01*
X84132666Y-116945894D01*
X84296547Y-116878013D01*
X84444035Y-116779464D01*
X84569464Y-116654035D01*
X84668013Y-116506547D01*
X84735894Y-116342666D01*
X84770500Y-116168691D01*
X84770500Y-115991309D01*
X84735894Y-115817334D01*
X84668013Y-115653453D01*
X84569464Y-115505965D01*
X84444035Y-115380536D01*
X84444034Y-115380535D01*
X84296548Y-115281987D01*
X84132664Y-115214105D01*
X83958691Y-115179500D01*
X83781309Y-115179500D01*
X83607335Y-115214105D01*
X83443451Y-115281987D01*
X83295965Y-115380535D01*
X83170535Y-115505965D01*
X83071987Y-115653451D01*
X83004105Y-115817335D01*
X82969500Y-115991308D01*
X82969500Y-116168691D01*
X75215796Y-116168691D01*
X75209565Y-97248691D01*
X77889500Y-97248691D01*
X77924105Y-97422664D01*
X77991987Y-97586548D01*
X78090535Y-97734034D01*
X78215965Y-97859464D01*
X78363451Y-97958012D01*
X78363452Y-97958012D01*
X78363453Y-97958013D01*
X78527334Y-98025894D01*
X78701309Y-98060500D01*
X78878691Y-98060500D01*
X79052666Y-98025894D01*
X79216547Y-97958013D01*
X79364035Y-97859464D01*
X79489464Y-97734035D01*
X79588013Y-97586547D01*
X79655894Y-97422666D01*
X79690500Y-97248691D01*
X79690500Y-97071309D01*
X79655894Y-96897334D01*
X79588013Y-96733453D01*
X79489464Y-96585965D01*
X79364035Y-96460536D01*
X79364034Y-96460535D01*
X79216548Y-96361987D01*
X79052664Y-96294105D01*
X78878691Y-96259500D01*
X78701309Y-96259500D01*
X78527335Y-96294105D01*
X78363451Y-96361987D01*
X78215965Y-96460535D01*
X78090535Y-96585965D01*
X77991987Y-96733451D01*
X77924105Y-96897335D01*
X77889500Y-97071308D01*
X77889500Y-97248691D01*
X75209565Y-97248691D01*
X75207056Y-89628691D01*
X82969500Y-89628691D01*
X83004105Y-89802664D01*
X83071987Y-89966548D01*
X83170535Y-90114034D01*
X83295965Y-90239464D01*
X83443451Y-90338012D01*
X83443452Y-90338012D01*
X83443453Y-90338013D01*
X83607334Y-90405894D01*
X83781309Y-90440500D01*
X83958691Y-90440500D01*
X84132666Y-90405894D01*
X84296547Y-90338013D01*
X84444035Y-90239464D01*
X84569464Y-90114035D01*
X84668013Y-89966547D01*
X84735894Y-89802666D01*
X84770500Y-89628691D01*
X84770500Y-89451309D01*
X84735894Y-89277334D01*
X84668013Y-89113453D01*
X84569464Y-88965965D01*
X84444035Y-88840536D01*
X84444034Y-88840535D01*
X84296548Y-88741987D01*
X84132664Y-88674105D01*
X83958691Y-88639500D01*
X83781309Y-88639500D01*
X83607335Y-88674105D01*
X83443451Y-88741987D01*
X83295965Y-88840535D01*
X83170535Y-88965965D01*
X83071987Y-89113451D01*
X83004105Y-89277335D01*
X82969500Y-89451308D01*
X82969500Y-89628691D01*
X75207056Y-89628691D01*
X75198472Y-63562571D01*
X75216763Y-63518372D01*
X75260949Y-63500052D01*
X193937555Y-63599947D01*
G37*
%TD.AperFunction*%
%TD*%
M02*
