%TF.GenerationSoftware,KiCad,Pcbnew,8.0.1*%
%TF.CreationDate,2024-11-27T15:43:16-06:00*%
%TF.ProjectId,XAmplifier,58416d70-6c69-4666-9965-722e6b696361,rev?*%
%TF.SameCoordinates,Original*%
%TF.FileFunction,Paste,Top*%
%TF.FilePolarity,Positive*%
%FSLAX46Y46*%
G04 Gerber Fmt 4.6, Leading zero omitted, Abs format (unit mm)*
G04 Created by KiCad (PCBNEW 8.0.1) date 2024-11-27 15:43:16*
%MOMM*%
%LPD*%
G01*
G04 APERTURE LIST*
G04 Aperture macros list*
%AMRoundRect*
0 Rectangle with rounded corners*
0 $1 Rounding radius*
0 $2 $3 $4 $5 $6 $7 $8 $9 X,Y pos of 4 corners*
0 Add a 4 corners polygon primitive as box body*
4,1,4,$2,$3,$4,$5,$6,$7,$8,$9,$2,$3,0*
0 Add four circle primitives for the rounded corners*
1,1,$1+$1,$2,$3*
1,1,$1+$1,$4,$5*
1,1,$1+$1,$6,$7*
1,1,$1+$1,$8,$9*
0 Add four rect primitives between the rounded corners*
20,1,$1+$1,$2,$3,$4,$5,0*
20,1,$1+$1,$4,$5,$6,$7,0*
20,1,$1+$1,$6,$7,$8,$9,0*
20,1,$1+$1,$8,$9,$2,$3,0*%
G04 Aperture macros list end*
%ADD10C,0.000000*%
%ADD11RoundRect,0.135000X-0.135000X-0.185000X0.135000X-0.185000X0.135000X0.185000X-0.135000X0.185000X0*%
%ADD12RoundRect,0.225000X-0.375000X0.225000X-0.375000X-0.225000X0.375000X-0.225000X0.375000X0.225000X0*%
%ADD13RoundRect,0.225000X0.225000X0.375000X-0.225000X0.375000X-0.225000X-0.375000X0.225000X-0.375000X0*%
%ADD14R,3.450000X2.550000*%
%ADD15RoundRect,0.150000X-0.150000X0.512500X-0.150000X-0.512500X0.150000X-0.512500X0.150000X0.512500X0*%
%ADD16RoundRect,0.140000X0.140000X0.170000X-0.140000X0.170000X-0.140000X-0.170000X0.140000X-0.170000X0*%
%ADD17R,1.100000X1.500000*%
%ADD18RoundRect,0.250000X0.625000X-0.312500X0.625000X0.312500X-0.625000X0.312500X-0.625000X-0.312500X0*%
%ADD19R,0.279400X0.812800*%
%ADD20RoundRect,0.250000X-0.300000X-0.300000X0.300000X-0.300000X0.300000X0.300000X-0.300000X0.300000X0*%
%ADD21RoundRect,0.250000X0.300000X-0.300000X0.300000X0.300000X-0.300000X0.300000X-0.300000X-0.300000X0*%
%ADD22RoundRect,0.140000X-0.140000X-0.170000X0.140000X-0.170000X0.140000X0.170000X-0.140000X0.170000X0*%
%ADD23RoundRect,0.250000X-0.625000X0.312500X-0.625000X-0.312500X0.625000X-0.312500X0.625000X0.312500X0*%
%ADD24RoundRect,0.250000X-0.650000X0.325000X-0.650000X-0.325000X0.650000X-0.325000X0.650000X0.325000X0*%
%ADD25R,1.200000X2.500000*%
%ADD26RoundRect,0.218750X-0.218750X-0.381250X0.218750X-0.381250X0.218750X0.381250X-0.218750X0.381250X0*%
%ADD27RoundRect,0.250000X0.262500X0.450000X-0.262500X0.450000X-0.262500X-0.450000X0.262500X-0.450000X0*%
%ADD28RoundRect,0.250000X0.325000X0.650000X-0.325000X0.650000X-0.325000X-0.650000X0.325000X-0.650000X0*%
%ADD29R,2.100000X2.600000*%
%ADD30RoundRect,0.250000X-0.325000X-0.650000X0.325000X-0.650000X0.325000X0.650000X-0.325000X0.650000X0*%
%ADD31RoundRect,0.150000X-0.150000X0.587500X-0.150000X-0.587500X0.150000X-0.587500X0.150000X0.587500X0*%
%ADD32RoundRect,0.225000X-0.225000X-0.250000X0.225000X-0.250000X0.225000X0.250000X-0.225000X0.250000X0*%
%ADD33RoundRect,0.225000X-0.225000X-0.375000X0.225000X-0.375000X0.225000X0.375000X-0.225000X0.375000X0*%
%ADD34RoundRect,0.150000X0.150000X-0.512500X0.150000X0.512500X-0.150000X0.512500X-0.150000X-0.512500X0*%
%ADD35RoundRect,0.250000X1.100000X-0.325000X1.100000X0.325000X-1.100000X0.325000X-1.100000X-0.325000X0*%
%ADD36RoundRect,0.250000X0.312500X0.625000X-0.312500X0.625000X-0.312500X-0.625000X0.312500X-0.625000X0*%
%ADD37C,3.098800*%
%ADD38RoundRect,0.150000X-0.150000X0.825000X-0.150000X-0.825000X0.150000X-0.825000X0.150000X0.825000X0*%
%ADD39R,1.600000X2.250000*%
%ADD40RoundRect,0.250000X-0.250000X-0.475000X0.250000X-0.475000X0.250000X0.475000X-0.250000X0.475000X0*%
%ADD41RoundRect,0.250000X-1.100000X0.325000X-1.100000X-0.325000X1.100000X-0.325000X1.100000X0.325000X0*%
%ADD42R,1.500000X2.200000*%
%ADD43RoundRect,0.225000X0.375000X-0.225000X0.375000X0.225000X-0.375000X0.225000X-0.375000X-0.225000X0*%
%ADD44R,1.800000X1.500000*%
%ADD45RoundRect,0.150000X0.150000X-0.587500X0.150000X0.587500X-0.150000X0.587500X-0.150000X-0.587500X0*%
%ADD46R,1.500000X1.800000*%
%ADD47RoundRect,0.135000X0.135000X0.185000X-0.135000X0.185000X-0.135000X-0.185000X0.135000X-0.185000X0*%
%ADD48RoundRect,0.250000X0.325000X1.100000X-0.325000X1.100000X-0.325000X-1.100000X0.325000X-1.100000X0*%
%ADD49RoundRect,0.135000X0.185000X-0.135000X0.185000X0.135000X-0.185000X0.135000X-0.185000X-0.135000X0*%
%ADD50R,1.240000X0.600000*%
%ADD51R,1.240000X0.300000*%
%ADD52RoundRect,0.200000X-0.200000X-0.275000X0.200000X-0.275000X0.200000X0.275000X-0.200000X0.275000X0*%
%ADD53RoundRect,0.250000X-0.262500X-0.450000X0.262500X-0.450000X0.262500X0.450000X-0.262500X0.450000X0*%
%ADD54RoundRect,0.100000X0.100000X-0.625000X0.100000X0.625000X-0.100000X0.625000X-0.100000X-0.625000X0*%
%ADD55RoundRect,0.172500X0.422500X-0.172500X0.422500X0.172500X-0.422500X0.172500X-0.422500X-0.172500X0*%
%ADD56RoundRect,0.250000X-0.300000X0.300000X-0.300000X-0.300000X0.300000X-0.300000X0.300000X0.300000X0*%
G04 APERTURE END LIST*
D10*
%TO.C,Q404*%
G36*
X119040754Y-81038874D02*
G01*
X116754754Y-81038874D01*
X116754754Y-79337074D01*
X119040754Y-79337074D01*
X119040754Y-81038874D01*
G37*
%TD*%
D11*
%TO.C,R401*%
X147766908Y-79383797D03*
X148786908Y-79383797D03*
%TD*%
D12*
%TO.C,D413*%
X124295000Y-98550000D03*
X124295000Y-101850000D03*
%TD*%
D13*
%TO.C,D414*%
X113445000Y-106875000D03*
X116745000Y-106875000D03*
%TD*%
D14*
%TO.C,R426*%
X97450000Y-118400000D03*
X101850000Y-118400000D03*
%TD*%
D15*
%TO.C,Q402*%
X90947500Y-72545000D03*
X89047500Y-72545000D03*
X89997500Y-74820000D03*
%TD*%
D16*
%TO.C,C430*%
X114002754Y-84669274D03*
X113042754Y-84669274D03*
%TD*%
D17*
%TO.C,SW401*%
X111380000Y-97850000D03*
X113920000Y-97850000D03*
X111380000Y-88950000D03*
X113920000Y-88950000D03*
%TD*%
D18*
%TO.C,R437*%
X94777565Y-75750000D03*
X94777565Y-78675000D03*
%TD*%
D19*
%TO.C,Q404*%
X118872753Y-78244874D03*
X118222755Y-78244874D03*
X117572753Y-78244874D03*
X116922755Y-78244874D03*
X116922755Y-81343674D03*
X117572753Y-81343674D03*
X118222755Y-81343674D03*
X118872753Y-81343674D03*
%TD*%
D20*
%TO.C,D409*%
X119295000Y-98475000D03*
X122095000Y-98475000D03*
%TD*%
D21*
%TO.C,D411*%
X126895000Y-99075000D03*
X126895000Y-96275000D03*
%TD*%
D22*
%TO.C,C411*%
X99566940Y-90887106D03*
X100526940Y-90887106D03*
%TD*%
D23*
%TO.C,R425*%
X124895000Y-109212500D03*
X124895000Y-112137500D03*
%TD*%
D24*
%TO.C,C405*%
X116350000Y-100675000D03*
X116350000Y-103625000D03*
%TD*%
D20*
%TO.C,D408*%
X119295000Y-96075000D03*
X122095000Y-96075000D03*
%TD*%
D25*
%TO.C,J408*%
X77070000Y-121350000D03*
X75970000Y-114850000D03*
X84070000Y-121350000D03*
X81070000Y-121350000D03*
%TD*%
D26*
%TO.C,FB401*%
X136562500Y-93080000D03*
X134437500Y-93080000D03*
%TD*%
D23*
%TO.C,R424*%
X126895000Y-100812500D03*
X126895000Y-103737500D03*
%TD*%
D27*
%TO.C,R438*%
X94812500Y-70175000D03*
X92987500Y-70175000D03*
%TD*%
D28*
%TO.C,C400*%
X121475000Y-88800000D03*
X118525000Y-88800000D03*
%TD*%
D29*
%TO.C,R427*%
X97425000Y-125800000D03*
X102325000Y-125800000D03*
%TD*%
D30*
%TO.C,C426*%
X121797754Y-86269274D03*
X124747754Y-86269274D03*
%TD*%
D31*
%TO.C,Q401*%
X143620000Y-89135000D03*
X141720000Y-89135000D03*
X142670000Y-91010000D03*
%TD*%
D13*
%TO.C,D401*%
X144947500Y-76750000D03*
X141647500Y-76750000D03*
%TD*%
D32*
%TO.C,F400*%
X123153010Y-88339825D03*
X124703010Y-88339825D03*
%TD*%
D33*
%TO.C,D406*%
X144090000Y-93250000D03*
X147390000Y-93250000D03*
%TD*%
D23*
%TO.C,R406*%
X96400000Y-84737500D03*
X96400000Y-87662500D03*
%TD*%
D34*
%TO.C,Q403*%
X89037490Y-70468888D03*
X90937490Y-70468888D03*
X89987490Y-68193888D03*
%TD*%
D35*
%TO.C,C419*%
X146009695Y-69983093D03*
X146009695Y-67033093D03*
%TD*%
D36*
%TO.C,R410*%
X122062500Y-93600000D03*
X119137500Y-93600000D03*
%TD*%
D37*
%TO.C,SW403*%
X202605418Y-97458597D03*
X197154578Y-97458597D03*
X197154578Y-102909437D03*
%TD*%
D38*
%TO.C,U400*%
X122200000Y-102000000D03*
X120930000Y-102000000D03*
X119660000Y-102000000D03*
X118390000Y-102000000D03*
X118390000Y-106950000D03*
X119660000Y-106950000D03*
X120930000Y-106950000D03*
X122200000Y-106950000D03*
%TD*%
D30*
%TO.C,C425*%
X121797754Y-83894274D03*
X124747754Y-83894274D03*
%TD*%
D13*
%TO.C,D405*%
X142542500Y-93250000D03*
X139242500Y-93250000D03*
%TD*%
D39*
%TO.C,D415*%
X121622754Y-72894274D03*
X121622754Y-76894274D03*
%TD*%
D40*
%TO.C,C409*%
X96350000Y-92000000D03*
X98250000Y-92000000D03*
%TD*%
D14*
%TO.C,R423*%
X97450000Y-113875000D03*
X101850000Y-113875000D03*
%TD*%
D12*
%TO.C,D403*%
X141730000Y-83800000D03*
X141730000Y-87100000D03*
%TD*%
D41*
%TO.C,C418*%
X145962033Y-130710668D03*
X145962033Y-133660668D03*
%TD*%
D42*
%TO.C,L400*%
X112497754Y-72650000D03*
X118897754Y-72650000D03*
%TD*%
D29*
%TO.C,R429*%
X122380000Y-109875000D03*
X117480000Y-109875000D03*
%TD*%
D43*
%TO.C,D400*%
X140170000Y-82117500D03*
X140170000Y-78817500D03*
%TD*%
D36*
%TO.C,R409*%
X120662500Y-91200000D03*
X117737500Y-91200000D03*
%TD*%
D11*
%TO.C,R446*%
X114512754Y-83669274D03*
X115532754Y-83669274D03*
%TD*%
D29*
%TO.C,R408*%
X113800000Y-101700000D03*
X108900000Y-101700000D03*
%TD*%
D44*
%TO.C,R405*%
X144160000Y-84070000D03*
X144160000Y-87070000D03*
%TD*%
D45*
%TO.C,Q400*%
X144567500Y-81257500D03*
X146467500Y-81257500D03*
X145517500Y-79382500D03*
%TD*%
D18*
%TO.C,R431*%
X143162033Y-133648168D03*
X143162033Y-130723168D03*
%TD*%
D46*
%TO.C,R403*%
X171745000Y-120035000D03*
X174745000Y-120035000D03*
%TD*%
D18*
%TO.C,R407*%
X96400000Y-97262500D03*
X96400000Y-94337500D03*
%TD*%
D47*
%TO.C,R444*%
X114057754Y-85669274D03*
X113037754Y-85669274D03*
%TD*%
D23*
%TO.C,R432*%
X143176783Y-67046772D03*
X143176783Y-69971772D03*
%TD*%
D48*
%TO.C,C420*%
X127905000Y-75480000D03*
X124955000Y-75480000D03*
%TD*%
D35*
%TO.C,C421*%
X97589767Y-75725000D03*
X97589767Y-78675000D03*
%TD*%
D49*
%TO.C,R442*%
X110697754Y-80304274D03*
X110697754Y-79284274D03*
%TD*%
D40*
%TO.C,C410*%
X96350000Y-89750000D03*
X98250000Y-89750000D03*
%TD*%
D50*
%TO.C,J409*%
X82235000Y-68250000D03*
X82235000Y-69050000D03*
D51*
X82235000Y-69700000D03*
X82235000Y-70700000D03*
X82235000Y-72200000D03*
X82235000Y-73200000D03*
D50*
X82235000Y-73850000D03*
X82235000Y-74650000D03*
X82235000Y-74650000D03*
X82235000Y-73850000D03*
D51*
X82235000Y-72700000D03*
X82235000Y-71700000D03*
X82235000Y-71200000D03*
X82235000Y-70200000D03*
D50*
X82235000Y-69050000D03*
X82235000Y-68250000D03*
%TD*%
D30*
%TO.C,C427*%
X121797754Y-81519274D03*
X124747754Y-81519274D03*
%TD*%
D40*
%TO.C,C428*%
X122347754Y-79319274D03*
X124247754Y-79319274D03*
%TD*%
D33*
%TO.C,D402*%
X125750000Y-90400000D03*
X129050000Y-90400000D03*
%TD*%
D44*
%TO.C,R402*%
X142560000Y-81980000D03*
X142560000Y-78980000D03*
%TD*%
D36*
%TO.C,R430*%
X120757500Y-112675000D03*
X117832500Y-112675000D03*
%TD*%
D52*
%TO.C,R447*%
X116775000Y-82800000D03*
X118425000Y-82800000D03*
%TD*%
D46*
%TO.C,R404*%
X171760000Y-122590000D03*
X174760000Y-122590000D03*
%TD*%
D11*
%TO.C,R441*%
X115934673Y-77074399D03*
X116954673Y-77074399D03*
%TD*%
D47*
%TO.C,R448*%
X112510854Y-83685206D03*
X111490854Y-83685206D03*
%TD*%
D53*
%TO.C,R440*%
X92985000Y-68195000D03*
X94810000Y-68195000D03*
%TD*%
D33*
%TO.C,D407*%
X149002500Y-93240000D03*
X152302500Y-93240000D03*
%TD*%
D54*
%TO.C,U401*%
X111856101Y-77862999D03*
X112506101Y-77862999D03*
X113156101Y-77862999D03*
X113806101Y-77862999D03*
X114456101Y-77862999D03*
X115106101Y-77862999D03*
X115106101Y-82162999D03*
X114456101Y-82162999D03*
X113806101Y-82162999D03*
X113156101Y-82162999D03*
X112506101Y-82162999D03*
X111856101Y-82162999D03*
D55*
X114191101Y-79602999D03*
X112771101Y-79602999D03*
X114191101Y-80422999D03*
X112771101Y-80422999D03*
%TD*%
D36*
%TO.C,R433*%
X127880000Y-72667798D03*
X124955000Y-72667798D03*
%TD*%
D56*
%TO.C,D410*%
X124200000Y-93475000D03*
X124200000Y-96275000D03*
%TD*%
D12*
%TO.C,D412*%
X124295000Y-103425000D03*
X124295000Y-106725000D03*
%TD*%
D26*
%TO.C,FB400*%
X126265254Y-88332454D03*
X128390254Y-88332454D03*
%TD*%
D53*
%TO.C,R434*%
X85610000Y-72545000D03*
X87435000Y-72545000D03*
%TD*%
D29*
%TO.C,R428*%
X97476002Y-106324730D03*
X102376002Y-106324730D03*
%TD*%
D24*
%TO.C,C422*%
X110337754Y-76281438D03*
X110337754Y-73331438D03*
%TD*%
M02*
