%TF.GenerationSoftware,KiCad,Pcbnew,8.0.1*%
%TF.CreationDate,2024-11-27T15:43:16-06:00*%
%TF.ProjectId,XAmplifier,58416d70-6c69-4666-9965-722e6b696361,rev?*%
%TF.SameCoordinates,Original*%
%TF.FileFunction,Copper,L3,Inr*%
%TF.FilePolarity,Positive*%
%FSLAX46Y46*%
G04 Gerber Fmt 4.6, Leading zero omitted, Abs format (unit mm)*
G04 Created by KiCad (PCBNEW 8.0.1) date 2024-11-27 15:43:16*
%MOMM*%
%LPD*%
G01*
G04 APERTURE LIST*
%TA.AperFunction,ComponentPad*%
%ADD10C,2.000000*%
%TD*%
%TA.AperFunction,ComponentPad*%
%ADD11R,2.000000X2.000000*%
%TD*%
%TA.AperFunction,ComponentPad*%
%ADD12C,1.600000*%
%TD*%
%TA.AperFunction,ComponentPad*%
%ADD13R,1.600000X1.600000*%
%TD*%
%TA.AperFunction,ComponentPad*%
%ADD14C,1.498600*%
%TD*%
%TA.AperFunction,ComponentPad*%
%ADD15C,6.400000*%
%TD*%
%TA.AperFunction,ComponentPad*%
%ADD16C,1.800000*%
%TD*%
%TA.AperFunction,ComponentPad*%
%ADD17R,1.800000X1.800000*%
%TD*%
%TA.AperFunction,ComponentPad*%
%ADD18C,3.098800*%
%TD*%
%TA.AperFunction,ComponentPad*%
%ADD19O,1.800000X1.000000*%
%TD*%
%TA.AperFunction,ComponentPad*%
%ADD20O,2.100000X1.000000*%
%TD*%
%TA.AperFunction,ComponentPad*%
%ADD21C,2.900000*%
%TD*%
%TA.AperFunction,ComponentPad*%
%ADD22C,3.400000*%
%TD*%
%TA.AperFunction,HeatsinkPad*%
%ADD23C,0.500000*%
%TD*%
%TA.AperFunction,ComponentPad*%
%ADD24R,1.700000X1.700000*%
%TD*%
%TA.AperFunction,ComponentPad*%
%ADD25O,1.700000X1.700000*%
%TD*%
%TA.AperFunction,ViaPad*%
%ADD26C,0.564200*%
%TD*%
%TA.AperFunction,ViaPad*%
%ADD27C,1.100000*%
%TD*%
G04 APERTURE END LIST*
D10*
%TO.N,Net-(D413-A)*%
%TO.C,C412*%
X140000000Y-108000000D03*
D11*
%TO.N,/Amplifier/RG1*%
X145000000Y-108000000D03*
%TD*%
%TO.N,/Phantom Power Management/+48V_FLT*%
%TO.C,C401*%
X132502323Y-86500000D03*
D10*
%TO.N,/Phantom Power Management/+48V_FLT_N*%
X137502323Y-86500000D03*
%TD*%
%TO.N,GND*%
%TO.C,C403*%
X131897677Y-74190000D03*
D11*
%TO.N,/Phantom Power Management/+48V_PH_SW*%
X136897677Y-74190000D03*
%TD*%
%TO.N,/Phantom Power Management/+35V_AMP_G*%
%TO.C,C406*%
X148252323Y-100210000D03*
D10*
%TO.N,GND*%
X153252323Y-100210000D03*
%TD*%
D12*
%TO.N,/Amplifier/AMP_OUT_FLT-*%
%TO.C,C414*%
X108680000Y-120250000D03*
D13*
%TO.N,/Amplifier/AMP_OUT-*%
X108680000Y-116750000D03*
%TD*%
D14*
%TO.N,/Input Gating/+48V_PH*%
%TO.C,SW400*%
X174802509Y-127548923D03*
%TO.N,/Phantom Power Management/+48V_PH_SW*%
X177291709Y-127548923D03*
%TO.N,Net-(SW400B-A)*%
X179780909Y-127548923D03*
%TO.N,/Phantom Power Management/+48V_PH_SW_R*%
X174802509Y-130038123D03*
%TO.N,/Phantom Power Management/+48V_PH_R*%
X177291709Y-130038123D03*
%TO.N,unconnected-(SW400A-A-Pad1)*%
X179780909Y-130038123D03*
%TD*%
D12*
%TO.N,/Hardware & IO Connectors/XLR In+*%
%TO.C,C407*%
X100500000Y-85000000D03*
%TO.N,/Input Gating/In+_R*%
X105500000Y-85000000D03*
%TD*%
D15*
%TO.N,Earth*%
%TO.C,MH402*%
X99680000Y-131200000D03*
%TD*%
%TO.N,Earth*%
%TO.C,MH400*%
X99680000Y-69200000D03*
%TD*%
D16*
%TO.N,/Phantom Power Management/PH_LED_GR_R*%
%TO.C,D404*%
X202800000Y-128860000D03*
%TO.N,/Phantom Power Management/GND_R*%
X205340000Y-128860000D03*
D17*
%TO.N,/Phantom Power Management/PH_LED_RED_R*%
X207880000Y-128860000D03*
%TD*%
D18*
%TO.N,/Amplifier/RG2_R*%
%TO.C,SW403*%
X202605418Y-102909437D03*
%TO.N,Net-(R421-Pad1)*%
X210603878Y-97308737D03*
%TO.N,Net-(R420-Pad1)*%
X207731138Y-92332877D03*
%TO.N,Net-(R419-Pad1)*%
X202755278Y-89460137D03*
%TO.N,Net-(R418-Pad1)*%
X197004718Y-89460137D03*
%TO.N,Net-(R417-Pad1)*%
X192028858Y-92332877D03*
%TO.N,Net-(R416-Pad1)*%
X189156118Y-97308737D03*
%TO.N,Net-(R415-Pad1)*%
X189156118Y-103059297D03*
%TO.N,Net-(R414-Pad1)*%
X192028858Y-108035157D03*
%TO.N,Net-(R413-Pad1)*%
X197004718Y-110907897D03*
%TO.N,Net-(R412-Pad1)*%
X202755278Y-110907897D03*
%TO.N,Net-(R411-Pad1)*%
X207731138Y-108035157D03*
%TO.N,Net-(R411-Pad2)*%
X210603878Y-103059297D03*
%TD*%
D10*
%TO.N,GND*%
%TO.C,C402*%
X153252323Y-86500000D03*
D11*
%TO.N,/Phantom Power Management/+48V_PH_G*%
X148252323Y-86500000D03*
%TD*%
D12*
%TO.N,/Hardware & IO Connectors/XLR In-*%
%TO.C,C408*%
X100500000Y-97400000D03*
%TO.N,/Input Gating/In-_R*%
X105500000Y-97400000D03*
%TD*%
%TO.N,/Amplifier/AMP_OUT_FLT+*%
%TO.C,C413*%
X117680000Y-120097349D03*
D13*
%TO.N,/Amplifier/AMP_OUT+*%
X117680000Y-116597349D03*
%TD*%
D12*
%TO.N,/Amplifier/Line Out+*%
%TO.C,C416*%
X97460000Y-109830000D03*
%TO.N,GND*%
X102460000Y-109830000D03*
%TD*%
D19*
%TO.N,Earth*%
%TO.C,J409*%
X77435000Y-75770000D03*
D20*
X81635000Y-75770000D03*
D19*
X77435000Y-67130000D03*
D20*
X81635000Y-67130000D03*
%TD*%
D14*
%TO.N,unconnected-(SW404A-A-Pad1)*%
%TO.C,SW404*%
X179768785Y-72839200D03*
%TO.N,GND1*%
X177279585Y-72839200D03*
%TO.N,/Hardware & IO Connectors/USB_CC_SW*%
X174790385Y-72839200D03*
%TO.N,/Hardware & IO Connectors/USB_PWR*%
X179768785Y-70350000D03*
%TO.N,/Hardware & IO Connectors/USB_SW*%
X177279585Y-70350000D03*
%TO.N,GND1*%
X174790385Y-70350000D03*
%TD*%
D15*
%TO.N,Earth*%
%TO.C,MH401*%
X164680000Y-69200000D03*
%TD*%
D21*
%TO.N,Earth*%
%TO.C,J406*%
X81960000Y-128140000D03*
%TO.N,/Amplifier/Line Out-*%
X92130000Y-119890000D03*
D22*
%TO.N,/Amplifier/Line Out+*%
X88315000Y-116080000D03*
%TO.N,GND*%
X87680000Y-123700000D03*
%TD*%
D15*
%TO.N,Earth*%
%TO.C,MH403*%
X164680000Y-131200000D03*
%TD*%
D12*
%TO.N,/Amplifier/Line Out-*%
%TO.C,C415*%
X97485000Y-122430000D03*
%TO.N,GND*%
X102485000Y-122430000D03*
%TD*%
D23*
%TO.N,GND1*%
%TO.C,U401*%
X114481101Y-79512999D03*
X113481101Y-79512999D03*
X112481101Y-79512999D03*
X114481101Y-80512999D03*
X113481101Y-80512999D03*
X112481101Y-80512999D03*
%TD*%
D21*
%TO.N,Earth*%
%TO.C,J407*%
X81960000Y-101600000D03*
%TO.N,/Hardware & IO Connectors/XLR In-*%
X92130000Y-93350000D03*
D22*
%TO.N,/Hardware & IO Connectors/XLR In+*%
X88315000Y-89540000D03*
%TO.N,GND*%
X87680000Y-97160000D03*
%TD*%
D11*
%TO.N,/Amplifier/+35V_AMP*%
%TO.C,C404*%
X132000000Y-100210000D03*
D10*
%TO.N,GND*%
X137000000Y-100210000D03*
%TD*%
D12*
%TO.N,GND*%
%TO.C,C417*%
X106832651Y-109160000D03*
D13*
%TO.N,/Amplifier/AMP_OUT-*%
X110332651Y-109160000D03*
%TD*%
D24*
%TO.N,/Amplifier/RG2*%
%TO.C,J405*%
X175477804Y-84101463D03*
D25*
X175477804Y-86641463D03*
%TO.N,/Amplifier/RG1*%
X175477804Y-89181463D03*
X175477804Y-91721463D03*
%TD*%
%TO.N,/Amplifier/RG1*%
%TO.C,J403*%
X166680000Y-91720000D03*
X166680000Y-89180000D03*
%TO.N,/Amplifier/RG2*%
X166680000Y-86640000D03*
D24*
X166680000Y-84100000D03*
%TD*%
%TO.N,/Phantom Power Management/PH_LED_GR*%
%TO.C,J401*%
X175380000Y-108700000D03*
D25*
%TO.N,GND*%
X175380000Y-111240000D03*
X175380000Y-113780000D03*
%TO.N,/Phantom Power Management/PH_LED_RED*%
X175380000Y-116320000D03*
%TD*%
D24*
%TO.N,/Phantom Power Management/PH_LED_GR*%
%TO.C,J400*%
X166680000Y-108700000D03*
D25*
%TO.N,GND*%
X166680000Y-111240000D03*
X166680000Y-113780000D03*
%TO.N,/Phantom Power Management/PH_LED_RED*%
X166680000Y-116320000D03*
%TD*%
%TO.N,/Amplifier/RG2_R*%
%TO.C,J404*%
X183280000Y-108680000D03*
X183280000Y-111220000D03*
%TO.N,/Amplifier/RG1_R*%
X183280000Y-113760000D03*
D24*
X183280000Y-116300000D03*
%TD*%
D25*
%TO.N,/Phantom Power Management/PH_LED_RED_R*%
%TO.C,J402*%
X183278435Y-84220112D03*
%TO.N,/Phantom Power Management/GND_R*%
X183278435Y-86760112D03*
X183278435Y-89300112D03*
D24*
%TO.N,/Phantom Power Management/PH_LED_GR_R*%
X183278435Y-91840112D03*
%TD*%
D26*
%TO.N,/48V Regulator/+48V_SW*%
X119680000Y-75268000D03*
X118680000Y-75268000D03*
X119680000Y-74268000D03*
X118680000Y-74268000D03*
X117680000Y-71268000D03*
X117680000Y-72268000D03*
X117680000Y-73268000D03*
X117680000Y-74268000D03*
X117680000Y-75268000D03*
X116680000Y-75268000D03*
X116680000Y-74268000D03*
X116680000Y-73268000D03*
X116680000Y-72268000D03*
X116680000Y-71268000D03*
X119680000Y-70268000D03*
X118680000Y-70268000D03*
X117680000Y-70268000D03*
X116680000Y-70268000D03*
X116680000Y-69268000D03*
X117680000Y-69268000D03*
X118680000Y-69268000D03*
X119680000Y-69268000D03*
X120680000Y-69268000D03*
X120680000Y-70268000D03*
X121680000Y-70268000D03*
X121680000Y-71268000D03*
X120680000Y-71268000D03*
X122680000Y-71268000D03*
X119430000Y-71718000D03*
X119430000Y-72918000D03*
X118230000Y-72318000D03*
X118830000Y-72318000D03*
X118230000Y-71718000D03*
X118230000Y-72918000D03*
X118830000Y-71718000D03*
X118830000Y-72918000D03*
X118230000Y-73518000D03*
X118830000Y-73518000D03*
X119430000Y-72318000D03*
X119430000Y-73518000D03*
X122180000Y-71968000D03*
X122180000Y-73168000D03*
X120980000Y-72568000D03*
X121580000Y-72568000D03*
X120980000Y-71968000D03*
X120980000Y-73168000D03*
X121580000Y-71968000D03*
X121580000Y-73168000D03*
X120980000Y-73768000D03*
X121580000Y-73768000D03*
X122180000Y-72568000D03*
X122180000Y-73768000D03*
%TO.N,+48V*%
X122180000Y-75968000D03*
X122180000Y-77168000D03*
X120980000Y-76568000D03*
X121580000Y-76568000D03*
X120980000Y-75968000D03*
X120980000Y-77168000D03*
X121580000Y-75968000D03*
X121580000Y-77168000D03*
X120980000Y-77768000D03*
X121580000Y-77768000D03*
X122180000Y-76568000D03*
X122180000Y-77768000D03*
%TO.N,GND1*%
X109880000Y-75950000D03*
X110870000Y-75270000D03*
X109860000Y-75274274D03*
%TO.N,+5V_USB*%
X110500000Y-71500000D03*
X109500000Y-71500000D03*
X111500000Y-71500000D03*
X111000000Y-72200000D03*
X110000000Y-72200000D03*
%TO.N,GND1*%
X112200000Y-94950000D03*
%TO.N,/Hardware & IO Connectors/USB_CC_R*%
X111400000Y-87800000D03*
%TO.N,GND1*%
X119150000Y-82800000D03*
X115680000Y-74268000D03*
%TO.N,/48V Regulator/+48V_SNS*%
X115100000Y-77950000D03*
%TO.N,/48V Regulator/+48V_G_R*%
X117368500Y-82206500D03*
D27*
%TO.N,*%
X193880000Y-76984000D03*
X192580000Y-123384000D03*
X189980000Y-123384000D03*
X191280000Y-123384000D03*
X191280000Y-124584000D03*
X193880000Y-75784000D03*
X192580000Y-75784000D03*
X189980000Y-124584000D03*
X192580000Y-124584000D03*
X192580000Y-76984000D03*
X193880000Y-124584000D03*
X189980000Y-76984000D03*
X189980000Y-75784000D03*
X191280000Y-75784000D03*
X191280000Y-76984000D03*
X193880000Y-123384000D03*
D26*
%TO.N,GND*%
X107550000Y-101700000D03*
X145988293Y-130250051D03*
X147145636Y-69603099D03*
X143841974Y-70318078D03*
X112614167Y-106867295D03*
X143167826Y-130674749D03*
X127871604Y-72680000D03*
X127528775Y-76636408D03*
X147119117Y-130255168D03*
X128250251Y-73319606D03*
X145988293Y-131017578D03*
X143817666Y-131032929D03*
X101092314Y-90894703D03*
X103870624Y-106316043D03*
X142501359Y-69591485D03*
X117564006Y-88801930D03*
X128296302Y-75500467D03*
X153130000Y-93240000D03*
X143176783Y-69959899D03*
X146014812Y-70365509D03*
X126895000Y-95275000D03*
X124200000Y-97275000D03*
X142491126Y-70302727D03*
X144858404Y-69618449D03*
X133687274Y-93073473D03*
X127513424Y-71989226D03*
X128240017Y-71989226D03*
X128291185Y-76631291D03*
X127539008Y-74338942D03*
X116350000Y-104550000D03*
X127513424Y-73329840D03*
X142477052Y-130306336D03*
X144826768Y-131007345D03*
X127528775Y-75500467D03*
X143807432Y-130296102D03*
X103800000Y-125800000D03*
X142477052Y-131032929D03*
X144831885Y-130270518D03*
X144853287Y-70355276D03*
X128275835Y-74344059D03*
X147150753Y-70365509D03*
X118379836Y-100645918D03*
X147124234Y-131017578D03*
X143831740Y-69591485D03*
X129886646Y-90401865D03*
X146014812Y-69597982D03*
%TO.N,+48V*%
X122600000Y-78800000D03*
X120000000Y-86500000D03*
X122200000Y-83200000D03*
X120972754Y-81519274D03*
X121400000Y-82200000D03*
X121000000Y-79500000D03*
X122200000Y-80800000D03*
X120000000Y-80500000D03*
X121795326Y-86272964D03*
X120972754Y-82744274D03*
X122600000Y-79800000D03*
X121790209Y-81519411D03*
X121400000Y-87000000D03*
X121000000Y-78500000D03*
X120000000Y-79500000D03*
X120000000Y-81500000D03*
X120000000Y-82500000D03*
X121000000Y-86500000D03*
X120972754Y-83894274D03*
X121400000Y-83200000D03*
X120000000Y-78500000D03*
X122200000Y-87000000D03*
X122200000Y-85600000D03*
X122307010Y-79308932D03*
X122000000Y-78800000D03*
X121779975Y-83939681D03*
X122000000Y-79800000D03*
X121000000Y-80500000D03*
X120000000Y-83500000D03*
X120000000Y-84500000D03*
X120000000Y-85500000D03*
X121400000Y-84600000D03*
X122200000Y-84600000D03*
X121000000Y-85500000D03*
X122200000Y-82200000D03*
%TO.N,/Phantom Power Management/+35V_AMP_G*%
X141690000Y-89160000D03*
X142542500Y-93250000D03*
%TO.N,/Phantom Power Management/+48V_PH_SW*%
X145517500Y-79382500D03*
X114850000Y-88100000D03*
%TO.N,+5V_USB*%
X109800000Y-73000000D03*
X90562371Y-71849283D03*
X112500000Y-69500000D03*
X90943271Y-72569298D03*
X109800000Y-73600000D03*
X90255000Y-72545000D03*
X112475060Y-72394076D03*
X112500000Y-70500000D03*
X113000000Y-72000000D03*
X110500000Y-69500000D03*
X112000000Y-73600000D03*
X113000000Y-76500000D03*
X110500000Y-70500000D03*
X112000000Y-74500000D03*
X112000000Y-72000000D03*
X112493695Y-73186075D03*
X109500000Y-69500000D03*
X111500000Y-69500000D03*
X111500000Y-70500000D03*
X113000000Y-72800000D03*
X109860000Y-74314274D03*
X91250000Y-73250000D03*
X110883460Y-74315084D03*
X91388534Y-71836860D03*
X91647250Y-72569677D03*
X110800000Y-73000000D03*
X113000000Y-74500000D03*
X112000000Y-76500000D03*
X112500000Y-71500000D03*
X113000000Y-73600000D03*
X110800000Y-73600000D03*
X112000000Y-72800000D03*
X109500000Y-70500000D03*
X112000000Y-75500000D03*
X113000000Y-75500000D03*
X90500000Y-73250000D03*
%TO.N,/48V Regulator/+48V_VCC*%
X110697754Y-79284274D03*
%TO.N,/48V Regulator/+48V_ITH*%
X111856101Y-82162999D03*
%TO.N,/Input Gating/+48V_PH*%
X96400000Y-84737500D03*
X113900000Y-97870000D03*
X96400000Y-97262500D03*
X171750000Y-122600000D03*
%TO.N,/Amplifier/+35V_AMP*%
X119289688Y-99600000D03*
X120930000Y-104400000D03*
%TO.N,/Amplifier/RG2*%
X129400000Y-102800000D03*
X138200000Y-94450000D03*
X124295000Y-106725000D03*
%TO.N,/Hardware & IO Connectors/USB_CC1*%
X81250000Y-70200000D03*
%TO.N,/Hardware & IO Connectors/USB_CC2*%
X81250000Y-73200000D03*
%TO.N,/48V Regulator/+48V_SS*%
X113800000Y-83300000D03*
%TO.N,GND1*%
X94098993Y-76116576D03*
X124365067Y-82203985D03*
X126500000Y-85000000D03*
X83250000Y-68250000D03*
X98741058Y-75338815D03*
X125323413Y-71999459D03*
X109500000Y-76500000D03*
X124365067Y-86967772D03*
X111000000Y-76500000D03*
X126500000Y-87000000D03*
X125127478Y-86962655D03*
X94098993Y-75389983D03*
X125323413Y-73329840D03*
X126500000Y-82000000D03*
X124292348Y-79303815D03*
X128500000Y-87000000D03*
X110250000Y-76500000D03*
X124954999Y-72674883D03*
X124769298Y-81513211D03*
X127500000Y-83000000D03*
X124576353Y-76626174D03*
X124753948Y-83902779D03*
X98746175Y-76101225D03*
X124375301Y-84588437D03*
X112200000Y-84600000D03*
X95429373Y-75379749D03*
X124596820Y-73340074D03*
X125132595Y-83206888D03*
X95439607Y-76116576D03*
X128500000Y-83000000D03*
X128500000Y-84000000D03*
X96448709Y-76090992D03*
X128500000Y-85000000D03*
X96453826Y-75354165D03*
X126500000Y-81000000D03*
X124375301Y-83196654D03*
X126500000Y-86000000D03*
X128500000Y-86000000D03*
X124000000Y-78800000D03*
X95695000Y-68195000D03*
X124370184Y-80822436D03*
X114103965Y-81096283D03*
X124000000Y-79800000D03*
X124738597Y-86282114D03*
X125323413Y-74333825D03*
X125122361Y-84588437D03*
X97610234Y-76101225D03*
X124612171Y-71989226D03*
X127500000Y-86000000D03*
X124576353Y-75490233D03*
X115600000Y-84200000D03*
X94789767Y-75758396D03*
X83248892Y-74631436D03*
X97610234Y-75333698D03*
X125425000Y-79000000D03*
X124370184Y-85570872D03*
X127500000Y-81000000D03*
X125343880Y-75490233D03*
X124586586Y-74328708D03*
X89400000Y-67600000D03*
X125500000Y-80000000D03*
X127500000Y-84000000D03*
X126500000Y-84000000D03*
X126500000Y-83000000D03*
X124600000Y-79800000D03*
X127500000Y-85000000D03*
X125122361Y-85565755D03*
X115100000Y-83050000D03*
X127500000Y-82000000D03*
X111400000Y-84600000D03*
X124600000Y-78800000D03*
X125338763Y-76621057D03*
X127500000Y-87000000D03*
X125132595Y-80827553D03*
X125127478Y-82214219D03*
X110682402Y-80972978D03*
%TO.N,Earth*%
X147114000Y-133970000D03*
X94784650Y-78675001D03*
X97600000Y-79053647D03*
X75973338Y-113319234D03*
X143821506Y-66664647D03*
X146025046Y-67413087D03*
X98730824Y-78291237D03*
X96443592Y-78306587D03*
X96438475Y-79043414D03*
X95449841Y-79033180D03*
X98735941Y-79053647D03*
X142491126Y-66674881D03*
X146025046Y-66645560D03*
X94109226Y-78306587D03*
X147155870Y-66650677D03*
X143162709Y-133591354D03*
X143827900Y-133949533D03*
X95439607Y-78306587D03*
X147108883Y-133207590D03*
X145978059Y-133970000D03*
X143181900Y-67043294D03*
X144863521Y-67402854D03*
X94098993Y-79017829D03*
X144868638Y-66666027D03*
X142487285Y-133222940D03*
X144821651Y-133222940D03*
X142491126Y-67401474D03*
X142477052Y-133934182D03*
X145978059Y-133202473D03*
X144816534Y-133959767D03*
X97600000Y-78286120D03*
X147160987Y-67413087D03*
X143817666Y-133222940D03*
X143831740Y-67401474D03*
%TD*%
%TA.AperFunction,Conductor*%
%TO.N,+48V*%
G36*
X123254302Y-74912726D02*
G01*
X123272754Y-74957274D01*
X123272754Y-87381274D01*
X123254302Y-87425822D01*
X123209754Y-87444274D01*
X119460754Y-87444274D01*
X119416206Y-87425822D01*
X119397754Y-87381274D01*
X119397754Y-83317328D01*
X119416206Y-83272780D01*
X119422394Y-83267353D01*
X119532707Y-83182707D01*
X119618719Y-83070615D01*
X119648875Y-82997810D01*
X119672787Y-82940085D01*
X119672787Y-82940083D01*
X119672788Y-82940081D01*
X119691230Y-82800000D01*
X119672788Y-82659919D01*
X119672787Y-82659916D01*
X119672787Y-82659914D01*
X119618719Y-82529386D01*
X119618718Y-82529384D01*
X119532709Y-82417296D01*
X119532707Y-82417293D01*
X119463657Y-82364308D01*
X119422401Y-82332651D01*
X119398293Y-82290892D01*
X119397754Y-82282670D01*
X119397754Y-76270369D01*
X119416205Y-76225822D01*
X119864416Y-75777611D01*
X119884844Y-75763962D01*
X119950615Y-75736719D01*
X120062707Y-75650707D01*
X120148719Y-75538615D01*
X120175962Y-75472844D01*
X120189611Y-75452416D01*
X120729302Y-74912726D01*
X120773850Y-74894274D01*
X123209754Y-74894274D01*
X123254302Y-74912726D01*
G37*
%TD.AperFunction*%
%TD*%
%TA.AperFunction,Conductor*%
%TO.N,+5V_USB*%
G36*
X113674343Y-63516807D02*
G01*
X113692649Y-63560452D01*
X113799827Y-75709908D01*
X113789012Y-75745604D01*
X112818592Y-77172658D01*
X112778603Y-77198909D01*
X112766934Y-77200013D01*
X75253439Y-77214976D01*
X75209237Y-77196688D01*
X75190914Y-77152502D01*
X75191636Y-75844312D01*
X76280500Y-75844312D01*
X76309494Y-75990078D01*
X76366371Y-76127390D01*
X76366372Y-76127393D01*
X76448940Y-76250965D01*
X76554034Y-76356059D01*
X76677606Y-76438627D01*
X76677608Y-76438627D01*
X76677610Y-76438629D01*
X76814920Y-76495505D01*
X76960688Y-76524500D01*
X77909312Y-76524500D01*
X78055080Y-76495505D01*
X78192390Y-76438629D01*
X78315966Y-76356059D01*
X78421059Y-76250966D01*
X78503629Y-76127390D01*
X78560505Y-75990080D01*
X78589500Y-75844312D01*
X80330500Y-75844312D01*
X80359494Y-75990078D01*
X80416371Y-76127390D01*
X80416372Y-76127393D01*
X80498940Y-76250965D01*
X80604034Y-76356059D01*
X80727606Y-76438627D01*
X80727608Y-76438627D01*
X80727610Y-76438629D01*
X80864920Y-76495505D01*
X81010688Y-76524500D01*
X82259312Y-76524500D01*
X82405080Y-76495505D01*
X82542390Y-76438629D01*
X82665966Y-76356059D01*
X82771059Y-76250966D01*
X82853629Y-76127390D01*
X82858108Y-76116577D01*
X93557763Y-76116577D01*
X93576203Y-76256650D01*
X93576206Y-76256660D01*
X93623914Y-76371838D01*
X93630274Y-76387191D01*
X93716286Y-76499283D01*
X93828378Y-76585295D01*
X93958912Y-76639364D01*
X93958916Y-76639364D01*
X93958918Y-76639365D01*
X94098991Y-76657806D01*
X94098993Y-76657806D01*
X94098995Y-76657806D01*
X94239067Y-76639365D01*
X94239067Y-76639364D01*
X94239074Y-76639364D01*
X94369608Y-76585295D01*
X94481700Y-76499283D01*
X94567712Y-76387191D01*
X94595236Y-76320739D01*
X94629061Y-76286915D01*
X94661137Y-76282692D01*
X94789765Y-76299626D01*
X94789767Y-76299626D01*
X94789768Y-76299626D01*
X94799657Y-76298323D01*
X94879579Y-76287801D01*
X94925783Y-76300181D01*
X94945478Y-76325848D01*
X94970885Y-76387186D01*
X94970886Y-76387187D01*
X94970888Y-76387191D01*
X95056900Y-76499283D01*
X95168992Y-76585295D01*
X95299526Y-76639364D01*
X95299530Y-76639364D01*
X95299532Y-76639365D01*
X95439605Y-76657806D01*
X95439607Y-76657806D01*
X95439609Y-76657806D01*
X95579681Y-76639365D01*
X95579681Y-76639364D01*
X95579688Y-76639364D01*
X95710222Y-76585295D01*
X95822314Y-76499283D01*
X95904389Y-76392321D01*
X95945815Y-76368404D01*
X95992020Y-76380784D01*
X96003557Y-76392321D01*
X96065999Y-76473696D01*
X96066000Y-76473697D01*
X96066002Y-76473699D01*
X96178094Y-76559711D01*
X96308628Y-76613780D01*
X96308632Y-76613780D01*
X96308634Y-76613781D01*
X96448707Y-76632222D01*
X96448709Y-76632222D01*
X96448711Y-76632222D01*
X96588783Y-76613781D01*
X96588783Y-76613780D01*
X96588790Y-76613780D01*
X96719324Y-76559711D01*
X96831416Y-76473699D01*
X96917428Y-76361607D01*
X96969778Y-76235221D01*
X97003602Y-76201399D01*
X97051438Y-76201398D01*
X97085262Y-76235223D01*
X97086790Y-76239723D01*
X97140091Y-76368404D01*
X97141515Y-76371840D01*
X97227527Y-76483932D01*
X97339619Y-76569944D01*
X97470153Y-76624013D01*
X97470157Y-76624013D01*
X97470159Y-76624014D01*
X97610232Y-76642455D01*
X97610234Y-76642455D01*
X97610236Y-76642455D01*
X97750308Y-76624014D01*
X97750308Y-76624013D01*
X97750315Y-76624013D01*
X97880849Y-76569944D01*
X97992941Y-76483932D01*
X98078953Y-76371840D01*
X98120463Y-76271625D01*
X98154286Y-76237803D01*
X98202121Y-76237802D01*
X98235946Y-76271627D01*
X98277454Y-76371836D01*
X98277456Y-76371840D01*
X98363468Y-76483932D01*
X98475560Y-76569944D01*
X98606094Y-76624013D01*
X98606098Y-76624013D01*
X98606100Y-76624014D01*
X98746173Y-76642455D01*
X98746175Y-76642455D01*
X98746177Y-76642455D01*
X98886249Y-76624014D01*
X98886249Y-76624013D01*
X98886256Y-76624013D01*
X99016790Y-76569944D01*
X99107941Y-76500001D01*
X108958770Y-76500001D01*
X108977210Y-76640074D01*
X108977211Y-76640080D01*
X108977212Y-76640081D01*
X109031281Y-76770615D01*
X109117293Y-76882707D01*
X109229385Y-76968719D01*
X109359919Y-77022788D01*
X109359923Y-77022788D01*
X109359925Y-77022789D01*
X109499998Y-77041230D01*
X109500000Y-77041230D01*
X109500002Y-77041230D01*
X109640074Y-77022789D01*
X109640074Y-77022788D01*
X109640081Y-77022788D01*
X109770615Y-76968719D01*
X109836953Y-76917814D01*
X109883157Y-76905434D01*
X109913045Y-76917814D01*
X109979385Y-76968719D01*
X110109919Y-77022788D01*
X110109923Y-77022788D01*
X110109925Y-77022789D01*
X110249998Y-77041230D01*
X110250000Y-77041230D01*
X110250002Y-77041230D01*
X110390074Y-77022789D01*
X110390074Y-77022788D01*
X110390081Y-77022788D01*
X110520615Y-76968719D01*
X110586953Y-76917814D01*
X110633157Y-76905434D01*
X110663045Y-76917814D01*
X110729385Y-76968719D01*
X110859919Y-77022788D01*
X110859923Y-77022788D01*
X110859925Y-77022789D01*
X110999998Y-77041230D01*
X111000000Y-77041230D01*
X111000002Y-77041230D01*
X111140074Y-77022789D01*
X111140074Y-77022788D01*
X111140081Y-77022788D01*
X111270615Y-76968719D01*
X111382707Y-76882707D01*
X111468719Y-76770615D01*
X111522788Y-76640081D01*
X111524904Y-76624011D01*
X111541230Y-76500001D01*
X111541230Y-76499998D01*
X111522789Y-76359925D01*
X111522788Y-76359923D01*
X111522788Y-76359919D01*
X111468719Y-76229385D01*
X111382707Y-76117293D01*
X111270615Y-76031281D01*
X111270611Y-76031279D01*
X111140084Y-75977213D01*
X111140074Y-75977210D01*
X111000002Y-75958770D01*
X110999998Y-75958770D01*
X110859925Y-75977210D01*
X110859915Y-75977213D01*
X110729388Y-76031279D01*
X110729385Y-76031280D01*
X110729385Y-76031281D01*
X110663047Y-76082184D01*
X110616842Y-76094564D01*
X110586953Y-76082184D01*
X110520615Y-76031281D01*
X110520612Y-76031280D01*
X110520610Y-76031278D01*
X110459812Y-76006094D01*
X110425987Y-75972269D01*
X110422350Y-75953984D01*
X110421765Y-75954062D01*
X110402789Y-75809925D01*
X110402788Y-75809923D01*
X110402788Y-75809919D01*
X110348719Y-75679385D01*
X110328248Y-75652707D01*
X110316312Y-75637151D01*
X110303932Y-75590946D01*
X110316291Y-75561083D01*
X110317038Y-75560111D01*
X110358450Y-75536175D01*
X110404662Y-75548532D01*
X110416220Y-75560084D01*
X110487293Y-75652707D01*
X110599385Y-75738719D01*
X110729919Y-75792788D01*
X110729923Y-75792788D01*
X110729925Y-75792789D01*
X110869998Y-75811230D01*
X110870000Y-75811230D01*
X110870002Y-75811230D01*
X111010074Y-75792789D01*
X111010074Y-75792788D01*
X111010081Y-75792788D01*
X111140615Y-75738719D01*
X111252707Y-75652707D01*
X111338719Y-75540615D01*
X111392788Y-75410081D01*
X111395434Y-75389981D01*
X111411230Y-75270001D01*
X111411230Y-75269998D01*
X111392789Y-75129925D01*
X111392788Y-75129923D01*
X111392788Y-75129919D01*
X111338719Y-74999385D01*
X111252707Y-74887293D01*
X111140615Y-74801281D01*
X111140611Y-74801279D01*
X111010084Y-74747213D01*
X111010074Y-74747210D01*
X110870002Y-74728770D01*
X110869998Y-74728770D01*
X110729925Y-74747210D01*
X110729915Y-74747213D01*
X110599388Y-74801279D01*
X110599385Y-74801280D01*
X110599385Y-74801281D01*
X110560162Y-74831378D01*
X110487290Y-74887295D01*
X110412944Y-74984184D01*
X110371517Y-75008101D01*
X110325312Y-74995720D01*
X110313776Y-74984184D01*
X110242709Y-74891569D01*
X110242707Y-74891568D01*
X110242707Y-74891567D01*
X110130615Y-74805555D01*
X110130611Y-74805553D01*
X110000084Y-74751487D01*
X110000074Y-74751484D01*
X109860002Y-74733044D01*
X109859998Y-74733044D01*
X109719925Y-74751484D01*
X109719915Y-74751487D01*
X109589388Y-74805553D01*
X109589385Y-74805554D01*
X109589385Y-74805555D01*
X109477293Y-74891567D01*
X109394559Y-74999388D01*
X109391279Y-75003662D01*
X109337213Y-75134189D01*
X109337210Y-75134199D01*
X109318770Y-75274272D01*
X109318770Y-75274275D01*
X109337210Y-75414348D01*
X109337213Y-75414358D01*
X109391279Y-75544886D01*
X109391281Y-75544889D01*
X109423687Y-75587122D01*
X109436067Y-75633327D01*
X109423689Y-75663214D01*
X109411279Y-75679388D01*
X109357213Y-75809915D01*
X109357210Y-75809926D01*
X109338470Y-75952271D01*
X109314552Y-75993698D01*
X109300423Y-76001855D01*
X109229389Y-76031278D01*
X109229385Y-76031280D01*
X109229385Y-76031281D01*
X109117293Y-76117293D01*
X109052757Y-76201398D01*
X109031279Y-76229388D01*
X108977213Y-76359915D01*
X108977210Y-76359925D01*
X108958770Y-76499998D01*
X108958770Y-76500001D01*
X99107941Y-76500001D01*
X99128882Y-76483932D01*
X99214894Y-76371840D01*
X99268963Y-76241306D01*
X99270532Y-76229388D01*
X99287405Y-76101226D01*
X99287405Y-76101223D01*
X99268964Y-75961150D01*
X99268963Y-75961148D01*
X99268963Y-75961144D01*
X99232917Y-75874121D01*
X99214895Y-75830612D01*
X99214893Y-75830608D01*
X99156671Y-75754733D01*
X99144290Y-75708527D01*
X99156670Y-75678638D01*
X99209777Y-75609430D01*
X99263846Y-75478896D01*
X99272907Y-75410074D01*
X99282288Y-75338816D01*
X99282288Y-75338813D01*
X99263847Y-75198740D01*
X99263846Y-75198738D01*
X99263846Y-75198734D01*
X99209777Y-75068200D01*
X99123765Y-74956108D01*
X99011673Y-74870096D01*
X99011669Y-74870094D01*
X98881142Y-74816028D01*
X98881132Y-74816025D01*
X98741060Y-74797585D01*
X98741056Y-74797585D01*
X98600983Y-74816025D01*
X98600973Y-74816028D01*
X98470446Y-74870094D01*
X98470443Y-74870095D01*
X98470443Y-74870096D01*
X98358351Y-74956108D01*
X98276266Y-75063083D01*
X98272337Y-75068203D01*
X98234447Y-75159676D01*
X98200622Y-75193501D01*
X98152787Y-75193500D01*
X98118963Y-75159676D01*
X98078953Y-75063083D01*
X97992941Y-74950991D01*
X97880849Y-74864979D01*
X97880845Y-74864977D01*
X97750318Y-74810911D01*
X97750308Y-74810908D01*
X97610236Y-74792468D01*
X97610232Y-74792468D01*
X97470159Y-74810908D01*
X97470149Y-74810911D01*
X97339622Y-74864977D01*
X97339619Y-74864978D01*
X97339619Y-74864979D01*
X97279605Y-74911030D01*
X97227527Y-74950991D01*
X97141513Y-75063086D01*
X97085878Y-75197402D01*
X97083752Y-75196521D01*
X97059096Y-75228631D01*
X97011668Y-75234859D01*
X96973728Y-75205725D01*
X96970123Y-75198412D01*
X96923891Y-75086800D01*
X96922545Y-75083550D01*
X96836533Y-74971458D01*
X96724441Y-74885446D01*
X96724437Y-74885444D01*
X96593910Y-74831378D01*
X96593900Y-74831375D01*
X96453828Y-74812935D01*
X96453824Y-74812935D01*
X96313751Y-74831375D01*
X96313741Y-74831378D01*
X96183214Y-74885444D01*
X96183211Y-74885445D01*
X96183211Y-74885446D01*
X96071119Y-74971458D01*
X95985107Y-75083550D01*
X95985106Y-75083552D01*
X95982614Y-75086800D01*
X95981134Y-75085664D01*
X95948103Y-75110982D01*
X95900680Y-75104713D01*
X95882376Y-75088652D01*
X95812080Y-74997042D01*
X95699988Y-74911030D01*
X95699984Y-74911028D01*
X95569457Y-74856962D01*
X95569447Y-74856959D01*
X95429375Y-74838519D01*
X95429371Y-74838519D01*
X95289298Y-74856959D01*
X95289288Y-74856962D01*
X95158761Y-74911028D01*
X95158758Y-74911029D01*
X95158758Y-74911030D01*
X95046666Y-74997042D01*
X94980286Y-75083550D01*
X94960651Y-75109138D01*
X94927734Y-75188606D01*
X94893909Y-75222431D01*
X94861835Y-75226653D01*
X94789770Y-75217166D01*
X94789763Y-75217166D01*
X94665155Y-75233570D01*
X94618950Y-75221189D01*
X94599256Y-75195523D01*
X94567712Y-75119368D01*
X94481700Y-75007276D01*
X94369608Y-74921264D01*
X94369604Y-74921262D01*
X94239077Y-74867196D01*
X94239067Y-74867193D01*
X94098995Y-74848753D01*
X94098991Y-74848753D01*
X93958918Y-74867193D01*
X93958908Y-74867196D01*
X93828381Y-74921262D01*
X93828378Y-74921263D01*
X93828378Y-74921264D01*
X93716286Y-75007276D01*
X93641520Y-75104713D01*
X93630272Y-75119371D01*
X93576206Y-75249898D01*
X93576203Y-75249908D01*
X93557763Y-75389981D01*
X93557763Y-75389984D01*
X93576203Y-75530057D01*
X93576206Y-75530067D01*
X93630272Y-75660595D01*
X93630274Y-75660598D01*
X93672196Y-75715232D01*
X93684576Y-75761437D01*
X93672196Y-75791326D01*
X93630274Y-75845960D01*
X93630272Y-75845963D01*
X93576206Y-75976491D01*
X93576203Y-75976501D01*
X93557763Y-76116574D01*
X93557763Y-76116577D01*
X82858108Y-76116577D01*
X82910505Y-75990080D01*
X82939500Y-75844312D01*
X82939500Y-75695688D01*
X82910505Y-75549920D01*
X82853629Y-75412610D01*
X82853627Y-75412608D01*
X82853627Y-75412606D01*
X82771059Y-75289034D01*
X82665965Y-75183940D01*
X82542393Y-75101372D01*
X82542390Y-75101371D01*
X82405078Y-75044494D01*
X82259312Y-75015500D01*
X81010688Y-75015500D01*
X80864921Y-75044494D01*
X80727609Y-75101371D01*
X80727606Y-75101372D01*
X80604034Y-75183940D01*
X80498940Y-75289034D01*
X80416372Y-75412606D01*
X80416371Y-75412609D01*
X80359494Y-75549921D01*
X80330500Y-75695687D01*
X80330500Y-75844312D01*
X78589500Y-75844312D01*
X78589500Y-75695688D01*
X78560505Y-75549920D01*
X78503629Y-75412610D01*
X78503627Y-75412608D01*
X78503627Y-75412606D01*
X78421059Y-75289034D01*
X78315965Y-75183940D01*
X78192393Y-75101372D01*
X78192390Y-75101371D01*
X78055078Y-75044494D01*
X77909312Y-75015500D01*
X76960688Y-75015500D01*
X76814921Y-75044494D01*
X76677609Y-75101371D01*
X76677606Y-75101372D01*
X76554034Y-75183940D01*
X76448940Y-75289034D01*
X76366372Y-75412606D01*
X76366371Y-75412609D01*
X76309494Y-75549921D01*
X76280500Y-75695687D01*
X76280500Y-75844312D01*
X75191636Y-75844312D01*
X75192436Y-74396016D01*
X80689500Y-74396016D01*
X80689501Y-74396024D01*
X80718495Y-74504233D01*
X80718496Y-74504236D01*
X80774516Y-74601264D01*
X80774519Y-74601268D01*
X80853731Y-74680480D01*
X80853735Y-74680483D01*
X80853737Y-74680485D01*
X80937369Y-74728770D01*
X80950763Y-74736503D01*
X80950766Y-74736504D01*
X81006673Y-74751484D01*
X81058982Y-74765500D01*
X81058983Y-74765500D01*
X81171017Y-74765500D01*
X81171018Y-74765500D01*
X81279237Y-74736503D01*
X81376263Y-74680485D01*
X81425311Y-74631437D01*
X82707662Y-74631437D01*
X82726102Y-74771510D01*
X82726105Y-74771520D01*
X82766936Y-74870096D01*
X82780173Y-74902051D01*
X82866185Y-75014143D01*
X82978277Y-75100155D01*
X83108811Y-75154224D01*
X83108815Y-75154224D01*
X83108817Y-75154225D01*
X83248890Y-75172666D01*
X83248892Y-75172666D01*
X83248894Y-75172666D01*
X83388966Y-75154225D01*
X83388966Y-75154224D01*
X83388973Y-75154224D01*
X83519507Y-75100155D01*
X83631599Y-75014143D01*
X83717611Y-74902051D01*
X83771680Y-74771517D01*
X83790122Y-74631436D01*
X83786150Y-74601268D01*
X83771681Y-74491361D01*
X83771680Y-74491359D01*
X83771680Y-74491355D01*
X83717611Y-74360821D01*
X83631599Y-74248729D01*
X83519507Y-74162717D01*
X83519503Y-74162715D01*
X83388976Y-74108649D01*
X83388966Y-74108646D01*
X83248894Y-74090206D01*
X83248890Y-74090206D01*
X83108817Y-74108646D01*
X83108807Y-74108649D01*
X82978280Y-74162715D01*
X82978277Y-74162716D01*
X82978277Y-74162717D01*
X82866185Y-74248729D01*
X82839134Y-74283983D01*
X82780171Y-74360824D01*
X82726105Y-74491351D01*
X82726102Y-74491361D01*
X82707662Y-74631434D01*
X82707662Y-74631437D01*
X81425311Y-74631437D01*
X81455485Y-74601263D01*
X81511503Y-74504237D01*
X81540500Y-74396018D01*
X81540500Y-74283982D01*
X81511503Y-74175763D01*
X81455485Y-74078737D01*
X81455483Y-74078735D01*
X81455480Y-74078731D01*
X81376268Y-73999519D01*
X81376264Y-73999516D01*
X81376263Y-73999515D01*
X81327750Y-73971506D01*
X81279236Y-73943496D01*
X81279233Y-73943495D01*
X81171024Y-73914501D01*
X81171019Y-73914500D01*
X81171018Y-73914500D01*
X81058982Y-73914500D01*
X81058981Y-73914500D01*
X81058975Y-73914501D01*
X80950766Y-73943495D01*
X80950763Y-73943496D01*
X80853735Y-73999516D01*
X80853731Y-73999519D01*
X80774519Y-74078731D01*
X80774516Y-74078735D01*
X80718496Y-74175763D01*
X80718495Y-74175766D01*
X80689501Y-74283975D01*
X80689500Y-74283983D01*
X80689500Y-74396016D01*
X75192436Y-74396016D01*
X75193096Y-73200001D01*
X80708770Y-73200001D01*
X80727210Y-73340074D01*
X80727211Y-73340080D01*
X80727212Y-73340081D01*
X80781281Y-73470615D01*
X80867293Y-73582707D01*
X80979385Y-73668719D01*
X81109919Y-73722788D01*
X81109923Y-73722788D01*
X81109925Y-73722789D01*
X81249998Y-73741230D01*
X81250000Y-73741230D01*
X81250002Y-73741230D01*
X81390074Y-73722789D01*
X81390074Y-73722788D01*
X81390081Y-73722788D01*
X81520615Y-73668719D01*
X81632707Y-73582707D01*
X81718719Y-73470615D01*
X81772788Y-73340081D01*
X81791230Y-73200000D01*
X81772788Y-73059919D01*
X81718719Y-72929385D01*
X81632707Y-72817293D01*
X81520615Y-72731281D01*
X81520611Y-72731279D01*
X81390084Y-72677213D01*
X81390074Y-72677210D01*
X81250002Y-72658770D01*
X81249998Y-72658770D01*
X81109925Y-72677210D01*
X81109915Y-72677213D01*
X80979388Y-72731279D01*
X80867293Y-72817293D01*
X80781279Y-72929388D01*
X80727213Y-73059915D01*
X80727210Y-73059925D01*
X80708770Y-73199998D01*
X80708770Y-73200001D01*
X75193096Y-73200001D01*
X75194753Y-70200001D01*
X80708770Y-70200001D01*
X80727210Y-70340074D01*
X80727211Y-70340080D01*
X80727212Y-70340081D01*
X80781281Y-70470615D01*
X80867293Y-70582707D01*
X80979385Y-70668719D01*
X81109919Y-70722788D01*
X81109923Y-70722788D01*
X81109925Y-70722789D01*
X81249998Y-70741230D01*
X81250000Y-70741230D01*
X81250002Y-70741230D01*
X81390074Y-70722789D01*
X81390074Y-70722788D01*
X81390081Y-70722788D01*
X81520615Y-70668719D01*
X81632707Y-70582707D01*
X81718719Y-70470615D01*
X81772788Y-70340081D01*
X81791230Y-70200000D01*
X81772788Y-70059919D01*
X81718719Y-69929385D01*
X81632707Y-69817293D01*
X81520615Y-69731281D01*
X81520611Y-69731279D01*
X81390084Y-69677213D01*
X81390074Y-69677210D01*
X81250002Y-69658770D01*
X81249998Y-69658770D01*
X81109925Y-69677210D01*
X81109915Y-69677213D01*
X80979388Y-69731279D01*
X80867293Y-69817293D01*
X80781279Y-69929388D01*
X80727213Y-70059915D01*
X80727210Y-70059925D01*
X80708770Y-70199998D01*
X80708770Y-70200001D01*
X75194753Y-70200001D01*
X75195627Y-68616016D01*
X80689500Y-68616016D01*
X80689501Y-68616024D01*
X80718495Y-68724233D01*
X80718496Y-68724236D01*
X80718497Y-68724237D01*
X80757175Y-68791230D01*
X80774516Y-68821264D01*
X80774519Y-68821268D01*
X80853731Y-68900480D01*
X80853735Y-68900483D01*
X80853737Y-68900485D01*
X80950763Y-68956503D01*
X80950766Y-68956504D01*
X81016988Y-68974247D01*
X81058982Y-68985500D01*
X81058983Y-68985500D01*
X81171017Y-68985500D01*
X81171018Y-68985500D01*
X81279237Y-68956503D01*
X81376263Y-68900485D01*
X81455485Y-68821263D01*
X81511503Y-68724237D01*
X81540500Y-68616018D01*
X81540500Y-68503982D01*
X81511503Y-68395763D01*
X81455485Y-68298737D01*
X81455483Y-68298735D01*
X81455480Y-68298731D01*
X81406750Y-68250001D01*
X82708770Y-68250001D01*
X82727210Y-68390074D01*
X82727213Y-68390084D01*
X82774391Y-68503983D01*
X82781281Y-68520615D01*
X82867293Y-68632707D01*
X82979385Y-68718719D01*
X83109919Y-68772788D01*
X83109923Y-68772788D01*
X83109925Y-68772789D01*
X83249998Y-68791230D01*
X83250000Y-68791230D01*
X83250002Y-68791230D01*
X83390074Y-68772789D01*
X83390074Y-68772788D01*
X83390081Y-68772788D01*
X83520615Y-68718719D01*
X83632707Y-68632707D01*
X83718719Y-68520615D01*
X83772788Y-68390081D01*
X83773117Y-68387582D01*
X83791230Y-68250001D01*
X83791230Y-68249998D01*
X83783989Y-68195001D01*
X95153770Y-68195001D01*
X95172210Y-68335074D01*
X95172213Y-68335084D01*
X95222064Y-68455436D01*
X95226281Y-68465615D01*
X95312293Y-68577707D01*
X95424385Y-68663719D01*
X95554919Y-68717788D01*
X95554923Y-68717788D01*
X95554925Y-68717789D01*
X95694998Y-68736230D01*
X95695000Y-68736230D01*
X95695002Y-68736230D01*
X95835074Y-68717789D01*
X95835074Y-68717788D01*
X95835081Y-68717788D01*
X95965615Y-68663719D01*
X96077707Y-68577707D01*
X96163719Y-68465615D01*
X96182030Y-68421406D01*
X96215853Y-68387583D01*
X96263689Y-68387582D01*
X96297514Y-68421406D01*
X96301449Y-68455436D01*
X96240705Y-68825956D01*
X96240705Y-68825958D01*
X96220426Y-69199994D01*
X96220426Y-69200005D01*
X96240705Y-69574041D01*
X96240705Y-69574043D01*
X96301308Y-69943705D01*
X96401524Y-70304649D01*
X96401525Y-70304650D01*
X96540179Y-70652644D01*
X96540183Y-70652652D01*
X96662885Y-70884092D01*
X96715639Y-70983597D01*
X96925857Y-71293645D01*
X97168365Y-71579147D01*
X97440319Y-71836756D01*
X97738532Y-72063451D01*
X98059506Y-72256575D01*
X98059513Y-72256578D01*
X98059516Y-72256580D01*
X98059526Y-72256585D01*
X98399471Y-72413860D01*
X98399480Y-72413864D01*
X98399483Y-72413865D01*
X98399495Y-72413870D01*
X98754454Y-72533469D01*
X98754466Y-72533473D01*
X99120303Y-72613999D01*
X99492702Y-72654500D01*
X99492706Y-72654500D01*
X99867294Y-72654500D01*
X99867298Y-72654500D01*
X100239697Y-72613999D01*
X100605534Y-72533473D01*
X100721027Y-72494558D01*
X100960504Y-72413870D01*
X100960511Y-72413866D01*
X100960520Y-72413864D01*
X101134712Y-72333273D01*
X101300473Y-72256585D01*
X101300483Y-72256580D01*
X101300482Y-72256580D01*
X101300494Y-72256575D01*
X101621468Y-72063451D01*
X101919681Y-71836756D01*
X102191635Y-71579147D01*
X102434143Y-71293645D01*
X102644361Y-70983597D01*
X102819824Y-70652637D01*
X102958476Y-70304647D01*
X103058691Y-69943706D01*
X103119294Y-69574046D01*
X103139574Y-69200000D01*
X103119294Y-68825954D01*
X103058691Y-68456294D01*
X102958476Y-68095353D01*
X102819824Y-67747363D01*
X102815963Y-67740081D01*
X102681997Y-67487393D01*
X102644361Y-67416403D01*
X102434143Y-67106355D01*
X102191635Y-66820853D01*
X101919681Y-66563244D01*
X101621468Y-66336549D01*
X101300494Y-66143425D01*
X101300489Y-66143422D01*
X101300483Y-66143419D01*
X101300473Y-66143414D01*
X100960528Y-65986139D01*
X100960504Y-65986129D01*
X100605545Y-65866530D01*
X100605534Y-65866527D01*
X100239695Y-65786000D01*
X99867301Y-65745500D01*
X99867298Y-65745500D01*
X99492702Y-65745500D01*
X99492698Y-65745500D01*
X99120304Y-65786000D01*
X98754465Y-65866527D01*
X98754454Y-65866530D01*
X98399495Y-65986129D01*
X98399471Y-65986139D01*
X98059526Y-66143414D01*
X98059516Y-66143419D01*
X97738536Y-66336546D01*
X97440318Y-66563244D01*
X97168368Y-66820850D01*
X97168357Y-66820861D01*
X96925856Y-67106355D01*
X96715641Y-67416399D01*
X96540183Y-67747347D01*
X96540179Y-67747355D01*
X96401525Y-68095349D01*
X96401524Y-68095350D01*
X96350723Y-68278319D01*
X96321261Y-68316005D01*
X96273780Y-68321820D01*
X96236094Y-68292358D01*
X96228536Y-68253440D01*
X96236230Y-68195001D01*
X96236230Y-68194998D01*
X96217789Y-68054925D01*
X96217788Y-68054923D01*
X96217788Y-68054919D01*
X96163719Y-67924385D01*
X96077707Y-67812293D01*
X95965615Y-67726281D01*
X95965611Y-67726279D01*
X95835084Y-67672213D01*
X95835074Y-67672210D01*
X95695002Y-67653770D01*
X95694998Y-67653770D01*
X95554925Y-67672210D01*
X95554915Y-67672213D01*
X95424388Y-67726279D01*
X95424385Y-67726280D01*
X95424385Y-67726281D01*
X95406410Y-67740074D01*
X95312293Y-67812293D01*
X95226279Y-67924388D01*
X95172213Y-68054915D01*
X95172210Y-68054925D01*
X95153770Y-68194998D01*
X95153770Y-68195001D01*
X83783989Y-68195001D01*
X83772789Y-68109925D01*
X83772788Y-68109923D01*
X83772788Y-68109919D01*
X83718719Y-67979385D01*
X83632707Y-67867293D01*
X83520615Y-67781281D01*
X83520611Y-67781279D01*
X83390084Y-67727213D01*
X83390074Y-67727210D01*
X83250002Y-67708770D01*
X83249998Y-67708770D01*
X83109925Y-67727210D01*
X83109915Y-67727213D01*
X82979388Y-67781279D01*
X82979385Y-67781280D01*
X82979385Y-67781281D01*
X82867293Y-67867293D01*
X82823485Y-67924385D01*
X82781279Y-67979388D01*
X82727213Y-68109915D01*
X82727210Y-68109925D01*
X82708770Y-68249998D01*
X82708770Y-68250001D01*
X81406750Y-68250001D01*
X81376268Y-68219519D01*
X81376264Y-68219516D01*
X81376263Y-68219515D01*
X81327750Y-68191506D01*
X81279236Y-68163496D01*
X81279233Y-68163495D01*
X81171024Y-68134501D01*
X81171019Y-68134500D01*
X81171018Y-68134500D01*
X81058982Y-68134500D01*
X81058981Y-68134500D01*
X81058975Y-68134501D01*
X80950766Y-68163495D01*
X80950763Y-68163496D01*
X80853735Y-68219516D01*
X80853731Y-68219519D01*
X80774519Y-68298731D01*
X80774516Y-68298735D01*
X80718496Y-68395763D01*
X80718495Y-68395766D01*
X80689501Y-68503975D01*
X80689500Y-68503983D01*
X80689500Y-68616016D01*
X75195627Y-68616016D01*
X75196406Y-67204312D01*
X76280500Y-67204312D01*
X76309494Y-67350078D01*
X76366371Y-67487390D01*
X76366372Y-67487393D01*
X76448940Y-67610965D01*
X76554034Y-67716059D01*
X76677606Y-67798627D01*
X76677608Y-67798627D01*
X76677610Y-67798629D01*
X76814920Y-67855505D01*
X76960688Y-67884500D01*
X77909312Y-67884500D01*
X78055080Y-67855505D01*
X78192390Y-67798629D01*
X78315966Y-67716059D01*
X78421059Y-67610966D01*
X78503629Y-67487390D01*
X78560505Y-67350080D01*
X78589500Y-67204312D01*
X80330500Y-67204312D01*
X80359494Y-67350078D01*
X80416371Y-67487390D01*
X80416372Y-67487393D01*
X80498940Y-67610965D01*
X80604034Y-67716059D01*
X80727606Y-67798627D01*
X80727608Y-67798627D01*
X80727610Y-67798629D01*
X80864920Y-67855505D01*
X81010688Y-67884500D01*
X82259312Y-67884500D01*
X82405080Y-67855505D01*
X82542390Y-67798629D01*
X82665966Y-67716059D01*
X82771059Y-67610966D01*
X82778386Y-67600001D01*
X88858770Y-67600001D01*
X88877210Y-67740074D01*
X88877213Y-67740084D01*
X88901462Y-67798627D01*
X88931281Y-67870615D01*
X89017293Y-67982707D01*
X89129385Y-68068719D01*
X89259919Y-68122788D01*
X89259923Y-68122788D01*
X89259925Y-68122789D01*
X89399998Y-68141230D01*
X89400000Y-68141230D01*
X89400002Y-68141230D01*
X89540074Y-68122789D01*
X89540074Y-68122788D01*
X89540081Y-68122788D01*
X89670615Y-68068719D01*
X89782707Y-67982707D01*
X89868719Y-67870615D01*
X89922788Y-67740081D01*
X89924482Y-67727212D01*
X89941230Y-67600001D01*
X89941230Y-67599998D01*
X89922789Y-67459925D01*
X89922788Y-67459923D01*
X89922788Y-67459919D01*
X89868719Y-67329385D01*
X89782707Y-67217293D01*
X89670615Y-67131281D01*
X89670611Y-67131279D01*
X89540084Y-67077213D01*
X89540074Y-67077210D01*
X89400002Y-67058770D01*
X89399998Y-67058770D01*
X89259925Y-67077210D01*
X89259915Y-67077213D01*
X89129388Y-67131279D01*
X89017293Y-67217293D01*
X88931279Y-67329388D01*
X88877213Y-67459915D01*
X88877210Y-67459925D01*
X88858770Y-67599998D01*
X88858770Y-67600001D01*
X82778386Y-67600001D01*
X82853629Y-67487390D01*
X82910505Y-67350080D01*
X82939500Y-67204312D01*
X82939500Y-67055688D01*
X82910505Y-66909920D01*
X82853629Y-66772610D01*
X82853627Y-66772608D01*
X82853627Y-66772606D01*
X82771059Y-66649034D01*
X82665965Y-66543940D01*
X82542393Y-66461372D01*
X82542390Y-66461371D01*
X82405078Y-66404494D01*
X82259312Y-66375500D01*
X81010688Y-66375500D01*
X80864921Y-66404494D01*
X80727609Y-66461371D01*
X80727606Y-66461372D01*
X80604034Y-66543940D01*
X80498940Y-66649034D01*
X80416372Y-66772606D01*
X80416371Y-66772609D01*
X80359494Y-66909921D01*
X80330500Y-67055687D01*
X80330500Y-67204312D01*
X78589500Y-67204312D01*
X78589500Y-67055688D01*
X78560505Y-66909920D01*
X78503629Y-66772610D01*
X78503627Y-66772608D01*
X78503627Y-66772606D01*
X78421059Y-66649034D01*
X78315965Y-66543940D01*
X78192393Y-66461372D01*
X78192390Y-66461371D01*
X78055078Y-66404494D01*
X77909312Y-66375500D01*
X76960688Y-66375500D01*
X76814921Y-66404494D01*
X76677609Y-66461371D01*
X76677606Y-66461372D01*
X76554034Y-66543940D01*
X76448940Y-66649034D01*
X76366372Y-66772606D01*
X76366371Y-66772609D01*
X76309494Y-66909921D01*
X76280500Y-67055687D01*
X76280500Y-67204312D01*
X75196406Y-67204312D01*
X75198417Y-63562460D01*
X75216747Y-63518278D01*
X75260913Y-63499997D01*
X113630149Y-63498503D01*
X113674343Y-63516807D01*
G37*
%TD.AperFunction*%
%TD*%
M02*
