%TF.GenerationSoftware,KiCad,Pcbnew,8.0.1*%
%TF.CreationDate,2024-11-27T14:44:21-06:00*%
%TF.ProjectId,XAmplifier,58416d70-6c69-4666-9965-722e6b696361,rev?*%
%TF.SameCoordinates,Original*%
%TF.FileFunction,Drillmap*%
%TF.FilePolarity,Positive*%
%FSLAX45Y45*%
G04 Gerber Fmt 4.5, Leading zero omitted, Abs format (unit mm)*
G04 Created by KiCad (PCBNEW 8.0.1) date 2024-11-27 14:44:21*
%MOMM*%
%LPD*%
G01*
G04 APERTURE LIST*
%ADD10C,0.050000*%
%ADD11C,0.200000*%
%ADD12C,0.100000*%
%ADD13C,0.160000*%
G04 APERTURE END LIST*
D10*
X21468000Y-12770000D02*
X20978000Y-13260000D01*
X19678000Y-7738400D02*
X19678000Y-6870000D01*
X19468000Y-7738400D02*
X19678000Y-7738400D01*
X21218000Y-8810000D02*
G75*
G02*
X20918000Y-8810000I-150000J0D01*
G01*
X20918000Y-8810000D02*
G75*
G02*
X21218000Y-8810000I150000J0D01*
G01*
X21068000Y-6870000D02*
X21468000Y-7270000D01*
X18918000Y-12500000D02*
X18918000Y-12300000D01*
X21068000Y-6870000D02*
X19678000Y-6870000D01*
X18078000Y-12300000D02*
X18078000Y-7740000D01*
X19468000Y-13726800D02*
X19468000Y-12298400D01*
X17878000Y-12498400D02*
X18918000Y-12500000D01*
X18918000Y-7740000D02*
X18078000Y-7740000D01*
X19468000Y-7738400D02*
X19468000Y-6310000D01*
X19468000Y-6310000D02*
X7468000Y-6310000D01*
X17878000Y-7540000D02*
X17878000Y-12498400D01*
X18918000Y-7740000D02*
X18918000Y-7540000D01*
X19678000Y-12298400D02*
X19468000Y-12298400D01*
X18918000Y-12300000D02*
X18078000Y-12300000D01*
X7468000Y-6310000D02*
X7468000Y-13726800D01*
X17878000Y-7540000D02*
X18918000Y-7540000D01*
X21218000Y-11210000D02*
G75*
G02*
X20918000Y-11210000I-150000J0D01*
G01*
X20918000Y-11210000D02*
G75*
G02*
X21218000Y-11210000I150000J0D01*
G01*
X19678000Y-13260000D02*
X20978000Y-13260000D01*
X19678000Y-12298400D02*
X19678000Y-13260000D01*
X21468000Y-12770000D02*
X21468000Y-7270000D01*
X19468000Y-13726800D02*
X7468000Y-13726800D01*
D11*
D12*
X8079000Y-6823500D02*
X8144000Y-6888500D01*
X8144000Y-6823500D02*
X8079000Y-6888500D01*
X8079000Y-7401500D02*
X8144000Y-7466500D01*
X8144000Y-7401500D02*
X8079000Y-7466500D01*
D13*
X7947000Y-11810000D02*
G75*
G02*
X7787000Y-11810000I-80000J0D01*
G01*
X7787000Y-11810000D02*
G75*
G02*
X7947000Y-11810000I80000J0D01*
G01*
X7959000Y-9716000D02*
G75*
G02*
X7799000Y-9716000I-80000J0D01*
G01*
X7799000Y-9716000D02*
G75*
G02*
X7959000Y-9716000I80000J0D01*
G01*
X7959000Y-12370000D02*
G75*
G02*
X7799000Y-12370000I-80000J0D01*
G01*
X7799000Y-12370000D02*
G75*
G02*
X7959000Y-12370000I80000J0D01*
G01*
X8467000Y-8954000D02*
G75*
G02*
X8307000Y-8954000I-80000J0D01*
G01*
X8307000Y-8954000D02*
G75*
G02*
X8467000Y-8954000I80000J0D01*
G01*
X8467000Y-11608000D02*
G75*
G02*
X8307000Y-11608000I-80000J0D01*
G01*
X8307000Y-11608000D02*
G75*
G02*
X8467000Y-11608000I80000J0D01*
G01*
X8647000Y-11810000D02*
G75*
G02*
X8487000Y-11810000I-80000J0D01*
G01*
X8487000Y-11810000D02*
G75*
G02*
X8647000Y-11810000I80000J0D01*
G01*
D11*
X7726277Y-14040784D02*
X7726277Y-13840784D01*
X7726277Y-13840784D02*
X7773896Y-13840784D01*
X7773896Y-13840784D02*
X7802467Y-13850308D01*
X7802467Y-13850308D02*
X7821515Y-13869355D01*
X7821515Y-13869355D02*
X7831039Y-13888403D01*
X7831039Y-13888403D02*
X7840562Y-13926498D01*
X7840562Y-13926498D02*
X7840562Y-13955069D01*
X7840562Y-13955069D02*
X7831039Y-13993165D01*
X7831039Y-13993165D02*
X7821515Y-14012212D01*
X7821515Y-14012212D02*
X7802467Y-14031260D01*
X7802467Y-14031260D02*
X7773896Y-14040784D01*
X7773896Y-14040784D02*
X7726277Y-14040784D01*
X7926277Y-14040784D02*
X7926277Y-13907450D01*
X7926277Y-13945546D02*
X7935801Y-13926498D01*
X7935801Y-13926498D02*
X7945324Y-13916974D01*
X7945324Y-13916974D02*
X7964372Y-13907450D01*
X7964372Y-13907450D02*
X7983420Y-13907450D01*
X8050086Y-14040784D02*
X8050086Y-13907450D01*
X8050086Y-13840784D02*
X8040562Y-13850308D01*
X8040562Y-13850308D02*
X8050086Y-13859831D01*
X8050086Y-13859831D02*
X8059610Y-13850308D01*
X8059610Y-13850308D02*
X8050086Y-13840784D01*
X8050086Y-13840784D02*
X8050086Y-13859831D01*
X8173896Y-14040784D02*
X8154848Y-14031260D01*
X8154848Y-14031260D02*
X8145324Y-14012212D01*
X8145324Y-14012212D02*
X8145324Y-13840784D01*
X8278658Y-14040784D02*
X8259610Y-14031260D01*
X8259610Y-14031260D02*
X8250086Y-14012212D01*
X8250086Y-14012212D02*
X8250086Y-13840784D01*
X8507229Y-14040784D02*
X8507229Y-13840784D01*
X8507229Y-13840784D02*
X8573896Y-13983641D01*
X8573896Y-13983641D02*
X8640563Y-13840784D01*
X8640563Y-13840784D02*
X8640563Y-14040784D01*
X8821515Y-14040784D02*
X8821515Y-13936022D01*
X8821515Y-13936022D02*
X8811991Y-13916974D01*
X8811991Y-13916974D02*
X8792944Y-13907450D01*
X8792944Y-13907450D02*
X8754848Y-13907450D01*
X8754848Y-13907450D02*
X8735801Y-13916974D01*
X8821515Y-14031260D02*
X8802467Y-14040784D01*
X8802467Y-14040784D02*
X8754848Y-14040784D01*
X8754848Y-14040784D02*
X8735801Y-14031260D01*
X8735801Y-14031260D02*
X8726277Y-14012212D01*
X8726277Y-14012212D02*
X8726277Y-13993165D01*
X8726277Y-13993165D02*
X8735801Y-13974117D01*
X8735801Y-13974117D02*
X8754848Y-13964593D01*
X8754848Y-13964593D02*
X8802467Y-13964593D01*
X8802467Y-13964593D02*
X8821515Y-13955069D01*
X8916753Y-13907450D02*
X8916753Y-14107450D01*
X8916753Y-13916974D02*
X8935801Y-13907450D01*
X8935801Y-13907450D02*
X8973896Y-13907450D01*
X8973896Y-13907450D02*
X8992944Y-13916974D01*
X8992944Y-13916974D02*
X9002467Y-13926498D01*
X9002467Y-13926498D02*
X9011991Y-13945546D01*
X9011991Y-13945546D02*
X9011991Y-14002688D01*
X9011991Y-14002688D02*
X9002467Y-14021736D01*
X9002467Y-14021736D02*
X8992944Y-14031260D01*
X8992944Y-14031260D02*
X8973896Y-14040784D01*
X8973896Y-14040784D02*
X8935801Y-14040784D01*
X8935801Y-14040784D02*
X8916753Y-14031260D01*
X9097705Y-14021736D02*
X9107229Y-14031260D01*
X9107229Y-14031260D02*
X9097705Y-14040784D01*
X9097705Y-14040784D02*
X9088182Y-14031260D01*
X9088182Y-14031260D02*
X9097705Y-14021736D01*
X9097705Y-14021736D02*
X9097705Y-14040784D01*
X9097705Y-13916974D02*
X9107229Y-13926498D01*
X9107229Y-13926498D02*
X9097705Y-13936022D01*
X9097705Y-13936022D02*
X9088182Y-13926498D01*
X9088182Y-13926498D02*
X9097705Y-13916974D01*
X9097705Y-13916974D02*
X9097705Y-13936022D01*
D12*
X7400500Y-14336800D02*
X7465500Y-14401800D01*
X7465500Y-14336800D02*
X7400500Y-14401800D01*
D11*
X7764372Y-14260784D02*
X7783420Y-14260784D01*
X7783420Y-14260784D02*
X7802467Y-14270308D01*
X7802467Y-14270308D02*
X7811991Y-14279831D01*
X7811991Y-14279831D02*
X7821515Y-14298879D01*
X7821515Y-14298879D02*
X7831039Y-14336974D01*
X7831039Y-14336974D02*
X7831039Y-14384593D01*
X7831039Y-14384593D02*
X7821515Y-14422688D01*
X7821515Y-14422688D02*
X7811991Y-14441736D01*
X7811991Y-14441736D02*
X7802467Y-14451260D01*
X7802467Y-14451260D02*
X7783420Y-14460784D01*
X7783420Y-14460784D02*
X7764372Y-14460784D01*
X7764372Y-14460784D02*
X7745324Y-14451260D01*
X7745324Y-14451260D02*
X7735801Y-14441736D01*
X7735801Y-14441736D02*
X7726277Y-14422688D01*
X7726277Y-14422688D02*
X7716753Y-14384593D01*
X7716753Y-14384593D02*
X7716753Y-14336974D01*
X7716753Y-14336974D02*
X7726277Y-14298879D01*
X7726277Y-14298879D02*
X7735801Y-14279831D01*
X7735801Y-14279831D02*
X7745324Y-14270308D01*
X7745324Y-14270308D02*
X7764372Y-14260784D01*
X7916753Y-14441736D02*
X7926277Y-14451260D01*
X7926277Y-14451260D02*
X7916753Y-14460784D01*
X7916753Y-14460784D02*
X7907229Y-14451260D01*
X7907229Y-14451260D02*
X7916753Y-14441736D01*
X7916753Y-14441736D02*
X7916753Y-14460784D01*
X8097705Y-14260784D02*
X8059610Y-14260784D01*
X8059610Y-14260784D02*
X8040562Y-14270308D01*
X8040562Y-14270308D02*
X8031039Y-14279831D01*
X8031039Y-14279831D02*
X8011991Y-14308403D01*
X8011991Y-14308403D02*
X8002467Y-14346498D01*
X8002467Y-14346498D02*
X8002467Y-14422688D01*
X8002467Y-14422688D02*
X8011991Y-14441736D01*
X8011991Y-14441736D02*
X8021515Y-14451260D01*
X8021515Y-14451260D02*
X8040562Y-14460784D01*
X8040562Y-14460784D02*
X8078658Y-14460784D01*
X8078658Y-14460784D02*
X8097705Y-14451260D01*
X8097705Y-14451260D02*
X8107229Y-14441736D01*
X8107229Y-14441736D02*
X8116753Y-14422688D01*
X8116753Y-14422688D02*
X8116753Y-14375069D01*
X8116753Y-14375069D02*
X8107229Y-14356022D01*
X8107229Y-14356022D02*
X8097705Y-14346498D01*
X8097705Y-14346498D02*
X8078658Y-14336974D01*
X8078658Y-14336974D02*
X8040562Y-14336974D01*
X8040562Y-14336974D02*
X8021515Y-14346498D01*
X8021515Y-14346498D02*
X8011991Y-14356022D01*
X8011991Y-14356022D02*
X8002467Y-14375069D01*
X8297705Y-14260784D02*
X8202467Y-14260784D01*
X8202467Y-14260784D02*
X8192943Y-14356022D01*
X8192943Y-14356022D02*
X8202467Y-14346498D01*
X8202467Y-14346498D02*
X8221515Y-14336974D01*
X8221515Y-14336974D02*
X8269134Y-14336974D01*
X8269134Y-14336974D02*
X8288182Y-14346498D01*
X8288182Y-14346498D02*
X8297705Y-14356022D01*
X8297705Y-14356022D02*
X8307229Y-14375069D01*
X8307229Y-14375069D02*
X8307229Y-14422688D01*
X8307229Y-14422688D02*
X8297705Y-14441736D01*
X8297705Y-14441736D02*
X8288182Y-14451260D01*
X8288182Y-14451260D02*
X8269134Y-14460784D01*
X8269134Y-14460784D02*
X8221515Y-14460784D01*
X8221515Y-14460784D02*
X8202467Y-14451260D01*
X8202467Y-14451260D02*
X8192943Y-14441736D01*
X8431039Y-14260784D02*
X8450086Y-14260784D01*
X8450086Y-14260784D02*
X8469134Y-14270308D01*
X8469134Y-14270308D02*
X8478658Y-14279831D01*
X8478658Y-14279831D02*
X8488182Y-14298879D01*
X8488182Y-14298879D02*
X8497705Y-14336974D01*
X8497705Y-14336974D02*
X8497705Y-14384593D01*
X8497705Y-14384593D02*
X8488182Y-14422688D01*
X8488182Y-14422688D02*
X8478658Y-14441736D01*
X8478658Y-14441736D02*
X8469134Y-14451260D01*
X8469134Y-14451260D02*
X8450086Y-14460784D01*
X8450086Y-14460784D02*
X8431039Y-14460784D01*
X8431039Y-14460784D02*
X8411991Y-14451260D01*
X8411991Y-14451260D02*
X8402467Y-14441736D01*
X8402467Y-14441736D02*
X8392944Y-14422688D01*
X8392944Y-14422688D02*
X8383420Y-14384593D01*
X8383420Y-14384593D02*
X8383420Y-14336974D01*
X8383420Y-14336974D02*
X8392944Y-14298879D01*
X8392944Y-14298879D02*
X8402467Y-14279831D01*
X8402467Y-14279831D02*
X8411991Y-14270308D01*
X8411991Y-14270308D02*
X8431039Y-14260784D01*
X8583420Y-14460784D02*
X8583420Y-14327450D01*
X8583420Y-14346498D02*
X8592944Y-14336974D01*
X8592944Y-14336974D02*
X8611991Y-14327450D01*
X8611991Y-14327450D02*
X8640563Y-14327450D01*
X8640563Y-14327450D02*
X8659610Y-14336974D01*
X8659610Y-14336974D02*
X8669134Y-14356022D01*
X8669134Y-14356022D02*
X8669134Y-14460784D01*
X8669134Y-14356022D02*
X8678658Y-14336974D01*
X8678658Y-14336974D02*
X8697705Y-14327450D01*
X8697705Y-14327450D02*
X8726277Y-14327450D01*
X8726277Y-14327450D02*
X8745325Y-14336974D01*
X8745325Y-14336974D02*
X8754848Y-14356022D01*
X8754848Y-14356022D02*
X8754848Y-14460784D01*
X8850086Y-14460784D02*
X8850086Y-14327450D01*
X8850086Y-14346498D02*
X8859610Y-14336974D01*
X8859610Y-14336974D02*
X8878658Y-14327450D01*
X8878658Y-14327450D02*
X8907229Y-14327450D01*
X8907229Y-14327450D02*
X8926277Y-14336974D01*
X8926277Y-14336974D02*
X8935801Y-14356022D01*
X8935801Y-14356022D02*
X8935801Y-14460784D01*
X8935801Y-14356022D02*
X8945325Y-14336974D01*
X8945325Y-14336974D02*
X8964372Y-14327450D01*
X8964372Y-14327450D02*
X8992944Y-14327450D01*
X8992944Y-14327450D02*
X9011991Y-14336974D01*
X9011991Y-14336974D02*
X9021515Y-14356022D01*
X9021515Y-14356022D02*
X9021515Y-14460784D01*
X9411991Y-14251260D02*
X9240563Y-14508403D01*
X9669134Y-14260784D02*
X9688182Y-14260784D01*
X9688182Y-14260784D02*
X9707229Y-14270308D01*
X9707229Y-14270308D02*
X9716753Y-14279831D01*
X9716753Y-14279831D02*
X9726277Y-14298879D01*
X9726277Y-14298879D02*
X9735801Y-14336974D01*
X9735801Y-14336974D02*
X9735801Y-14384593D01*
X9735801Y-14384593D02*
X9726277Y-14422688D01*
X9726277Y-14422688D02*
X9716753Y-14441736D01*
X9716753Y-14441736D02*
X9707229Y-14451260D01*
X9707229Y-14451260D02*
X9688182Y-14460784D01*
X9688182Y-14460784D02*
X9669134Y-14460784D01*
X9669134Y-14460784D02*
X9650087Y-14451260D01*
X9650087Y-14451260D02*
X9640563Y-14441736D01*
X9640563Y-14441736D02*
X9631039Y-14422688D01*
X9631039Y-14422688D02*
X9621515Y-14384593D01*
X9621515Y-14384593D02*
X9621515Y-14336974D01*
X9621515Y-14336974D02*
X9631039Y-14298879D01*
X9631039Y-14298879D02*
X9640563Y-14279831D01*
X9640563Y-14279831D02*
X9650087Y-14270308D01*
X9650087Y-14270308D02*
X9669134Y-14260784D01*
X9821515Y-14441736D02*
X9831039Y-14451260D01*
X9831039Y-14451260D02*
X9821515Y-14460784D01*
X9821515Y-14460784D02*
X9811991Y-14451260D01*
X9811991Y-14451260D02*
X9821515Y-14441736D01*
X9821515Y-14441736D02*
X9821515Y-14460784D01*
X9954848Y-14260784D02*
X9973896Y-14260784D01*
X9973896Y-14260784D02*
X9992944Y-14270308D01*
X9992944Y-14270308D02*
X10002468Y-14279831D01*
X10002468Y-14279831D02*
X10011991Y-14298879D01*
X10011991Y-14298879D02*
X10021515Y-14336974D01*
X10021515Y-14336974D02*
X10021515Y-14384593D01*
X10021515Y-14384593D02*
X10011991Y-14422688D01*
X10011991Y-14422688D02*
X10002468Y-14441736D01*
X10002468Y-14441736D02*
X9992944Y-14451260D01*
X9992944Y-14451260D02*
X9973896Y-14460784D01*
X9973896Y-14460784D02*
X9954848Y-14460784D01*
X9954848Y-14460784D02*
X9935801Y-14451260D01*
X9935801Y-14451260D02*
X9926277Y-14441736D01*
X9926277Y-14441736D02*
X9916753Y-14422688D01*
X9916753Y-14422688D02*
X9907229Y-14384593D01*
X9907229Y-14384593D02*
X9907229Y-14336974D01*
X9907229Y-14336974D02*
X9916753Y-14298879D01*
X9916753Y-14298879D02*
X9926277Y-14279831D01*
X9926277Y-14279831D02*
X9935801Y-14270308D01*
X9935801Y-14270308D02*
X9954848Y-14260784D01*
X10097706Y-14279831D02*
X10107229Y-14270308D01*
X10107229Y-14270308D02*
X10126277Y-14260784D01*
X10126277Y-14260784D02*
X10173896Y-14260784D01*
X10173896Y-14260784D02*
X10192944Y-14270308D01*
X10192944Y-14270308D02*
X10202468Y-14279831D01*
X10202468Y-14279831D02*
X10211991Y-14298879D01*
X10211991Y-14298879D02*
X10211991Y-14317927D01*
X10211991Y-14317927D02*
X10202468Y-14346498D01*
X10202468Y-14346498D02*
X10088182Y-14460784D01*
X10088182Y-14460784D02*
X10211991Y-14460784D01*
X10392944Y-14260784D02*
X10297706Y-14260784D01*
X10297706Y-14260784D02*
X10288182Y-14356022D01*
X10288182Y-14356022D02*
X10297706Y-14346498D01*
X10297706Y-14346498D02*
X10316753Y-14336974D01*
X10316753Y-14336974D02*
X10364372Y-14336974D01*
X10364372Y-14336974D02*
X10383420Y-14346498D01*
X10383420Y-14346498D02*
X10392944Y-14356022D01*
X10392944Y-14356022D02*
X10402468Y-14375069D01*
X10402468Y-14375069D02*
X10402468Y-14422688D01*
X10402468Y-14422688D02*
X10392944Y-14441736D01*
X10392944Y-14441736D02*
X10383420Y-14451260D01*
X10383420Y-14451260D02*
X10364372Y-14460784D01*
X10364372Y-14460784D02*
X10316753Y-14460784D01*
X10316753Y-14460784D02*
X10297706Y-14451260D01*
X10297706Y-14451260D02*
X10288182Y-14441736D01*
X10573896Y-14260784D02*
X10535801Y-14260784D01*
X10535801Y-14260784D02*
X10516753Y-14270308D01*
X10516753Y-14270308D02*
X10507229Y-14279831D01*
X10507229Y-14279831D02*
X10488182Y-14308403D01*
X10488182Y-14308403D02*
X10478658Y-14346498D01*
X10478658Y-14346498D02*
X10478658Y-14422688D01*
X10478658Y-14422688D02*
X10488182Y-14441736D01*
X10488182Y-14441736D02*
X10497706Y-14451260D01*
X10497706Y-14451260D02*
X10516753Y-14460784D01*
X10516753Y-14460784D02*
X10554849Y-14460784D01*
X10554849Y-14460784D02*
X10573896Y-14451260D01*
X10573896Y-14451260D02*
X10583420Y-14441736D01*
X10583420Y-14441736D02*
X10592944Y-14422688D01*
X10592944Y-14422688D02*
X10592944Y-14375069D01*
X10592944Y-14375069D02*
X10583420Y-14356022D01*
X10583420Y-14356022D02*
X10573896Y-14346498D01*
X10573896Y-14346498D02*
X10554849Y-14336974D01*
X10554849Y-14336974D02*
X10516753Y-14336974D01*
X10516753Y-14336974D02*
X10497706Y-14346498D01*
X10497706Y-14346498D02*
X10488182Y-14356022D01*
X10488182Y-14356022D02*
X10478658Y-14375069D01*
X10669134Y-14260784D02*
X10669134Y-14298879D01*
X10745325Y-14260784D02*
X10745325Y-14298879D01*
X11040563Y-14536974D02*
X11031039Y-14527450D01*
X11031039Y-14527450D02*
X11011991Y-14498879D01*
X11011991Y-14498879D02*
X11002468Y-14479831D01*
X11002468Y-14479831D02*
X10992944Y-14451260D01*
X10992944Y-14451260D02*
X10983420Y-14403641D01*
X10983420Y-14403641D02*
X10983420Y-14365546D01*
X10983420Y-14365546D02*
X10992944Y-14317927D01*
X10992944Y-14317927D02*
X11002468Y-14289355D01*
X11002468Y-14289355D02*
X11011991Y-14270308D01*
X11011991Y-14270308D02*
X11031039Y-14241736D01*
X11031039Y-14241736D02*
X11040563Y-14232212D01*
X11107230Y-14279831D02*
X11116753Y-14270308D01*
X11116753Y-14270308D02*
X11135801Y-14260784D01*
X11135801Y-14260784D02*
X11183420Y-14260784D01*
X11183420Y-14260784D02*
X11202468Y-14270308D01*
X11202468Y-14270308D02*
X11211991Y-14279831D01*
X11211991Y-14279831D02*
X11221515Y-14298879D01*
X11221515Y-14298879D02*
X11221515Y-14317927D01*
X11221515Y-14317927D02*
X11211991Y-14346498D01*
X11211991Y-14346498D02*
X11097706Y-14460784D01*
X11097706Y-14460784D02*
X11221515Y-14460784D01*
X11459610Y-14460784D02*
X11459610Y-14260784D01*
X11545325Y-14460784D02*
X11545325Y-14356022D01*
X11545325Y-14356022D02*
X11535801Y-14336974D01*
X11535801Y-14336974D02*
X11516753Y-14327450D01*
X11516753Y-14327450D02*
X11488182Y-14327450D01*
X11488182Y-14327450D02*
X11469134Y-14336974D01*
X11469134Y-14336974D02*
X11459610Y-14346498D01*
X11669134Y-14460784D02*
X11650087Y-14451260D01*
X11650087Y-14451260D02*
X11640563Y-14441736D01*
X11640563Y-14441736D02*
X11631039Y-14422688D01*
X11631039Y-14422688D02*
X11631039Y-14365546D01*
X11631039Y-14365546D02*
X11640563Y-14346498D01*
X11640563Y-14346498D02*
X11650087Y-14336974D01*
X11650087Y-14336974D02*
X11669134Y-14327450D01*
X11669134Y-14327450D02*
X11697706Y-14327450D01*
X11697706Y-14327450D02*
X11716753Y-14336974D01*
X11716753Y-14336974D02*
X11726277Y-14346498D01*
X11726277Y-14346498D02*
X11735801Y-14365546D01*
X11735801Y-14365546D02*
X11735801Y-14422688D01*
X11735801Y-14422688D02*
X11726277Y-14441736D01*
X11726277Y-14441736D02*
X11716753Y-14451260D01*
X11716753Y-14451260D02*
X11697706Y-14460784D01*
X11697706Y-14460784D02*
X11669134Y-14460784D01*
X11850087Y-14460784D02*
X11831039Y-14451260D01*
X11831039Y-14451260D02*
X11821515Y-14432212D01*
X11821515Y-14432212D02*
X11821515Y-14260784D01*
X12002468Y-14451260D02*
X11983420Y-14460784D01*
X11983420Y-14460784D02*
X11945325Y-14460784D01*
X11945325Y-14460784D02*
X11926277Y-14451260D01*
X11926277Y-14451260D02*
X11916753Y-14432212D01*
X11916753Y-14432212D02*
X11916753Y-14356022D01*
X11916753Y-14356022D02*
X11926277Y-14336974D01*
X11926277Y-14336974D02*
X11945325Y-14327450D01*
X11945325Y-14327450D02*
X11983420Y-14327450D01*
X11983420Y-14327450D02*
X12002468Y-14336974D01*
X12002468Y-14336974D02*
X12011991Y-14356022D01*
X12011991Y-14356022D02*
X12011991Y-14375069D01*
X12011991Y-14375069D02*
X11916753Y-14394117D01*
X12088182Y-14451260D02*
X12107230Y-14460784D01*
X12107230Y-14460784D02*
X12145325Y-14460784D01*
X12145325Y-14460784D02*
X12164372Y-14451260D01*
X12164372Y-14451260D02*
X12173896Y-14432212D01*
X12173896Y-14432212D02*
X12173896Y-14422688D01*
X12173896Y-14422688D02*
X12164372Y-14403641D01*
X12164372Y-14403641D02*
X12145325Y-14394117D01*
X12145325Y-14394117D02*
X12116753Y-14394117D01*
X12116753Y-14394117D02*
X12097706Y-14384593D01*
X12097706Y-14384593D02*
X12088182Y-14365546D01*
X12088182Y-14365546D02*
X12088182Y-14356022D01*
X12088182Y-14356022D02*
X12097706Y-14336974D01*
X12097706Y-14336974D02*
X12116753Y-14327450D01*
X12116753Y-14327450D02*
X12145325Y-14327450D01*
X12145325Y-14327450D02*
X12164372Y-14336974D01*
X12240563Y-14536974D02*
X12250087Y-14527450D01*
X12250087Y-14527450D02*
X12269134Y-14498879D01*
X12269134Y-14498879D02*
X12278658Y-14479831D01*
X12278658Y-14479831D02*
X12288182Y-14451260D01*
X12288182Y-14451260D02*
X12297706Y-14403641D01*
X12297706Y-14403641D02*
X12297706Y-14365546D01*
X12297706Y-14365546D02*
X12288182Y-14317927D01*
X12288182Y-14317927D02*
X12278658Y-14289355D01*
X12278658Y-14289355D02*
X12269134Y-14270308D01*
X12269134Y-14270308D02*
X12250087Y-14241736D01*
X12250087Y-14241736D02*
X12240563Y-14232212D01*
X12602468Y-14536974D02*
X12592944Y-14527450D01*
X12592944Y-14527450D02*
X12573896Y-14498879D01*
X12573896Y-14498879D02*
X12564372Y-14479831D01*
X12564372Y-14479831D02*
X12554849Y-14451260D01*
X12554849Y-14451260D02*
X12545325Y-14403641D01*
X12545325Y-14403641D02*
X12545325Y-14365546D01*
X12545325Y-14365546D02*
X12554849Y-14317927D01*
X12554849Y-14317927D02*
X12564372Y-14289355D01*
X12564372Y-14289355D02*
X12573896Y-14270308D01*
X12573896Y-14270308D02*
X12592944Y-14241736D01*
X12592944Y-14241736D02*
X12602468Y-14232212D01*
X12678658Y-14327450D02*
X12678658Y-14460784D01*
X12678658Y-14346498D02*
X12688182Y-14336974D01*
X12688182Y-14336974D02*
X12707230Y-14327450D01*
X12707230Y-14327450D02*
X12735801Y-14327450D01*
X12735801Y-14327450D02*
X12754849Y-14336974D01*
X12754849Y-14336974D02*
X12764372Y-14356022D01*
X12764372Y-14356022D02*
X12764372Y-14460784D01*
X12888182Y-14460784D02*
X12869134Y-14451260D01*
X12869134Y-14451260D02*
X12859611Y-14441736D01*
X12859611Y-14441736D02*
X12850087Y-14422688D01*
X12850087Y-14422688D02*
X12850087Y-14365546D01*
X12850087Y-14365546D02*
X12859611Y-14346498D01*
X12859611Y-14346498D02*
X12869134Y-14336974D01*
X12869134Y-14336974D02*
X12888182Y-14327450D01*
X12888182Y-14327450D02*
X12916753Y-14327450D01*
X12916753Y-14327450D02*
X12935801Y-14336974D01*
X12935801Y-14336974D02*
X12945325Y-14346498D01*
X12945325Y-14346498D02*
X12954849Y-14365546D01*
X12954849Y-14365546D02*
X12954849Y-14422688D01*
X12954849Y-14422688D02*
X12945325Y-14441736D01*
X12945325Y-14441736D02*
X12935801Y-14451260D01*
X12935801Y-14451260D02*
X12916753Y-14460784D01*
X12916753Y-14460784D02*
X12888182Y-14460784D01*
X13011992Y-14327450D02*
X13088182Y-14327450D01*
X13040563Y-14260784D02*
X13040563Y-14432212D01*
X13040563Y-14432212D02*
X13050087Y-14451260D01*
X13050087Y-14451260D02*
X13069134Y-14460784D01*
X13069134Y-14460784D02*
X13088182Y-14460784D01*
X13307230Y-14327450D02*
X13307230Y-14527450D01*
X13307230Y-14336974D02*
X13326277Y-14327450D01*
X13326277Y-14327450D02*
X13364373Y-14327450D01*
X13364373Y-14327450D02*
X13383420Y-14336974D01*
X13383420Y-14336974D02*
X13392944Y-14346498D01*
X13392944Y-14346498D02*
X13402468Y-14365546D01*
X13402468Y-14365546D02*
X13402468Y-14422688D01*
X13402468Y-14422688D02*
X13392944Y-14441736D01*
X13392944Y-14441736D02*
X13383420Y-14451260D01*
X13383420Y-14451260D02*
X13364373Y-14460784D01*
X13364373Y-14460784D02*
X13326277Y-14460784D01*
X13326277Y-14460784D02*
X13307230Y-14451260D01*
X13516753Y-14460784D02*
X13497706Y-14451260D01*
X13497706Y-14451260D02*
X13488182Y-14432212D01*
X13488182Y-14432212D02*
X13488182Y-14260784D01*
X13678658Y-14460784D02*
X13678658Y-14356022D01*
X13678658Y-14356022D02*
X13669134Y-14336974D01*
X13669134Y-14336974D02*
X13650087Y-14327450D01*
X13650087Y-14327450D02*
X13611992Y-14327450D01*
X13611992Y-14327450D02*
X13592944Y-14336974D01*
X13678658Y-14451260D02*
X13659611Y-14460784D01*
X13659611Y-14460784D02*
X13611992Y-14460784D01*
X13611992Y-14460784D02*
X13592944Y-14451260D01*
X13592944Y-14451260D02*
X13583420Y-14432212D01*
X13583420Y-14432212D02*
X13583420Y-14413165D01*
X13583420Y-14413165D02*
X13592944Y-14394117D01*
X13592944Y-14394117D02*
X13611992Y-14384593D01*
X13611992Y-14384593D02*
X13659611Y-14384593D01*
X13659611Y-14384593D02*
X13678658Y-14375069D01*
X13745325Y-14327450D02*
X13821515Y-14327450D01*
X13773896Y-14260784D02*
X13773896Y-14432212D01*
X13773896Y-14432212D02*
X13783420Y-14451260D01*
X13783420Y-14451260D02*
X13802468Y-14460784D01*
X13802468Y-14460784D02*
X13821515Y-14460784D01*
X13964373Y-14451260D02*
X13945325Y-14460784D01*
X13945325Y-14460784D02*
X13907230Y-14460784D01*
X13907230Y-14460784D02*
X13888182Y-14451260D01*
X13888182Y-14451260D02*
X13878658Y-14432212D01*
X13878658Y-14432212D02*
X13878658Y-14356022D01*
X13878658Y-14356022D02*
X13888182Y-14336974D01*
X13888182Y-14336974D02*
X13907230Y-14327450D01*
X13907230Y-14327450D02*
X13945325Y-14327450D01*
X13945325Y-14327450D02*
X13964373Y-14336974D01*
X13964373Y-14336974D02*
X13973896Y-14356022D01*
X13973896Y-14356022D02*
X13973896Y-14375069D01*
X13973896Y-14375069D02*
X13878658Y-14394117D01*
X14145325Y-14460784D02*
X14145325Y-14260784D01*
X14145325Y-14451260D02*
X14126277Y-14460784D01*
X14126277Y-14460784D02*
X14088182Y-14460784D01*
X14088182Y-14460784D02*
X14069134Y-14451260D01*
X14069134Y-14451260D02*
X14059611Y-14441736D01*
X14059611Y-14441736D02*
X14050087Y-14422688D01*
X14050087Y-14422688D02*
X14050087Y-14365546D01*
X14050087Y-14365546D02*
X14059611Y-14346498D01*
X14059611Y-14346498D02*
X14069134Y-14336974D01*
X14069134Y-14336974D02*
X14088182Y-14327450D01*
X14088182Y-14327450D02*
X14126277Y-14327450D01*
X14126277Y-14327450D02*
X14145325Y-14336974D01*
X14221515Y-14536974D02*
X14231039Y-14527450D01*
X14231039Y-14527450D02*
X14250087Y-14498879D01*
X14250087Y-14498879D02*
X14259611Y-14479831D01*
X14259611Y-14479831D02*
X14269134Y-14451260D01*
X14269134Y-14451260D02*
X14278658Y-14403641D01*
X14278658Y-14403641D02*
X14278658Y-14365546D01*
X14278658Y-14365546D02*
X14269134Y-14317927D01*
X14269134Y-14317927D02*
X14259611Y-14289355D01*
X14259611Y-14289355D02*
X14250087Y-14270308D01*
X14250087Y-14270308D02*
X14231039Y-14241736D01*
X14231039Y-14241736D02*
X14221515Y-14232212D01*
D13*
X7465500Y-14633300D02*
G75*
G02*
X7305500Y-14633300I-80000J0D01*
G01*
X7305500Y-14633300D02*
G75*
G02*
X7465500Y-14633300I80000J0D01*
G01*
D11*
X7831039Y-14724784D02*
X7716753Y-14724784D01*
X7773896Y-14724784D02*
X7773896Y-14524784D01*
X7773896Y-14524784D02*
X7754848Y-14553355D01*
X7754848Y-14553355D02*
X7735801Y-14572403D01*
X7735801Y-14572403D02*
X7716753Y-14581927D01*
X7916753Y-14705736D02*
X7926277Y-14715260D01*
X7926277Y-14715260D02*
X7916753Y-14724784D01*
X7916753Y-14724784D02*
X7907229Y-14715260D01*
X7907229Y-14715260D02*
X7916753Y-14705736D01*
X7916753Y-14705736D02*
X7916753Y-14724784D01*
X8097705Y-14524784D02*
X8059610Y-14524784D01*
X8059610Y-14524784D02*
X8040562Y-14534308D01*
X8040562Y-14534308D02*
X8031039Y-14543831D01*
X8031039Y-14543831D02*
X8011991Y-14572403D01*
X8011991Y-14572403D02*
X8002467Y-14610498D01*
X8002467Y-14610498D02*
X8002467Y-14686688D01*
X8002467Y-14686688D02*
X8011991Y-14705736D01*
X8011991Y-14705736D02*
X8021515Y-14715260D01*
X8021515Y-14715260D02*
X8040562Y-14724784D01*
X8040562Y-14724784D02*
X8078658Y-14724784D01*
X8078658Y-14724784D02*
X8097705Y-14715260D01*
X8097705Y-14715260D02*
X8107229Y-14705736D01*
X8107229Y-14705736D02*
X8116753Y-14686688D01*
X8116753Y-14686688D02*
X8116753Y-14639069D01*
X8116753Y-14639069D02*
X8107229Y-14620022D01*
X8107229Y-14620022D02*
X8097705Y-14610498D01*
X8097705Y-14610498D02*
X8078658Y-14600974D01*
X8078658Y-14600974D02*
X8040562Y-14600974D01*
X8040562Y-14600974D02*
X8021515Y-14610498D01*
X8021515Y-14610498D02*
X8011991Y-14620022D01*
X8011991Y-14620022D02*
X8002467Y-14639069D01*
X8240562Y-14524784D02*
X8259610Y-14524784D01*
X8259610Y-14524784D02*
X8278658Y-14534308D01*
X8278658Y-14534308D02*
X8288182Y-14543831D01*
X8288182Y-14543831D02*
X8297705Y-14562879D01*
X8297705Y-14562879D02*
X8307229Y-14600974D01*
X8307229Y-14600974D02*
X8307229Y-14648593D01*
X8307229Y-14648593D02*
X8297705Y-14686688D01*
X8297705Y-14686688D02*
X8288182Y-14705736D01*
X8288182Y-14705736D02*
X8278658Y-14715260D01*
X8278658Y-14715260D02*
X8259610Y-14724784D01*
X8259610Y-14724784D02*
X8240562Y-14724784D01*
X8240562Y-14724784D02*
X8221515Y-14715260D01*
X8221515Y-14715260D02*
X8211991Y-14705736D01*
X8211991Y-14705736D02*
X8202467Y-14686688D01*
X8202467Y-14686688D02*
X8192943Y-14648593D01*
X8192943Y-14648593D02*
X8192943Y-14600974D01*
X8192943Y-14600974D02*
X8202467Y-14562879D01*
X8202467Y-14562879D02*
X8211991Y-14543831D01*
X8211991Y-14543831D02*
X8221515Y-14534308D01*
X8221515Y-14534308D02*
X8240562Y-14524784D01*
X8431039Y-14524784D02*
X8450086Y-14524784D01*
X8450086Y-14524784D02*
X8469134Y-14534308D01*
X8469134Y-14534308D02*
X8478658Y-14543831D01*
X8478658Y-14543831D02*
X8488182Y-14562879D01*
X8488182Y-14562879D02*
X8497705Y-14600974D01*
X8497705Y-14600974D02*
X8497705Y-14648593D01*
X8497705Y-14648593D02*
X8488182Y-14686688D01*
X8488182Y-14686688D02*
X8478658Y-14705736D01*
X8478658Y-14705736D02*
X8469134Y-14715260D01*
X8469134Y-14715260D02*
X8450086Y-14724784D01*
X8450086Y-14724784D02*
X8431039Y-14724784D01*
X8431039Y-14724784D02*
X8411991Y-14715260D01*
X8411991Y-14715260D02*
X8402467Y-14705736D01*
X8402467Y-14705736D02*
X8392944Y-14686688D01*
X8392944Y-14686688D02*
X8383420Y-14648593D01*
X8383420Y-14648593D02*
X8383420Y-14600974D01*
X8383420Y-14600974D02*
X8392944Y-14562879D01*
X8392944Y-14562879D02*
X8402467Y-14543831D01*
X8402467Y-14543831D02*
X8411991Y-14534308D01*
X8411991Y-14534308D02*
X8431039Y-14524784D01*
X8583420Y-14724784D02*
X8583420Y-14591450D01*
X8583420Y-14610498D02*
X8592944Y-14600974D01*
X8592944Y-14600974D02*
X8611991Y-14591450D01*
X8611991Y-14591450D02*
X8640563Y-14591450D01*
X8640563Y-14591450D02*
X8659610Y-14600974D01*
X8659610Y-14600974D02*
X8669134Y-14620022D01*
X8669134Y-14620022D02*
X8669134Y-14724784D01*
X8669134Y-14620022D02*
X8678658Y-14600974D01*
X8678658Y-14600974D02*
X8697705Y-14591450D01*
X8697705Y-14591450D02*
X8726277Y-14591450D01*
X8726277Y-14591450D02*
X8745325Y-14600974D01*
X8745325Y-14600974D02*
X8754848Y-14620022D01*
X8754848Y-14620022D02*
X8754848Y-14724784D01*
X8850086Y-14724784D02*
X8850086Y-14591450D01*
X8850086Y-14610498D02*
X8859610Y-14600974D01*
X8859610Y-14600974D02*
X8878658Y-14591450D01*
X8878658Y-14591450D02*
X8907229Y-14591450D01*
X8907229Y-14591450D02*
X8926277Y-14600974D01*
X8926277Y-14600974D02*
X8935801Y-14620022D01*
X8935801Y-14620022D02*
X8935801Y-14724784D01*
X8935801Y-14620022D02*
X8945325Y-14600974D01*
X8945325Y-14600974D02*
X8964372Y-14591450D01*
X8964372Y-14591450D02*
X8992944Y-14591450D01*
X8992944Y-14591450D02*
X9011991Y-14600974D01*
X9011991Y-14600974D02*
X9021515Y-14620022D01*
X9021515Y-14620022D02*
X9021515Y-14724784D01*
X9411991Y-14515260D02*
X9240563Y-14772403D01*
X9669134Y-14524784D02*
X9688182Y-14524784D01*
X9688182Y-14524784D02*
X9707229Y-14534308D01*
X9707229Y-14534308D02*
X9716753Y-14543831D01*
X9716753Y-14543831D02*
X9726277Y-14562879D01*
X9726277Y-14562879D02*
X9735801Y-14600974D01*
X9735801Y-14600974D02*
X9735801Y-14648593D01*
X9735801Y-14648593D02*
X9726277Y-14686688D01*
X9726277Y-14686688D02*
X9716753Y-14705736D01*
X9716753Y-14705736D02*
X9707229Y-14715260D01*
X9707229Y-14715260D02*
X9688182Y-14724784D01*
X9688182Y-14724784D02*
X9669134Y-14724784D01*
X9669134Y-14724784D02*
X9650087Y-14715260D01*
X9650087Y-14715260D02*
X9640563Y-14705736D01*
X9640563Y-14705736D02*
X9631039Y-14686688D01*
X9631039Y-14686688D02*
X9621515Y-14648593D01*
X9621515Y-14648593D02*
X9621515Y-14600974D01*
X9621515Y-14600974D02*
X9631039Y-14562879D01*
X9631039Y-14562879D02*
X9640563Y-14543831D01*
X9640563Y-14543831D02*
X9650087Y-14534308D01*
X9650087Y-14534308D02*
X9669134Y-14524784D01*
X9821515Y-14705736D02*
X9831039Y-14715260D01*
X9831039Y-14715260D02*
X9821515Y-14724784D01*
X9821515Y-14724784D02*
X9811991Y-14715260D01*
X9811991Y-14715260D02*
X9821515Y-14705736D01*
X9821515Y-14705736D02*
X9821515Y-14724784D01*
X9954848Y-14524784D02*
X9973896Y-14524784D01*
X9973896Y-14524784D02*
X9992944Y-14534308D01*
X9992944Y-14534308D02*
X10002468Y-14543831D01*
X10002468Y-14543831D02*
X10011991Y-14562879D01*
X10011991Y-14562879D02*
X10021515Y-14600974D01*
X10021515Y-14600974D02*
X10021515Y-14648593D01*
X10021515Y-14648593D02*
X10011991Y-14686688D01*
X10011991Y-14686688D02*
X10002468Y-14705736D01*
X10002468Y-14705736D02*
X9992944Y-14715260D01*
X9992944Y-14715260D02*
X9973896Y-14724784D01*
X9973896Y-14724784D02*
X9954848Y-14724784D01*
X9954848Y-14724784D02*
X9935801Y-14715260D01*
X9935801Y-14715260D02*
X9926277Y-14705736D01*
X9926277Y-14705736D02*
X9916753Y-14686688D01*
X9916753Y-14686688D02*
X9907229Y-14648593D01*
X9907229Y-14648593D02*
X9907229Y-14600974D01*
X9907229Y-14600974D02*
X9916753Y-14562879D01*
X9916753Y-14562879D02*
X9926277Y-14543831D01*
X9926277Y-14543831D02*
X9935801Y-14534308D01*
X9935801Y-14534308D02*
X9954848Y-14524784D01*
X10192944Y-14524784D02*
X10154848Y-14524784D01*
X10154848Y-14524784D02*
X10135801Y-14534308D01*
X10135801Y-14534308D02*
X10126277Y-14543831D01*
X10126277Y-14543831D02*
X10107229Y-14572403D01*
X10107229Y-14572403D02*
X10097706Y-14610498D01*
X10097706Y-14610498D02*
X10097706Y-14686688D01*
X10097706Y-14686688D02*
X10107229Y-14705736D01*
X10107229Y-14705736D02*
X10116753Y-14715260D01*
X10116753Y-14715260D02*
X10135801Y-14724784D01*
X10135801Y-14724784D02*
X10173896Y-14724784D01*
X10173896Y-14724784D02*
X10192944Y-14715260D01*
X10192944Y-14715260D02*
X10202468Y-14705736D01*
X10202468Y-14705736D02*
X10211991Y-14686688D01*
X10211991Y-14686688D02*
X10211991Y-14639069D01*
X10211991Y-14639069D02*
X10202468Y-14620022D01*
X10202468Y-14620022D02*
X10192944Y-14610498D01*
X10192944Y-14610498D02*
X10173896Y-14600974D01*
X10173896Y-14600974D02*
X10135801Y-14600974D01*
X10135801Y-14600974D02*
X10116753Y-14610498D01*
X10116753Y-14610498D02*
X10107229Y-14620022D01*
X10107229Y-14620022D02*
X10097706Y-14639069D01*
X10278658Y-14524784D02*
X10402468Y-14524784D01*
X10402468Y-14524784D02*
X10335801Y-14600974D01*
X10335801Y-14600974D02*
X10364372Y-14600974D01*
X10364372Y-14600974D02*
X10383420Y-14610498D01*
X10383420Y-14610498D02*
X10392944Y-14620022D01*
X10392944Y-14620022D02*
X10402468Y-14639069D01*
X10402468Y-14639069D02*
X10402468Y-14686688D01*
X10402468Y-14686688D02*
X10392944Y-14705736D01*
X10392944Y-14705736D02*
X10383420Y-14715260D01*
X10383420Y-14715260D02*
X10364372Y-14724784D01*
X10364372Y-14724784D02*
X10307229Y-14724784D01*
X10307229Y-14724784D02*
X10288182Y-14715260D01*
X10288182Y-14715260D02*
X10278658Y-14705736D01*
X10526277Y-14524784D02*
X10545325Y-14524784D01*
X10545325Y-14524784D02*
X10564372Y-14534308D01*
X10564372Y-14534308D02*
X10573896Y-14543831D01*
X10573896Y-14543831D02*
X10583420Y-14562879D01*
X10583420Y-14562879D02*
X10592944Y-14600974D01*
X10592944Y-14600974D02*
X10592944Y-14648593D01*
X10592944Y-14648593D02*
X10583420Y-14686688D01*
X10583420Y-14686688D02*
X10573896Y-14705736D01*
X10573896Y-14705736D02*
X10564372Y-14715260D01*
X10564372Y-14715260D02*
X10545325Y-14724784D01*
X10545325Y-14724784D02*
X10526277Y-14724784D01*
X10526277Y-14724784D02*
X10507229Y-14715260D01*
X10507229Y-14715260D02*
X10497706Y-14705736D01*
X10497706Y-14705736D02*
X10488182Y-14686688D01*
X10488182Y-14686688D02*
X10478658Y-14648593D01*
X10478658Y-14648593D02*
X10478658Y-14600974D01*
X10478658Y-14600974D02*
X10488182Y-14562879D01*
X10488182Y-14562879D02*
X10497706Y-14543831D01*
X10497706Y-14543831D02*
X10507229Y-14534308D01*
X10507229Y-14534308D02*
X10526277Y-14524784D01*
X10669134Y-14524784D02*
X10669134Y-14562879D01*
X10745325Y-14524784D02*
X10745325Y-14562879D01*
X11040563Y-14800974D02*
X11031039Y-14791450D01*
X11031039Y-14791450D02*
X11011991Y-14762879D01*
X11011991Y-14762879D02*
X11002468Y-14743831D01*
X11002468Y-14743831D02*
X10992944Y-14715260D01*
X10992944Y-14715260D02*
X10983420Y-14667641D01*
X10983420Y-14667641D02*
X10983420Y-14629546D01*
X10983420Y-14629546D02*
X10992944Y-14581927D01*
X10992944Y-14581927D02*
X11002468Y-14553355D01*
X11002468Y-14553355D02*
X11011991Y-14534308D01*
X11011991Y-14534308D02*
X11031039Y-14505736D01*
X11031039Y-14505736D02*
X11040563Y-14496212D01*
X11202468Y-14524784D02*
X11164372Y-14524784D01*
X11164372Y-14524784D02*
X11145325Y-14534308D01*
X11145325Y-14534308D02*
X11135801Y-14543831D01*
X11135801Y-14543831D02*
X11116753Y-14572403D01*
X11116753Y-14572403D02*
X11107230Y-14610498D01*
X11107230Y-14610498D02*
X11107230Y-14686688D01*
X11107230Y-14686688D02*
X11116753Y-14705736D01*
X11116753Y-14705736D02*
X11126277Y-14715260D01*
X11126277Y-14715260D02*
X11145325Y-14724784D01*
X11145325Y-14724784D02*
X11183420Y-14724784D01*
X11183420Y-14724784D02*
X11202468Y-14715260D01*
X11202468Y-14715260D02*
X11211991Y-14705736D01*
X11211991Y-14705736D02*
X11221515Y-14686688D01*
X11221515Y-14686688D02*
X11221515Y-14639069D01*
X11221515Y-14639069D02*
X11211991Y-14620022D01*
X11211991Y-14620022D02*
X11202468Y-14610498D01*
X11202468Y-14610498D02*
X11183420Y-14600974D01*
X11183420Y-14600974D02*
X11145325Y-14600974D01*
X11145325Y-14600974D02*
X11126277Y-14610498D01*
X11126277Y-14610498D02*
X11116753Y-14620022D01*
X11116753Y-14620022D02*
X11107230Y-14639069D01*
X11459610Y-14724784D02*
X11459610Y-14524784D01*
X11545325Y-14724784D02*
X11545325Y-14620022D01*
X11545325Y-14620022D02*
X11535801Y-14600974D01*
X11535801Y-14600974D02*
X11516753Y-14591450D01*
X11516753Y-14591450D02*
X11488182Y-14591450D01*
X11488182Y-14591450D02*
X11469134Y-14600974D01*
X11469134Y-14600974D02*
X11459610Y-14610498D01*
X11669134Y-14724784D02*
X11650087Y-14715260D01*
X11650087Y-14715260D02*
X11640563Y-14705736D01*
X11640563Y-14705736D02*
X11631039Y-14686688D01*
X11631039Y-14686688D02*
X11631039Y-14629546D01*
X11631039Y-14629546D02*
X11640563Y-14610498D01*
X11640563Y-14610498D02*
X11650087Y-14600974D01*
X11650087Y-14600974D02*
X11669134Y-14591450D01*
X11669134Y-14591450D02*
X11697706Y-14591450D01*
X11697706Y-14591450D02*
X11716753Y-14600974D01*
X11716753Y-14600974D02*
X11726277Y-14610498D01*
X11726277Y-14610498D02*
X11735801Y-14629546D01*
X11735801Y-14629546D02*
X11735801Y-14686688D01*
X11735801Y-14686688D02*
X11726277Y-14705736D01*
X11726277Y-14705736D02*
X11716753Y-14715260D01*
X11716753Y-14715260D02*
X11697706Y-14724784D01*
X11697706Y-14724784D02*
X11669134Y-14724784D01*
X11850087Y-14724784D02*
X11831039Y-14715260D01*
X11831039Y-14715260D02*
X11821515Y-14696212D01*
X11821515Y-14696212D02*
X11821515Y-14524784D01*
X12002468Y-14715260D02*
X11983420Y-14724784D01*
X11983420Y-14724784D02*
X11945325Y-14724784D01*
X11945325Y-14724784D02*
X11926277Y-14715260D01*
X11926277Y-14715260D02*
X11916753Y-14696212D01*
X11916753Y-14696212D02*
X11916753Y-14620022D01*
X11916753Y-14620022D02*
X11926277Y-14600974D01*
X11926277Y-14600974D02*
X11945325Y-14591450D01*
X11945325Y-14591450D02*
X11983420Y-14591450D01*
X11983420Y-14591450D02*
X12002468Y-14600974D01*
X12002468Y-14600974D02*
X12011991Y-14620022D01*
X12011991Y-14620022D02*
X12011991Y-14639069D01*
X12011991Y-14639069D02*
X11916753Y-14658117D01*
X12088182Y-14715260D02*
X12107230Y-14724784D01*
X12107230Y-14724784D02*
X12145325Y-14724784D01*
X12145325Y-14724784D02*
X12164372Y-14715260D01*
X12164372Y-14715260D02*
X12173896Y-14696212D01*
X12173896Y-14696212D02*
X12173896Y-14686688D01*
X12173896Y-14686688D02*
X12164372Y-14667641D01*
X12164372Y-14667641D02*
X12145325Y-14658117D01*
X12145325Y-14658117D02*
X12116753Y-14658117D01*
X12116753Y-14658117D02*
X12097706Y-14648593D01*
X12097706Y-14648593D02*
X12088182Y-14629546D01*
X12088182Y-14629546D02*
X12088182Y-14620022D01*
X12088182Y-14620022D02*
X12097706Y-14600974D01*
X12097706Y-14600974D02*
X12116753Y-14591450D01*
X12116753Y-14591450D02*
X12145325Y-14591450D01*
X12145325Y-14591450D02*
X12164372Y-14600974D01*
X12240563Y-14800974D02*
X12250087Y-14791450D01*
X12250087Y-14791450D02*
X12269134Y-14762879D01*
X12269134Y-14762879D02*
X12278658Y-14743831D01*
X12278658Y-14743831D02*
X12288182Y-14715260D01*
X12288182Y-14715260D02*
X12297706Y-14667641D01*
X12297706Y-14667641D02*
X12297706Y-14629546D01*
X12297706Y-14629546D02*
X12288182Y-14581927D01*
X12288182Y-14581927D02*
X12278658Y-14553355D01*
X12278658Y-14553355D02*
X12269134Y-14534308D01*
X12269134Y-14534308D02*
X12250087Y-14505736D01*
X12250087Y-14505736D02*
X12240563Y-14496212D01*
X12602468Y-14800974D02*
X12592944Y-14791450D01*
X12592944Y-14791450D02*
X12573896Y-14762879D01*
X12573896Y-14762879D02*
X12564372Y-14743831D01*
X12564372Y-14743831D02*
X12554849Y-14715260D01*
X12554849Y-14715260D02*
X12545325Y-14667641D01*
X12545325Y-14667641D02*
X12545325Y-14629546D01*
X12545325Y-14629546D02*
X12554849Y-14581927D01*
X12554849Y-14581927D02*
X12564372Y-14553355D01*
X12564372Y-14553355D02*
X12573896Y-14534308D01*
X12573896Y-14534308D02*
X12592944Y-14505736D01*
X12592944Y-14505736D02*
X12602468Y-14496212D01*
X12678658Y-14591450D02*
X12678658Y-14724784D01*
X12678658Y-14610498D02*
X12688182Y-14600974D01*
X12688182Y-14600974D02*
X12707230Y-14591450D01*
X12707230Y-14591450D02*
X12735801Y-14591450D01*
X12735801Y-14591450D02*
X12754849Y-14600974D01*
X12754849Y-14600974D02*
X12764372Y-14620022D01*
X12764372Y-14620022D02*
X12764372Y-14724784D01*
X12888182Y-14724784D02*
X12869134Y-14715260D01*
X12869134Y-14715260D02*
X12859611Y-14705736D01*
X12859611Y-14705736D02*
X12850087Y-14686688D01*
X12850087Y-14686688D02*
X12850087Y-14629546D01*
X12850087Y-14629546D02*
X12859611Y-14610498D01*
X12859611Y-14610498D02*
X12869134Y-14600974D01*
X12869134Y-14600974D02*
X12888182Y-14591450D01*
X12888182Y-14591450D02*
X12916753Y-14591450D01*
X12916753Y-14591450D02*
X12935801Y-14600974D01*
X12935801Y-14600974D02*
X12945325Y-14610498D01*
X12945325Y-14610498D02*
X12954849Y-14629546D01*
X12954849Y-14629546D02*
X12954849Y-14686688D01*
X12954849Y-14686688D02*
X12945325Y-14705736D01*
X12945325Y-14705736D02*
X12935801Y-14715260D01*
X12935801Y-14715260D02*
X12916753Y-14724784D01*
X12916753Y-14724784D02*
X12888182Y-14724784D01*
X13011992Y-14591450D02*
X13088182Y-14591450D01*
X13040563Y-14524784D02*
X13040563Y-14696212D01*
X13040563Y-14696212D02*
X13050087Y-14715260D01*
X13050087Y-14715260D02*
X13069134Y-14724784D01*
X13069134Y-14724784D02*
X13088182Y-14724784D01*
X13307230Y-14591450D02*
X13307230Y-14791450D01*
X13307230Y-14600974D02*
X13326277Y-14591450D01*
X13326277Y-14591450D02*
X13364373Y-14591450D01*
X13364373Y-14591450D02*
X13383420Y-14600974D01*
X13383420Y-14600974D02*
X13392944Y-14610498D01*
X13392944Y-14610498D02*
X13402468Y-14629546D01*
X13402468Y-14629546D02*
X13402468Y-14686688D01*
X13402468Y-14686688D02*
X13392944Y-14705736D01*
X13392944Y-14705736D02*
X13383420Y-14715260D01*
X13383420Y-14715260D02*
X13364373Y-14724784D01*
X13364373Y-14724784D02*
X13326277Y-14724784D01*
X13326277Y-14724784D02*
X13307230Y-14715260D01*
X13516753Y-14724784D02*
X13497706Y-14715260D01*
X13497706Y-14715260D02*
X13488182Y-14696212D01*
X13488182Y-14696212D02*
X13488182Y-14524784D01*
X13678658Y-14724784D02*
X13678658Y-14620022D01*
X13678658Y-14620022D02*
X13669134Y-14600974D01*
X13669134Y-14600974D02*
X13650087Y-14591450D01*
X13650087Y-14591450D02*
X13611992Y-14591450D01*
X13611992Y-14591450D02*
X13592944Y-14600974D01*
X13678658Y-14715260D02*
X13659611Y-14724784D01*
X13659611Y-14724784D02*
X13611992Y-14724784D01*
X13611992Y-14724784D02*
X13592944Y-14715260D01*
X13592944Y-14715260D02*
X13583420Y-14696212D01*
X13583420Y-14696212D02*
X13583420Y-14677165D01*
X13583420Y-14677165D02*
X13592944Y-14658117D01*
X13592944Y-14658117D02*
X13611992Y-14648593D01*
X13611992Y-14648593D02*
X13659611Y-14648593D01*
X13659611Y-14648593D02*
X13678658Y-14639069D01*
X13745325Y-14591450D02*
X13821515Y-14591450D01*
X13773896Y-14524784D02*
X13773896Y-14696212D01*
X13773896Y-14696212D02*
X13783420Y-14715260D01*
X13783420Y-14715260D02*
X13802468Y-14724784D01*
X13802468Y-14724784D02*
X13821515Y-14724784D01*
X13964373Y-14715260D02*
X13945325Y-14724784D01*
X13945325Y-14724784D02*
X13907230Y-14724784D01*
X13907230Y-14724784D02*
X13888182Y-14715260D01*
X13888182Y-14715260D02*
X13878658Y-14696212D01*
X13878658Y-14696212D02*
X13878658Y-14620022D01*
X13878658Y-14620022D02*
X13888182Y-14600974D01*
X13888182Y-14600974D02*
X13907230Y-14591450D01*
X13907230Y-14591450D02*
X13945325Y-14591450D01*
X13945325Y-14591450D02*
X13964373Y-14600974D01*
X13964373Y-14600974D02*
X13973896Y-14620022D01*
X13973896Y-14620022D02*
X13973896Y-14639069D01*
X13973896Y-14639069D02*
X13878658Y-14658117D01*
X14145325Y-14724784D02*
X14145325Y-14524784D01*
X14145325Y-14715260D02*
X14126277Y-14724784D01*
X14126277Y-14724784D02*
X14088182Y-14724784D01*
X14088182Y-14724784D02*
X14069134Y-14715260D01*
X14069134Y-14715260D02*
X14059611Y-14705736D01*
X14059611Y-14705736D02*
X14050087Y-14686688D01*
X14050087Y-14686688D02*
X14050087Y-14629546D01*
X14050087Y-14629546D02*
X14059611Y-14610498D01*
X14059611Y-14610498D02*
X14069134Y-14600974D01*
X14069134Y-14600974D02*
X14088182Y-14591450D01*
X14088182Y-14591450D02*
X14126277Y-14591450D01*
X14126277Y-14591450D02*
X14145325Y-14600974D01*
X14221515Y-14800974D02*
X14231039Y-14791450D01*
X14231039Y-14791450D02*
X14250087Y-14762879D01*
X14250087Y-14762879D02*
X14259611Y-14743831D01*
X14259611Y-14743831D02*
X14269134Y-14715260D01*
X14269134Y-14715260D02*
X14278658Y-14667641D01*
X14278658Y-14667641D02*
X14278658Y-14629546D01*
X14278658Y-14629546D02*
X14269134Y-14581927D01*
X14269134Y-14581927D02*
X14259611Y-14553355D01*
X14259611Y-14553355D02*
X14250087Y-14534308D01*
X14250087Y-14534308D02*
X14231039Y-14505736D01*
X14231039Y-14505736D02*
X14221515Y-14496212D01*
M02*
