%TF.GenerationSoftware,KiCad,Pcbnew,8.0.1*%
%TF.CreationDate,2024-11-27T15:43:16-06:00*%
%TF.ProjectId,XAmplifier,58416d70-6c69-4666-9965-722e6b696361,rev?*%
%TF.SameCoordinates,Original*%
%TF.FileFunction,Copper,L1,Top*%
%TF.FilePolarity,Positive*%
%FSLAX46Y46*%
G04 Gerber Fmt 4.6, Leading zero omitted, Abs format (unit mm)*
G04 Created by KiCad (PCBNEW 8.0.1) date 2024-11-27 15:43:16*
%MOMM*%
%LPD*%
G01*
G04 APERTURE LIST*
G04 Aperture macros list*
%AMRoundRect*
0 Rectangle with rounded corners*
0 $1 Rounding radius*
0 $2 $3 $4 $5 $6 $7 $8 $9 X,Y pos of 4 corners*
0 Add a 4 corners polygon primitive as box body*
4,1,4,$2,$3,$4,$5,$6,$7,$8,$9,$2,$3,0*
0 Add four circle primitives for the rounded corners*
1,1,$1+$1,$2,$3*
1,1,$1+$1,$4,$5*
1,1,$1+$1,$6,$7*
1,1,$1+$1,$8,$9*
0 Add four rect primitives between the rounded corners*
20,1,$1+$1,$2,$3,$4,$5,0*
20,1,$1+$1,$4,$5,$6,$7,0*
20,1,$1+$1,$6,$7,$8,$9,0*
20,1,$1+$1,$8,$9,$2,$3,0*%
G04 Aperture macros list end*
%TA.AperFunction,EtchedComponent*%
%ADD10C,0.000000*%
%TD*%
%TA.AperFunction,EtchedComponent*%
%ADD11C,0.010000*%
%TD*%
%TA.AperFunction,EtchedComponent*%
%ADD12C,0.400000*%
%TD*%
%TA.AperFunction,SMDPad,CuDef*%
%ADD13RoundRect,0.135000X-0.135000X-0.185000X0.135000X-0.185000X0.135000X0.185000X-0.135000X0.185000X0*%
%TD*%
%TA.AperFunction,SMDPad,CuDef*%
%ADD14RoundRect,0.225000X-0.375000X0.225000X-0.375000X-0.225000X0.375000X-0.225000X0.375000X0.225000X0*%
%TD*%
%TA.AperFunction,SMDPad,CuDef*%
%ADD15RoundRect,0.225000X0.225000X0.375000X-0.225000X0.375000X-0.225000X-0.375000X0.225000X-0.375000X0*%
%TD*%
%TA.AperFunction,ComponentPad*%
%ADD16C,2.000000*%
%TD*%
%TA.AperFunction,ComponentPad*%
%ADD17R,2.000000X2.000000*%
%TD*%
%TA.AperFunction,SMDPad,CuDef*%
%ADD18R,3.450000X2.550000*%
%TD*%
%TA.AperFunction,SMDPad,CuDef*%
%ADD19RoundRect,0.150000X-0.150000X0.512500X-0.150000X-0.512500X0.150000X-0.512500X0.150000X0.512500X0*%
%TD*%
%TA.AperFunction,SMDPad,CuDef*%
%ADD20RoundRect,0.140000X0.140000X0.170000X-0.140000X0.170000X-0.140000X-0.170000X0.140000X-0.170000X0*%
%TD*%
%TA.AperFunction,SMDPad,CuDef*%
%ADD21R,1.100000X1.500000*%
%TD*%
%TA.AperFunction,SMDPad,CuDef*%
%ADD22RoundRect,0.250000X0.625000X-0.312500X0.625000X0.312500X-0.625000X0.312500X-0.625000X-0.312500X0*%
%TD*%
%TA.AperFunction,SMDPad,CuDef*%
%ADD23R,0.279400X0.812800*%
%TD*%
%TA.AperFunction,SMDPad,CuDef*%
%ADD24RoundRect,0.250000X-0.300000X-0.300000X0.300000X-0.300000X0.300000X0.300000X-0.300000X0.300000X0*%
%TD*%
%TA.AperFunction,SMDPad,CuDef*%
%ADD25RoundRect,0.250000X0.300000X-0.300000X0.300000X0.300000X-0.300000X0.300000X-0.300000X-0.300000X0*%
%TD*%
%TA.AperFunction,SMDPad,CuDef*%
%ADD26RoundRect,0.140000X-0.140000X-0.170000X0.140000X-0.170000X0.140000X0.170000X-0.140000X0.170000X0*%
%TD*%
%TA.AperFunction,SMDPad,CuDef*%
%ADD27RoundRect,0.250000X-0.625000X0.312500X-0.625000X-0.312500X0.625000X-0.312500X0.625000X0.312500X0*%
%TD*%
%TA.AperFunction,SMDPad,CuDef*%
%ADD28RoundRect,0.250000X-0.650000X0.325000X-0.650000X-0.325000X0.650000X-0.325000X0.650000X0.325000X0*%
%TD*%
%TA.AperFunction,SMDPad,CuDef*%
%ADD29R,1.200000X2.500000*%
%TD*%
%TA.AperFunction,SMDPad,CuDef*%
%ADD30RoundRect,0.218750X-0.218750X-0.381250X0.218750X-0.381250X0.218750X0.381250X-0.218750X0.381250X0*%
%TD*%
%TA.AperFunction,SMDPad,CuDef*%
%ADD31RoundRect,0.250000X0.262500X0.450000X-0.262500X0.450000X-0.262500X-0.450000X0.262500X-0.450000X0*%
%TD*%
%TA.AperFunction,SMDPad,CuDef*%
%ADD32RoundRect,0.250000X0.325000X0.650000X-0.325000X0.650000X-0.325000X-0.650000X0.325000X-0.650000X0*%
%TD*%
%TA.AperFunction,ComponentPad*%
%ADD33C,1.600000*%
%TD*%
%TA.AperFunction,ComponentPad*%
%ADD34R,1.600000X1.600000*%
%TD*%
%TA.AperFunction,ComponentPad*%
%ADD35C,1.498600*%
%TD*%
%TA.AperFunction,SMDPad,CuDef*%
%ADD36R,2.100000X2.600000*%
%TD*%
%TA.AperFunction,SMDPad,CuDef*%
%ADD37RoundRect,0.250000X-0.325000X-0.650000X0.325000X-0.650000X0.325000X0.650000X-0.325000X0.650000X0*%
%TD*%
%TA.AperFunction,ComponentPad*%
%ADD38C,6.400000*%
%TD*%
%TA.AperFunction,SMDPad,CuDef*%
%ADD39RoundRect,0.150000X-0.150000X0.587500X-0.150000X-0.587500X0.150000X-0.587500X0.150000X0.587500X0*%
%TD*%
%TA.AperFunction,SMDPad,CuDef*%
%ADD40RoundRect,0.225000X-0.225000X-0.250000X0.225000X-0.250000X0.225000X0.250000X-0.225000X0.250000X0*%
%TD*%
%TA.AperFunction,SMDPad,CuDef*%
%ADD41RoundRect,0.225000X-0.225000X-0.375000X0.225000X-0.375000X0.225000X0.375000X-0.225000X0.375000X0*%
%TD*%
%TA.AperFunction,SMDPad,CuDef*%
%ADD42RoundRect,0.150000X0.150000X-0.512500X0.150000X0.512500X-0.150000X0.512500X-0.150000X-0.512500X0*%
%TD*%
%TA.AperFunction,SMDPad,CuDef*%
%ADD43RoundRect,0.250000X1.100000X-0.325000X1.100000X0.325000X-1.100000X0.325000X-1.100000X-0.325000X0*%
%TD*%
%TA.AperFunction,ComponentPad*%
%ADD44C,1.800000*%
%TD*%
%TA.AperFunction,ComponentPad*%
%ADD45R,1.800000X1.800000*%
%TD*%
%TA.AperFunction,SMDPad,CuDef*%
%ADD46RoundRect,0.250000X0.312500X0.625000X-0.312500X0.625000X-0.312500X-0.625000X0.312500X-0.625000X0*%
%TD*%
%TA.AperFunction,SMDPad,CuDef*%
%ADD47C,3.098800*%
%TD*%
%TA.AperFunction,ComponentPad*%
%ADD48C,3.098800*%
%TD*%
%TA.AperFunction,SMDPad,CuDef*%
%ADD49RoundRect,0.150000X-0.150000X0.825000X-0.150000X-0.825000X0.150000X-0.825000X0.150000X0.825000X0*%
%TD*%
%TA.AperFunction,SMDPad,CuDef*%
%ADD50R,1.600000X2.250000*%
%TD*%
%TA.AperFunction,SMDPad,CuDef*%
%ADD51RoundRect,0.250000X-0.250000X-0.475000X0.250000X-0.475000X0.250000X0.475000X-0.250000X0.475000X0*%
%TD*%
%TA.AperFunction,SMDPad,CuDef*%
%ADD52RoundRect,0.250000X-1.100000X0.325000X-1.100000X-0.325000X1.100000X-0.325000X1.100000X0.325000X0*%
%TD*%
%TA.AperFunction,SMDPad,CuDef*%
%ADD53R,1.500000X2.200000*%
%TD*%
%TA.AperFunction,SMDPad,CuDef*%
%ADD54RoundRect,0.225000X0.375000X-0.225000X0.375000X0.225000X-0.375000X0.225000X-0.375000X-0.225000X0*%
%TD*%
%TA.AperFunction,SMDPad,CuDef*%
%ADD55R,1.800000X1.500000*%
%TD*%
%TA.AperFunction,SMDPad,CuDef*%
%ADD56RoundRect,0.150000X0.150000X-0.587500X0.150000X0.587500X-0.150000X0.587500X-0.150000X-0.587500X0*%
%TD*%
%TA.AperFunction,SMDPad,CuDef*%
%ADD57R,1.500000X1.800000*%
%TD*%
%TA.AperFunction,SMDPad,CuDef*%
%ADD58RoundRect,0.135000X0.135000X0.185000X-0.135000X0.185000X-0.135000X-0.185000X0.135000X-0.185000X0*%
%TD*%
%TA.AperFunction,SMDPad,CuDef*%
%ADD59RoundRect,0.250000X0.325000X1.100000X-0.325000X1.100000X-0.325000X-1.100000X0.325000X-1.100000X0*%
%TD*%
%TA.AperFunction,SMDPad,CuDef*%
%ADD60RoundRect,0.135000X0.185000X-0.135000X0.185000X0.135000X-0.185000X0.135000X-0.185000X-0.135000X0*%
%TD*%
%TA.AperFunction,ComponentPad*%
%ADD61O,1.800000X1.000000*%
%TD*%
%TA.AperFunction,ComponentPad*%
%ADD62O,2.100000X1.000000*%
%TD*%
%TA.AperFunction,SMDPad,CuDef*%
%ADD63R,1.240000X0.600000*%
%TD*%
%TA.AperFunction,SMDPad,CuDef*%
%ADD64R,1.240000X0.300000*%
%TD*%
%TA.AperFunction,ComponentPad*%
%ADD65C,2.900000*%
%TD*%
%TA.AperFunction,ComponentPad*%
%ADD66C,3.400000*%
%TD*%
%TA.AperFunction,SMDPad,CuDef*%
%ADD67RoundRect,0.200000X-0.200000X-0.275000X0.200000X-0.275000X0.200000X0.275000X-0.200000X0.275000X0*%
%TD*%
%TA.AperFunction,SMDPad,CuDef*%
%ADD68RoundRect,0.250000X-0.262500X-0.450000X0.262500X-0.450000X0.262500X0.450000X-0.262500X0.450000X0*%
%TD*%
%TA.AperFunction,HeatsinkPad*%
%ADD69C,0.500000*%
%TD*%
%TA.AperFunction,HeatsinkPad*%
%ADD70R,2.850000X1.650000*%
%TD*%
%TA.AperFunction,SMDPad,CuDef*%
%ADD71RoundRect,0.100000X0.100000X-0.625000X0.100000X0.625000X-0.100000X0.625000X-0.100000X-0.625000X0*%
%TD*%
%TA.AperFunction,SMDPad,CuDef*%
%ADD72RoundRect,0.250000X-0.300000X0.300000X-0.300000X-0.300000X0.300000X-0.300000X0.300000X0.300000X0*%
%TD*%
%TA.AperFunction,ComponentPad*%
%ADD73R,1.700000X1.700000*%
%TD*%
%TA.AperFunction,ComponentPad*%
%ADD74O,1.700000X1.700000*%
%TD*%
%TA.AperFunction,ViaPad*%
%ADD75C,0.564200*%
%TD*%
%TA.AperFunction,ViaPad*%
%ADD76C,1.100000*%
%TD*%
%TA.AperFunction,Conductor*%
%ADD77C,0.508000*%
%TD*%
%TA.AperFunction,Conductor*%
%ADD78C,0.635000*%
%TD*%
%TA.AperFunction,Conductor*%
%ADD79C,0.381000*%
%TD*%
%TA.AperFunction,Conductor*%
%ADD80C,0.254000*%
%TD*%
%TA.AperFunction,Conductor*%
%ADD81C,0.203200*%
%TD*%
G04 APERTURE END LIST*
D10*
%TA.AperFunction,EtchedComponent*%
%TO.C,Q404*%
G36*
X119040754Y-81038874D02*
G01*
X116754754Y-81038874D01*
X116754754Y-79337074D01*
X119040754Y-79337074D01*
X119040754Y-81038874D01*
G37*
%TD.AperFunction*%
D11*
%TO.C,LOGO402*%
X152623490Y-122664624D02*
X152707311Y-123109248D01*
X153016596Y-123236746D01*
X153325882Y-123364244D01*
X153696922Y-123111939D01*
X153800833Y-123041689D01*
X153894763Y-122978965D01*
X153974328Y-122926631D01*
X154035146Y-122887550D01*
X154072833Y-122864586D01*
X154083097Y-122859635D01*
X154101586Y-122872369D01*
X154141096Y-122907575D01*
X154197198Y-122960755D01*
X154265463Y-123027411D01*
X154341462Y-123103047D01*
X154420768Y-123183165D01*
X154498951Y-123263267D01*
X154571583Y-123338857D01*
X154634235Y-123405438D01*
X154682479Y-123458511D01*
X154711886Y-123493580D01*
X154718917Y-123505316D01*
X154708799Y-123526953D01*
X154680435Y-123574355D01*
X154636805Y-123642886D01*
X154580894Y-123727908D01*
X154515682Y-123824786D01*
X154477895Y-123880043D01*
X154409019Y-123980941D01*
X154347816Y-124071992D01*
X154297254Y-124148663D01*
X154260304Y-124206421D01*
X154239934Y-124240736D01*
X154236873Y-124247947D01*
X154243812Y-124268441D01*
X154262727Y-124316206D01*
X154290763Y-124384525D01*
X154325067Y-124466682D01*
X154362785Y-124555963D01*
X154401063Y-124645651D01*
X154437046Y-124729031D01*
X154467882Y-124799387D01*
X154490715Y-124850003D01*
X154502693Y-124874164D01*
X154503400Y-124875115D01*
X154522207Y-124879729D01*
X154572294Y-124890021D01*
X154648469Y-124904980D01*
X154745541Y-124923594D01*
X154858319Y-124944852D01*
X154924118Y-124957111D01*
X155044626Y-124980055D01*
X155153473Y-125001888D01*
X155245152Y-125021415D01*
X155314157Y-125037441D01*
X155354980Y-125048772D01*
X155363187Y-125052367D01*
X155371224Y-125076699D01*
X155377709Y-125131652D01*
X155382646Y-125210801D01*
X155386040Y-125307719D01*
X155387894Y-125415980D01*
X155388214Y-125529158D01*
X155387003Y-125640828D01*
X155384266Y-125744561D01*
X155380007Y-125833934D01*
X155374231Y-125902519D01*
X155366943Y-125943890D01*
X155362571Y-125952503D01*
X155336440Y-125962826D01*
X155281069Y-125977585D01*
X155203783Y-125995045D01*
X155111906Y-126013473D01*
X155079834Y-126019434D01*
X154925200Y-126047759D01*
X154803051Y-126070569D01*
X154709349Y-126088773D01*
X154640060Y-126103276D01*
X154591147Y-126114985D01*
X154558573Y-126124808D01*
X154538304Y-126133649D01*
X154526302Y-126142417D01*
X154524623Y-126144150D01*
X154507860Y-126172064D01*
X154482290Y-126226388D01*
X154450464Y-126300470D01*
X154414936Y-126387658D01*
X154378259Y-126481301D01*
X154342987Y-126574745D01*
X154311672Y-126661340D01*
X154286869Y-126734433D01*
X154271130Y-126787371D01*
X154267008Y-126813504D01*
X154267352Y-126814419D01*
X154281317Y-126835779D01*
X154312998Y-126882777D01*
X154359067Y-126950520D01*
X154416194Y-127034116D01*
X154481049Y-127128675D01*
X154499519Y-127155547D01*
X154565375Y-127252968D01*
X154623326Y-127341856D01*
X154670214Y-127417105D01*
X154702883Y-127473613D01*
X154718176Y-127506274D01*
X154718917Y-127510286D01*
X154706068Y-127531377D01*
X154670564Y-127573157D01*
X154616969Y-127631138D01*
X154549847Y-127700828D01*
X154473763Y-127777738D01*
X154393280Y-127857376D01*
X154312963Y-127935254D01*
X154237375Y-128006879D01*
X154171081Y-128067763D01*
X154118645Y-128113414D01*
X154084631Y-128139343D01*
X154075221Y-128143576D01*
X154053319Y-128133605D01*
X154008476Y-128106713D01*
X153947997Y-128067429D01*
X153901465Y-128035810D01*
X153817151Y-127977791D01*
X153717302Y-127909477D01*
X153617149Y-127841272D01*
X153563303Y-127804768D01*
X153381047Y-127681493D01*
X153228057Y-127764213D01*
X153158358Y-127800452D01*
X153099090Y-127828619D01*
X153058987Y-127844684D01*
X153048779Y-127846919D01*
X153036505Y-127830415D01*
X153012289Y-127783775D01*
X152977939Y-127711302D01*
X152935264Y-127617299D01*
X152886070Y-127506067D01*
X152832166Y-127381908D01*
X152775360Y-127249125D01*
X152717458Y-127112020D01*
X152660269Y-126974895D01*
X152605600Y-126842051D01*
X152555260Y-126717791D01*
X152511056Y-126606418D01*
X152474795Y-126512232D01*
X152448285Y-126439537D01*
X152433334Y-126392634D01*
X152430930Y-126376526D01*
X152449987Y-126355979D01*
X152491712Y-126322626D01*
X152547382Y-126283395D01*
X152552054Y-126280292D01*
X152695940Y-126165116D01*
X152811959Y-126030746D01*
X152899106Y-125881477D01*
X152956375Y-125721606D01*
X152982762Y-125555430D01*
X152977261Y-125387245D01*
X152938866Y-125221348D01*
X152866571Y-125062035D01*
X152845302Y-125027180D01*
X152734672Y-124886430D01*
X152603978Y-124773407D01*
X152457740Y-124688696D01*
X152300484Y-124632887D01*
X152136733Y-124606567D01*
X151971009Y-124610323D01*
X151807838Y-124644743D01*
X151651741Y-124710416D01*
X151507243Y-124807928D01*
X151462545Y-124847506D01*
X151348788Y-124971396D01*
X151265894Y-125101817D01*
X151209032Y-125248008D01*
X151177363Y-125392781D01*
X151169545Y-125555553D01*
X151195614Y-125719133D01*
X151252921Y-125877991D01*
X151338820Y-126026599D01*
X151450662Y-126159428D01*
X151585799Y-126270949D01*
X151603559Y-126282704D01*
X151659826Y-126321201D01*
X151702599Y-126354556D01*
X151723048Y-126375853D01*
X151723345Y-126376526D01*
X151718955Y-126399564D01*
X151701552Y-126451850D01*
X151672944Y-126529083D01*
X151634941Y-126626961D01*
X151589350Y-126741184D01*
X151537979Y-126867451D01*
X151482638Y-127001460D01*
X151425134Y-127138911D01*
X151367277Y-127275501D01*
X151310874Y-127406930D01*
X151257734Y-127528898D01*
X151209666Y-127637102D01*
X151168477Y-127727242D01*
X151135977Y-127795016D01*
X151113973Y-127836123D01*
X151105112Y-127846919D01*
X151078036Y-127838512D01*
X151027373Y-127815965D01*
X150961859Y-127783306D01*
X150925835Y-127764213D01*
X150772844Y-127681493D01*
X150590588Y-127804768D01*
X150497551Y-127867921D01*
X150395691Y-127937420D01*
X150300238Y-128002858D01*
X150252426Y-128035810D01*
X150185181Y-128080966D01*
X150128240Y-128116750D01*
X150089030Y-128138631D01*
X150076295Y-128143256D01*
X150057759Y-128130778D01*
X150016735Y-128095945D01*
X149957201Y-128042371D01*
X149883134Y-127973676D01*
X149798511Y-127893474D01*
X149744991Y-127841979D01*
X149651357Y-127749979D01*
X149570435Y-127667692D01*
X149505499Y-127598638D01*
X149459818Y-127546337D01*
X149436665Y-127514309D01*
X149434444Y-127507809D01*
X149444752Y-127483087D01*
X149473237Y-127433098D01*
X149516739Y-127362905D01*
X149572099Y-127277568D01*
X149636156Y-127182149D01*
X149654373Y-127155547D01*
X149720749Y-127058860D01*
X149780298Y-126971810D01*
X149829692Y-126899288D01*
X149865601Y-126846186D01*
X149884695Y-126817396D01*
X149886540Y-126814419D01*
X149883781Y-126791475D01*
X149869138Y-126741029D01*
X149845163Y-126669734D01*
X149814410Y-126584240D01*
X149779432Y-126491200D01*
X149742783Y-126397267D01*
X149707015Y-126309092D01*
X149674682Y-126233327D01*
X149648338Y-126176624D01*
X149630534Y-126145636D01*
X149629269Y-126144150D01*
X149618382Y-126135294D01*
X149599994Y-126126536D01*
X149570070Y-126116970D01*
X149524573Y-126105689D01*
X149459467Y-126091786D01*
X149370715Y-126074356D01*
X149254283Y-126052491D01*
X149106134Y-126025284D01*
X149074058Y-126019434D01*
X148978990Y-126001067D01*
X148896111Y-125983098D01*
X148832746Y-125967262D01*
X148796218Y-125955293D01*
X148791320Y-125952503D01*
X148783249Y-125927765D01*
X148776689Y-125872483D01*
X148771643Y-125793082D01*
X148768117Y-125695989D01*
X148766115Y-125587631D01*
X148765640Y-125474433D01*
X148766699Y-125362821D01*
X148769294Y-125259222D01*
X148773430Y-125170061D01*
X148779113Y-125101765D01*
X148786345Y-125060759D01*
X148790705Y-125052367D01*
X148814978Y-125043901D01*
X148870250Y-125030128D01*
X148951014Y-125012243D01*
X149051764Y-124991441D01*
X149166993Y-124968916D01*
X149229774Y-124957111D01*
X149348889Y-124934844D01*
X149455111Y-124914672D01*
X149543249Y-124897608D01*
X149608110Y-124884662D01*
X149644502Y-124876848D01*
X149650492Y-124875115D01*
X149660615Y-124855583D01*
X149682014Y-124808536D01*
X149711837Y-124740696D01*
X149747231Y-124658784D01*
X149785344Y-124569521D01*
X149823323Y-124479628D01*
X149858316Y-124395828D01*
X149887470Y-124324840D01*
X149907933Y-124273387D01*
X149916853Y-124248190D01*
X149917019Y-124247089D01*
X149906907Y-124227212D01*
X149878559Y-124181470D01*
X149834953Y-124114410D01*
X149779070Y-124030577D01*
X149713889Y-123934519D01*
X149675997Y-123879343D01*
X149606951Y-123778174D01*
X149545626Y-123686323D01*
X149495013Y-123608437D01*
X149458105Y-123549162D01*
X149437894Y-123513144D01*
X149434975Y-123505070D01*
X149447523Y-123486277D01*
X149482213Y-123446150D01*
X149534613Y-123389186D01*
X149600292Y-123319878D01*
X149674820Y-123242724D01*
X149753763Y-123162218D01*
X149832693Y-123082856D01*
X149907176Y-123009133D01*
X149972782Y-122945545D01*
X150025080Y-122896587D01*
X150059637Y-122866754D01*
X150071198Y-122859635D01*
X150090022Y-122869646D01*
X150135045Y-122897771D01*
X150201889Y-122941147D01*
X150286177Y-122996911D01*
X150383532Y-123062199D01*
X150456969Y-123111939D01*
X150828009Y-123364244D01*
X151446581Y-123109248D01*
X151530401Y-122664624D01*
X151614222Y-122220000D01*
X152539670Y-122220000D01*
X152623490Y-122664624D01*
%TA.AperFunction,EtchedComponent*%
G36*
X152623490Y-122664624D02*
G01*
X152707311Y-123109248D01*
X153016596Y-123236746D01*
X153325882Y-123364244D01*
X153696922Y-123111939D01*
X153800833Y-123041689D01*
X153894763Y-122978965D01*
X153974328Y-122926631D01*
X154035146Y-122887550D01*
X154072833Y-122864586D01*
X154083097Y-122859635D01*
X154101586Y-122872369D01*
X154141096Y-122907575D01*
X154197198Y-122960755D01*
X154265463Y-123027411D01*
X154341462Y-123103047D01*
X154420768Y-123183165D01*
X154498951Y-123263267D01*
X154571583Y-123338857D01*
X154634235Y-123405438D01*
X154682479Y-123458511D01*
X154711886Y-123493580D01*
X154718917Y-123505316D01*
X154708799Y-123526953D01*
X154680435Y-123574355D01*
X154636805Y-123642886D01*
X154580894Y-123727908D01*
X154515682Y-123824786D01*
X154477895Y-123880043D01*
X154409019Y-123980941D01*
X154347816Y-124071992D01*
X154297254Y-124148663D01*
X154260304Y-124206421D01*
X154239934Y-124240736D01*
X154236873Y-124247947D01*
X154243812Y-124268441D01*
X154262727Y-124316206D01*
X154290763Y-124384525D01*
X154325067Y-124466682D01*
X154362785Y-124555963D01*
X154401063Y-124645651D01*
X154437046Y-124729031D01*
X154467882Y-124799387D01*
X154490715Y-124850003D01*
X154502693Y-124874164D01*
X154503400Y-124875115D01*
X154522207Y-124879729D01*
X154572294Y-124890021D01*
X154648469Y-124904980D01*
X154745541Y-124923594D01*
X154858319Y-124944852D01*
X154924118Y-124957111D01*
X155044626Y-124980055D01*
X155153473Y-125001888D01*
X155245152Y-125021415D01*
X155314157Y-125037441D01*
X155354980Y-125048772D01*
X155363187Y-125052367D01*
X155371224Y-125076699D01*
X155377709Y-125131652D01*
X155382646Y-125210801D01*
X155386040Y-125307719D01*
X155387894Y-125415980D01*
X155388214Y-125529158D01*
X155387003Y-125640828D01*
X155384266Y-125744561D01*
X155380007Y-125833934D01*
X155374231Y-125902519D01*
X155366943Y-125943890D01*
X155362571Y-125952503D01*
X155336440Y-125962826D01*
X155281069Y-125977585D01*
X155203783Y-125995045D01*
X155111906Y-126013473D01*
X155079834Y-126019434D01*
X154925200Y-126047759D01*
X154803051Y-126070569D01*
X154709349Y-126088773D01*
X154640060Y-126103276D01*
X154591147Y-126114985D01*
X154558573Y-126124808D01*
X154538304Y-126133649D01*
X154526302Y-126142417D01*
X154524623Y-126144150D01*
X154507860Y-126172064D01*
X154482290Y-126226388D01*
X154450464Y-126300470D01*
X154414936Y-126387658D01*
X154378259Y-126481301D01*
X154342987Y-126574745D01*
X154311672Y-126661340D01*
X154286869Y-126734433D01*
X154271130Y-126787371D01*
X154267008Y-126813504D01*
X154267352Y-126814419D01*
X154281317Y-126835779D01*
X154312998Y-126882777D01*
X154359067Y-126950520D01*
X154416194Y-127034116D01*
X154481049Y-127128675D01*
X154499519Y-127155547D01*
X154565375Y-127252968D01*
X154623326Y-127341856D01*
X154670214Y-127417105D01*
X154702883Y-127473613D01*
X154718176Y-127506274D01*
X154718917Y-127510286D01*
X154706068Y-127531377D01*
X154670564Y-127573157D01*
X154616969Y-127631138D01*
X154549847Y-127700828D01*
X154473763Y-127777738D01*
X154393280Y-127857376D01*
X154312963Y-127935254D01*
X154237375Y-128006879D01*
X154171081Y-128067763D01*
X154118645Y-128113414D01*
X154084631Y-128139343D01*
X154075221Y-128143576D01*
X154053319Y-128133605D01*
X154008476Y-128106713D01*
X153947997Y-128067429D01*
X153901465Y-128035810D01*
X153817151Y-127977791D01*
X153717302Y-127909477D01*
X153617149Y-127841272D01*
X153563303Y-127804768D01*
X153381047Y-127681493D01*
X153228057Y-127764213D01*
X153158358Y-127800452D01*
X153099090Y-127828619D01*
X153058987Y-127844684D01*
X153048779Y-127846919D01*
X153036505Y-127830415D01*
X153012289Y-127783775D01*
X152977939Y-127711302D01*
X152935264Y-127617299D01*
X152886070Y-127506067D01*
X152832166Y-127381908D01*
X152775360Y-127249125D01*
X152717458Y-127112020D01*
X152660269Y-126974895D01*
X152605600Y-126842051D01*
X152555260Y-126717791D01*
X152511056Y-126606418D01*
X152474795Y-126512232D01*
X152448285Y-126439537D01*
X152433334Y-126392634D01*
X152430930Y-126376526D01*
X152449987Y-126355979D01*
X152491712Y-126322626D01*
X152547382Y-126283395D01*
X152552054Y-126280292D01*
X152695940Y-126165116D01*
X152811959Y-126030746D01*
X152899106Y-125881477D01*
X152956375Y-125721606D01*
X152982762Y-125555430D01*
X152977261Y-125387245D01*
X152938866Y-125221348D01*
X152866571Y-125062035D01*
X152845302Y-125027180D01*
X152734672Y-124886430D01*
X152603978Y-124773407D01*
X152457740Y-124688696D01*
X152300484Y-124632887D01*
X152136733Y-124606567D01*
X151971009Y-124610323D01*
X151807838Y-124644743D01*
X151651741Y-124710416D01*
X151507243Y-124807928D01*
X151462545Y-124847506D01*
X151348788Y-124971396D01*
X151265894Y-125101817D01*
X151209032Y-125248008D01*
X151177363Y-125392781D01*
X151169545Y-125555553D01*
X151195614Y-125719133D01*
X151252921Y-125877991D01*
X151338820Y-126026599D01*
X151450662Y-126159428D01*
X151585799Y-126270949D01*
X151603559Y-126282704D01*
X151659826Y-126321201D01*
X151702599Y-126354556D01*
X151723048Y-126375853D01*
X151723345Y-126376526D01*
X151718955Y-126399564D01*
X151701552Y-126451850D01*
X151672944Y-126529083D01*
X151634941Y-126626961D01*
X151589350Y-126741184D01*
X151537979Y-126867451D01*
X151482638Y-127001460D01*
X151425134Y-127138911D01*
X151367277Y-127275501D01*
X151310874Y-127406930D01*
X151257734Y-127528898D01*
X151209666Y-127637102D01*
X151168477Y-127727242D01*
X151135977Y-127795016D01*
X151113973Y-127836123D01*
X151105112Y-127846919D01*
X151078036Y-127838512D01*
X151027373Y-127815965D01*
X150961859Y-127783306D01*
X150925835Y-127764213D01*
X150772844Y-127681493D01*
X150590588Y-127804768D01*
X150497551Y-127867921D01*
X150395691Y-127937420D01*
X150300238Y-128002858D01*
X150252426Y-128035810D01*
X150185181Y-128080966D01*
X150128240Y-128116750D01*
X150089030Y-128138631D01*
X150076295Y-128143256D01*
X150057759Y-128130778D01*
X150016735Y-128095945D01*
X149957201Y-128042371D01*
X149883134Y-127973676D01*
X149798511Y-127893474D01*
X149744991Y-127841979D01*
X149651357Y-127749979D01*
X149570435Y-127667692D01*
X149505499Y-127598638D01*
X149459818Y-127546337D01*
X149436665Y-127514309D01*
X149434444Y-127507809D01*
X149444752Y-127483087D01*
X149473237Y-127433098D01*
X149516739Y-127362905D01*
X149572099Y-127277568D01*
X149636156Y-127182149D01*
X149654373Y-127155547D01*
X149720749Y-127058860D01*
X149780298Y-126971810D01*
X149829692Y-126899288D01*
X149865601Y-126846186D01*
X149884695Y-126817396D01*
X149886540Y-126814419D01*
X149883781Y-126791475D01*
X149869138Y-126741029D01*
X149845163Y-126669734D01*
X149814410Y-126584240D01*
X149779432Y-126491200D01*
X149742783Y-126397267D01*
X149707015Y-126309092D01*
X149674682Y-126233327D01*
X149648338Y-126176624D01*
X149630534Y-126145636D01*
X149629269Y-126144150D01*
X149618382Y-126135294D01*
X149599994Y-126126536D01*
X149570070Y-126116970D01*
X149524573Y-126105689D01*
X149459467Y-126091786D01*
X149370715Y-126074356D01*
X149254283Y-126052491D01*
X149106134Y-126025284D01*
X149074058Y-126019434D01*
X148978990Y-126001067D01*
X148896111Y-125983098D01*
X148832746Y-125967262D01*
X148796218Y-125955293D01*
X148791320Y-125952503D01*
X148783249Y-125927765D01*
X148776689Y-125872483D01*
X148771643Y-125793082D01*
X148768117Y-125695989D01*
X148766115Y-125587631D01*
X148765640Y-125474433D01*
X148766699Y-125362821D01*
X148769294Y-125259222D01*
X148773430Y-125170061D01*
X148779113Y-125101765D01*
X148786345Y-125060759D01*
X148790705Y-125052367D01*
X148814978Y-125043901D01*
X148870250Y-125030128D01*
X148951014Y-125012243D01*
X149051764Y-124991441D01*
X149166993Y-124968916D01*
X149229774Y-124957111D01*
X149348889Y-124934844D01*
X149455111Y-124914672D01*
X149543249Y-124897608D01*
X149608110Y-124884662D01*
X149644502Y-124876848D01*
X149650492Y-124875115D01*
X149660615Y-124855583D01*
X149682014Y-124808536D01*
X149711837Y-124740696D01*
X149747231Y-124658784D01*
X149785344Y-124569521D01*
X149823323Y-124479628D01*
X149858316Y-124395828D01*
X149887470Y-124324840D01*
X149907933Y-124273387D01*
X149916853Y-124248190D01*
X149917019Y-124247089D01*
X149906907Y-124227212D01*
X149878559Y-124181470D01*
X149834953Y-124114410D01*
X149779070Y-124030577D01*
X149713889Y-123934519D01*
X149675997Y-123879343D01*
X149606951Y-123778174D01*
X149545626Y-123686323D01*
X149495013Y-123608437D01*
X149458105Y-123549162D01*
X149437894Y-123513144D01*
X149434975Y-123505070D01*
X149447523Y-123486277D01*
X149482213Y-123446150D01*
X149534613Y-123389186D01*
X149600292Y-123319878D01*
X149674820Y-123242724D01*
X149753763Y-123162218D01*
X149832693Y-123082856D01*
X149907176Y-123009133D01*
X149972782Y-122945545D01*
X150025080Y-122896587D01*
X150059637Y-122866754D01*
X150071198Y-122859635D01*
X150090022Y-122869646D01*
X150135045Y-122897771D01*
X150201889Y-122941147D01*
X150286177Y-122996911D01*
X150383532Y-123062199D01*
X150456969Y-123111939D01*
X150828009Y-123364244D01*
X151446581Y-123109248D01*
X151530401Y-122664624D01*
X151614222Y-122220000D01*
X152539670Y-122220000D01*
X152623490Y-122664624D01*
G37*
%TD.AperFunction*%
D12*
%TO.C,LOGO400*%
X146867676Y-125270693D02*
G75*
G02*
X141867676Y-125270693I-2500000J0D01*
G01*
X141867676Y-125270693D02*
G75*
G02*
X146867676Y-125270693I2500000J0D01*
G01*
D10*
%TA.AperFunction,EtchedComponent*%
G36*
X143483872Y-124224957D02*
G01*
X143558324Y-124230666D01*
X143629984Y-124240206D01*
X143698853Y-124253577D01*
X143764932Y-124270780D01*
X143828220Y-124291813D01*
X143888720Y-124316677D01*
X143946430Y-124345371D01*
X144001353Y-124377895D01*
X144053488Y-124414249D01*
X144102837Y-124454431D01*
X144149399Y-124498443D01*
X144193175Y-124546283D01*
X144234167Y-124597951D01*
X144272374Y-124653448D01*
X144307798Y-124712772D01*
X143854090Y-124948675D01*
X143844874Y-124930154D01*
X143835402Y-124912337D01*
X143825674Y-124895222D01*
X143815689Y-124878811D01*
X143805448Y-124863105D01*
X143794950Y-124848104D01*
X143784194Y-124833809D01*
X143773181Y-124820219D01*
X143761909Y-124807337D01*
X143750380Y-124795163D01*
X143738592Y-124783696D01*
X143726545Y-124772938D01*
X143714238Y-124762890D01*
X143701673Y-124753552D01*
X143688847Y-124744924D01*
X143675761Y-124737008D01*
X143662585Y-124729702D01*
X143649528Y-124722865D01*
X143636589Y-124716497D01*
X143623769Y-124710599D01*
X143611067Y-124705171D01*
X143598484Y-124700214D01*
X143586019Y-124695727D01*
X143573672Y-124691711D01*
X143561442Y-124688167D01*
X143549331Y-124685094D01*
X143537337Y-124682493D01*
X143525460Y-124680364D01*
X143513700Y-124678708D01*
X143502058Y-124677524D01*
X143490532Y-124676814D01*
X143479123Y-124676577D01*
X143451228Y-124677162D01*
X143424218Y-124678915D01*
X143398092Y-124681838D01*
X143372851Y-124685929D01*
X143348494Y-124691190D01*
X143325022Y-124697619D01*
X143302434Y-124705218D01*
X143280732Y-124713986D01*
X143259914Y-124723923D01*
X143239981Y-124735030D01*
X143220934Y-124747305D01*
X143202771Y-124760751D01*
X143185494Y-124775365D01*
X143169102Y-124791149D01*
X143153596Y-124808103D01*
X143138975Y-124826225D01*
X143125239Y-124845518D01*
X143112389Y-124865980D01*
X143100425Y-124887612D01*
X143089346Y-124910413D01*
X143079154Y-124934384D01*
X143069847Y-124959525D01*
X143061426Y-124985835D01*
X143053891Y-125013316D01*
X143047243Y-125041966D01*
X143041480Y-125071786D01*
X143036604Y-125102776D01*
X143032615Y-125134936D01*
X143029511Y-125168266D01*
X143027295Y-125202766D01*
X143025965Y-125238436D01*
X143025521Y-125275276D01*
X143025970Y-125308862D01*
X143027317Y-125341595D01*
X143029561Y-125373475D01*
X143032703Y-125404504D01*
X143036742Y-125434681D01*
X143041678Y-125464007D01*
X143047512Y-125492483D01*
X143054242Y-125520108D01*
X143061869Y-125546885D01*
X143070392Y-125572811D01*
X143079812Y-125597890D01*
X143090128Y-125622120D01*
X143101340Y-125645503D01*
X143113447Y-125668038D01*
X143126451Y-125689726D01*
X143140350Y-125710569D01*
X143155143Y-125730350D01*
X143170786Y-125748857D01*
X143187280Y-125766088D01*
X143204624Y-125782044D01*
X143213616Y-125789544D01*
X143222820Y-125796725D01*
X143232237Y-125803586D01*
X143241866Y-125810129D01*
X143251708Y-125816353D01*
X143261763Y-125822258D01*
X143272031Y-125827844D01*
X143282511Y-125833111D01*
X143304110Y-125842687D01*
X143326559Y-125850987D01*
X143349859Y-125858011D01*
X143374011Y-125863758D01*
X143399012Y-125868228D01*
X143424865Y-125871421D01*
X143451569Y-125873337D01*
X143479123Y-125873975D01*
X143515485Y-125872841D01*
X143550476Y-125869437D01*
X143584096Y-125863763D01*
X143616346Y-125855822D01*
X143647225Y-125845611D01*
X143676733Y-125833133D01*
X143704872Y-125818387D01*
X143731641Y-125801374D01*
X143757041Y-125782093D01*
X143781072Y-125760546D01*
X143803735Y-125736732D01*
X143825029Y-125710651D01*
X143844955Y-125682305D01*
X143863514Y-125651694D01*
X143880705Y-125618817D01*
X143896530Y-125583675D01*
X144313725Y-125795341D01*
X144296694Y-125825941D01*
X144278859Y-125855711D01*
X144260221Y-125884651D01*
X144240779Y-125912760D01*
X144220533Y-125940040D01*
X144199484Y-125966490D01*
X144177631Y-125992111D01*
X144154975Y-126016903D01*
X144131514Y-126040867D01*
X144107250Y-126064003D01*
X144082183Y-126086311D01*
X144056312Y-126107791D01*
X144029637Y-126128444D01*
X144002158Y-126148270D01*
X143973876Y-126167270D01*
X143944790Y-126185443D01*
X143915149Y-126202666D01*
X143885125Y-126218776D01*
X143854717Y-126233772D01*
X143823926Y-126247656D01*
X143792753Y-126260428D01*
X143761197Y-126272087D01*
X143729260Y-126282634D01*
X143696941Y-126292070D01*
X143664242Y-126300394D01*
X143631162Y-126307608D01*
X143597703Y-126313711D01*
X143563864Y-126318703D01*
X143529646Y-126322586D01*
X143495050Y-126325359D01*
X143460076Y-126327022D01*
X143424725Y-126327577D01*
X143368715Y-126326492D01*
X143314072Y-126323235D01*
X143260796Y-126317807D01*
X143208889Y-126310207D01*
X143158351Y-126300434D01*
X143109181Y-126288487D01*
X143061381Y-126274366D01*
X143014951Y-126258071D01*
X142969892Y-126239600D01*
X142926203Y-126218953D01*
X142883886Y-126196129D01*
X142842941Y-126171129D01*
X142803368Y-126143950D01*
X142765168Y-126114593D01*
X142728341Y-126083057D01*
X142692887Y-126049341D01*
X142659208Y-126013724D01*
X142627701Y-125976405D01*
X142598367Y-125937386D01*
X142571206Y-125896665D01*
X142546217Y-125854243D01*
X142523402Y-125810120D01*
X142502759Y-125764297D01*
X142484290Y-125716773D01*
X142467993Y-125667549D01*
X142453869Y-125616624D01*
X142441919Y-125564000D01*
X142432141Y-125509675D01*
X142424535Y-125453651D01*
X142419103Y-125395928D01*
X142415844Y-125336504D01*
X142414757Y-125275382D01*
X142415856Y-125215679D01*
X142419153Y-125157539D01*
X142424646Y-125100961D01*
X142432337Y-125045943D01*
X142442225Y-124992487D01*
X142454310Y-124940591D01*
X142468592Y-124890255D01*
X142485070Y-124841478D01*
X142503745Y-124794261D01*
X142524616Y-124748602D01*
X142547684Y-124704501D01*
X142572947Y-124661957D01*
X142600406Y-124620971D01*
X142630061Y-124581541D01*
X142661911Y-124543667D01*
X142695957Y-124507349D01*
X142731679Y-124472938D01*
X142768560Y-124440744D01*
X142806600Y-124410769D01*
X142845798Y-124383012D01*
X142886156Y-124357473D01*
X142927673Y-124334154D01*
X142970349Y-124313055D01*
X143014184Y-124294175D01*
X143059179Y-124277515D01*
X143105334Y-124263075D01*
X143152649Y-124250856D01*
X143201124Y-124240858D01*
X143250759Y-124233081D01*
X143301554Y-124227526D01*
X143353510Y-124224192D01*
X143406627Y-124223081D01*
X143483872Y-124224957D01*
G37*
%TD.AperFunction*%
%TA.AperFunction,EtchedComponent*%
G36*
X145443231Y-124224957D02*
G01*
X145517606Y-124230666D01*
X145589149Y-124240206D01*
X145657859Y-124253577D01*
X145723736Y-124270780D01*
X145786779Y-124291813D01*
X145846988Y-124316677D01*
X145904360Y-124345371D01*
X145958896Y-124377895D01*
X146010595Y-124414249D01*
X146059456Y-124454431D01*
X146105478Y-124498443D01*
X146148661Y-124546283D01*
X146189003Y-124597951D01*
X146226504Y-124653448D01*
X146261164Y-124712772D01*
X146261163Y-124712772D01*
X145813594Y-124948675D01*
X145804394Y-124930154D01*
X145794932Y-124912337D01*
X145785207Y-124895222D01*
X145775221Y-124878811D01*
X145764974Y-124863105D01*
X145754467Y-124848104D01*
X145743699Y-124833809D01*
X145732671Y-124820219D01*
X145721385Y-124807337D01*
X145709839Y-124795163D01*
X145698036Y-124783696D01*
X145685974Y-124772938D01*
X145673655Y-124762890D01*
X145661079Y-124753552D01*
X145648247Y-124744924D01*
X145635159Y-124737008D01*
X145621940Y-124729702D01*
X145608792Y-124722865D01*
X145595718Y-124716497D01*
X145582717Y-124710599D01*
X145569790Y-124705171D01*
X145556937Y-124700214D01*
X145544159Y-124695727D01*
X145531456Y-124691711D01*
X145518828Y-124688167D01*
X145506277Y-124685094D01*
X145493802Y-124682493D01*
X145481405Y-124680364D01*
X145469085Y-124678708D01*
X145456843Y-124677524D01*
X145444679Y-124676814D01*
X145432594Y-124676577D01*
X145404690Y-124677162D01*
X145377670Y-124678915D01*
X145351536Y-124681838D01*
X145326287Y-124685929D01*
X145301923Y-124691190D01*
X145278444Y-124697619D01*
X145255850Y-124705218D01*
X145234142Y-124713986D01*
X145213319Y-124723923D01*
X145193381Y-124735030D01*
X145174329Y-124747305D01*
X145156163Y-124760751D01*
X145138882Y-124775365D01*
X145122487Y-124791149D01*
X145106977Y-124808103D01*
X145092353Y-124826225D01*
X145078615Y-124845518D01*
X145065763Y-124865980D01*
X145053797Y-124887612D01*
X145042717Y-124910413D01*
X145032523Y-124934384D01*
X145023215Y-124959525D01*
X145014794Y-124985835D01*
X145007258Y-125013316D01*
X145000609Y-125041966D01*
X144994846Y-125071786D01*
X144989970Y-125102776D01*
X144985980Y-125134936D01*
X144982877Y-125168266D01*
X144980660Y-125202766D01*
X144979330Y-125238436D01*
X144978887Y-125275276D01*
X144979337Y-125308862D01*
X144980687Y-125341595D01*
X144982936Y-125373475D01*
X144986085Y-125404504D01*
X144990132Y-125434681D01*
X144995077Y-125464007D01*
X145000920Y-125492483D01*
X145007660Y-125520108D01*
X145015297Y-125546885D01*
X145023830Y-125572811D01*
X145033258Y-125597890D01*
X145043582Y-125622120D01*
X145054801Y-125645503D01*
X145066914Y-125668038D01*
X145079921Y-125689726D01*
X145093821Y-125710569D01*
X145108594Y-125730350D01*
X145124218Y-125748857D01*
X145140693Y-125766088D01*
X145149251Y-125774226D01*
X145158021Y-125782044D01*
X145167005Y-125789544D01*
X145176201Y-125796725D01*
X145185611Y-125803586D01*
X145195235Y-125810129D01*
X145205072Y-125816353D01*
X145215122Y-125822258D01*
X145225386Y-125827844D01*
X145235863Y-125833111D01*
X145257459Y-125842687D01*
X145279909Y-125850987D01*
X145303216Y-125858011D01*
X145327378Y-125863758D01*
X145352396Y-125868228D01*
X145378271Y-125871421D01*
X145405004Y-125873337D01*
X145432594Y-125873975D01*
X145468920Y-125872841D01*
X145503882Y-125869437D01*
X145537478Y-125863763D01*
X145569708Y-125855822D01*
X145600571Y-125845611D01*
X145630067Y-125833133D01*
X145658195Y-125818387D01*
X145684954Y-125801374D01*
X145710344Y-125782093D01*
X145734364Y-125760546D01*
X145757014Y-125736732D01*
X145778292Y-125710651D01*
X145798199Y-125682305D01*
X145816734Y-125651694D01*
X145833895Y-125618817D01*
X145849684Y-125583675D01*
X146273017Y-125795341D01*
X146255273Y-125825941D01*
X146236768Y-125855711D01*
X146217504Y-125884651D01*
X146197480Y-125912760D01*
X146176698Y-125940040D01*
X146155158Y-125966490D01*
X146132861Y-125992111D01*
X146109808Y-126016903D01*
X146086000Y-126040867D01*
X146061438Y-126064003D01*
X146036122Y-126086311D01*
X146010052Y-126107791D01*
X145983231Y-126128444D01*
X145955658Y-126148270D01*
X145927334Y-126167270D01*
X145898261Y-126185443D01*
X145868608Y-126202666D01*
X145838626Y-126218776D01*
X145808313Y-126233772D01*
X145777670Y-126247656D01*
X145746698Y-126260428D01*
X145715396Y-126272087D01*
X145683764Y-126282634D01*
X145651802Y-126292070D01*
X145619510Y-126300394D01*
X145586888Y-126307608D01*
X145553936Y-126313711D01*
X145520654Y-126318703D01*
X145487043Y-126322586D01*
X145453101Y-126325359D01*
X145418830Y-126327022D01*
X145384229Y-126327577D01*
X145327484Y-126326492D01*
X145272185Y-126323235D01*
X145218332Y-126317807D01*
X145165924Y-126310207D01*
X145114961Y-126300434D01*
X145065443Y-126288487D01*
X145017368Y-126274366D01*
X144970738Y-126258071D01*
X144925551Y-126239600D01*
X144881808Y-126218953D01*
X144839507Y-126196129D01*
X144798650Y-126171129D01*
X144759234Y-126143950D01*
X144721261Y-126114593D01*
X144684730Y-126083057D01*
X144649640Y-126049341D01*
X144616270Y-126013724D01*
X144585057Y-125976405D01*
X144556002Y-125937386D01*
X144529102Y-125896665D01*
X144504358Y-125854243D01*
X144481769Y-125810120D01*
X144461334Y-125764297D01*
X144443053Y-125716773D01*
X144426925Y-125667549D01*
X144412949Y-125616624D01*
X144401125Y-125564000D01*
X144391453Y-125509675D01*
X144383930Y-125453651D01*
X144378558Y-125395928D01*
X144375335Y-125336504D01*
X144374261Y-125275382D01*
X144375359Y-125215679D01*
X144378652Y-125157539D01*
X144384142Y-125100961D01*
X144391828Y-125045943D01*
X144401711Y-124992487D01*
X144413792Y-124940591D01*
X144428071Y-124890255D01*
X144444548Y-124841478D01*
X144463224Y-124794261D01*
X144484099Y-124748602D01*
X144507175Y-124704501D01*
X144532451Y-124661957D01*
X144559927Y-124620971D01*
X144589605Y-124581541D01*
X144621484Y-124543667D01*
X144655566Y-124507349D01*
X144691270Y-124472938D01*
X144728135Y-124440744D01*
X144766160Y-124410769D01*
X144805345Y-124383012D01*
X144845691Y-124357473D01*
X144887197Y-124334154D01*
X144929863Y-124313055D01*
X144973688Y-124294175D01*
X145018673Y-124277515D01*
X145064818Y-124263075D01*
X145112122Y-124250856D01*
X145160585Y-124240858D01*
X145210207Y-124233081D01*
X145260988Y-124227526D01*
X145312927Y-124224192D01*
X145366026Y-124223081D01*
X145443231Y-124224957D01*
G37*
%TD.AperFunction*%
%TA.AperFunction,EtchedComponent*%
%TO.C,LOGO401*%
G36*
X136060000Y-125590000D02*
G01*
X137660000Y-125590000D01*
X137660000Y-125790000D01*
X136060000Y-125790000D01*
X136060000Y-125590000D01*
G37*
%TD.AperFunction*%
D12*
X136260000Y-124590000D02*
X137460000Y-124590000D01*
X137460000Y-125590000D01*
X136260000Y-125590000D01*
X136260000Y-124590000D01*
%TA.AperFunction,EtchedComponent*%
G36*
X136260000Y-124590000D02*
G01*
X137460000Y-124590000D01*
X137460000Y-125590000D01*
X136260000Y-125590000D01*
X136260000Y-124590000D01*
G37*
%TD.AperFunction*%
%TA.AperFunction,EtchedComponent*%
G36*
X136410000Y-125390000D02*
G01*
X137310000Y-125390000D01*
X137310000Y-127240000D01*
X136410000Y-127240000D01*
X136410000Y-125390000D01*
G37*
%TD.AperFunction*%
X137060000Y-123800000D02*
G75*
G02*
X136660000Y-123800000I-200000J0D01*
G01*
X136660000Y-123800000D02*
G75*
G02*
X137060000Y-123800000I200000J0D01*
G01*
X139360640Y-125390000D02*
G75*
G02*
X134360640Y-125390000I-2500000J0D01*
G01*
X134360640Y-125390000D02*
G75*
G02*
X139360640Y-125390000I2500000J0D01*
G01*
%TD*%
D13*
%TO.P,R401,1*%
%TO.N,/Phantom Power Management/+48V_PH_SW*%
X147766908Y-79383797D03*
%TO.P,R401,2*%
%TO.N,/Phantom Power Management/+48V_PH_SW_R*%
X148786908Y-79383797D03*
%TD*%
D14*
%TO.P,D413,1,K*%
%TO.N,/Input Gating/In-_SW*%
X124295000Y-98550000D03*
%TO.P,D413,2,A*%
%TO.N,Net-(D413-A)*%
X124295000Y-101850000D03*
%TD*%
D15*
%TO.P,D414,2,A*%
%TO.N,GND*%
X113445000Y-106875000D03*
%TO.P,D414,1,K*%
%TO.N,/Amplifier/AMP_OUT-*%
X116745000Y-106875000D03*
%TD*%
D16*
%TO.P,C412,2*%
%TO.N,Net-(D413-A)*%
X140000000Y-108000000D03*
D17*
%TO.P,C412,1*%
%TO.N,/Amplifier/RG1*%
X145000000Y-108000000D03*
%TD*%
D18*
%TO.P,R426,1*%
%TO.N,/Amplifier/Line Out-*%
X97450000Y-118400000D03*
%TO.P,R426,2*%
%TO.N,/Amplifier/AMP_OUT_FLT-*%
X101850000Y-118400000D03*
%TD*%
D19*
%TO.P,Q402,1,D*%
%TO.N,+5V_USB*%
X90947500Y-72545000D03*
%TO.P,Q402,2,G*%
%TO.N,/Hardware & IO Connectors/USB_G_P*%
X89047500Y-72545000D03*
%TO.P,Q402,3,S*%
%TO.N,/Hardware & IO Connectors/USB_PWR*%
X89997500Y-74820000D03*
%TD*%
D20*
%TO.P,C430,1*%
%TO.N,+48V*%
X114002754Y-84669274D03*
%TO.P,C430,2*%
%TO.N,/48V Regulator/+48V_FB*%
X113042754Y-84669274D03*
%TD*%
D21*
%TO.P,SW401,B2*%
%TO.N,GND1*%
X111380000Y-97850000D03*
%TO.P,SW401,B1*%
%TO.N,/Input Gating/+48V_PH*%
X113920000Y-97850000D03*
%TO.P,SW401,A2*%
%TO.N,/Hardware & IO Connectors/USB_CC_R*%
X111380000Y-88950000D03*
%TO.P,SW401,A1*%
%TO.N,/Phantom Power Management/+48V_PH_SW*%
X113920000Y-88950000D03*
%TD*%
D22*
%TO.P,R437,2*%
%TO.N,GND1*%
X94777565Y-75750000D03*
%TO.P,R437,1*%
%TO.N,Earth*%
X94777565Y-78675000D03*
%TD*%
D17*
%TO.P,C401,1*%
%TO.N,/Phantom Power Management/+48V_FLT*%
X132502323Y-86500000D03*
D16*
%TO.P,C401,2*%
%TO.N,/Phantom Power Management/+48V_FLT_N*%
X137502323Y-86500000D03*
%TD*%
D23*
%TO.P,Q404,1,D*%
%TO.N,/48V Regulator/+48V_SW*%
X118872753Y-78244874D03*
%TO.P,Q404,2*%
X118222755Y-78244874D03*
%TO.P,Q404,3*%
X117572753Y-78244874D03*
%TO.P,Q404,4,G*%
%TO.N,/48V Regulator/+48V_G*%
X116922755Y-78244874D03*
%TO.P,Q404,5,S*%
%TO.N,/48V Regulator/+48V_G_R*%
X116922755Y-81343674D03*
%TO.P,Q404,6*%
X117572753Y-81343674D03*
%TO.P,Q404,7*%
X118222755Y-81343674D03*
%TO.P,Q404,8*%
X118872753Y-81343674D03*
%TD*%
D24*
%TO.P,D409,1,K*%
%TO.N,/Amplifier/+35V_AMP*%
X119295000Y-98475000D03*
%TO.P,D409,2,A*%
%TO.N,/Input Gating/In-_SW*%
X122095000Y-98475000D03*
%TD*%
D25*
%TO.P,D411,1,K*%
%TO.N,/Input Gating/In-_SW*%
X126895000Y-99075000D03*
%TO.P,D411,2,A*%
%TO.N,GND*%
X126895000Y-96275000D03*
%TD*%
D16*
%TO.P,C403,2*%
%TO.N,GND*%
X131897677Y-74190000D03*
D17*
%TO.P,C403,1*%
%TO.N,/Phantom Power Management/+48V_PH_SW*%
X136897677Y-74190000D03*
%TD*%
D26*
%TO.P,C411,1*%
%TO.N,/Input Gating/PH_CAP*%
X99566940Y-90887106D03*
%TO.P,C411,2*%
%TO.N,GND*%
X100526940Y-90887106D03*
%TD*%
D27*
%TO.P,R425,1*%
%TO.N,/Input Gating/In+_SW*%
X124895000Y-109212500D03*
%TO.P,R425,2*%
%TO.N,Net-(R424-Pad2)*%
X124895000Y-112137500D03*
%TD*%
D28*
%TO.P,C405,1*%
%TO.N,/Amplifier/+35V_AMP*%
X116350000Y-100675000D03*
%TO.P,C405,2*%
%TO.N,GND*%
X116350000Y-103625000D03*
%TD*%
D24*
%TO.P,D408,1,K*%
%TO.N,/Amplifier/+35V_AMP*%
X119295000Y-96075000D03*
%TO.P,D408,2,A*%
%TO.N,/Input Gating/In+_SW*%
X122095000Y-96075000D03*
%TD*%
D29*
%TO.P,J408,T*%
%TO.N,/Amplifier/Line Out+*%
X77070000Y-121350000D03*
%TO.P,J408,S*%
%TO.N,Earth*%
X75970000Y-114850000D03*
%TO.P,J408,R2*%
%TO.N,/Amplifier/Line Out+*%
X84070000Y-121350000D03*
%TO.P,J408,R1*%
X81070000Y-121350000D03*
%TD*%
D30*
%TO.P,FB401,2*%
%TO.N,/Phantom Power Management/+48V_FLT_N*%
X136562500Y-93080000D03*
%TO.P,FB401,1*%
%TO.N,GND*%
X134437500Y-93080000D03*
%TD*%
D27*
%TO.P,R424,1*%
%TO.N,/Input Gating/In-_SW*%
X126895000Y-100812500D03*
%TO.P,R424,2*%
%TO.N,Net-(R424-Pad2)*%
X126895000Y-103737500D03*
%TD*%
D17*
%TO.P,C406,1*%
%TO.N,/Phantom Power Management/+35V_AMP_G*%
X148252323Y-100210000D03*
D16*
%TO.P,C406,2*%
%TO.N,GND*%
X153252323Y-100210000D03*
%TD*%
D31*
%TO.P,R438,1*%
%TO.N,/Hardware & IO Connectors/USB_SW*%
X94812500Y-70175000D03*
%TO.P,R438,2*%
%TO.N,/Hardware & IO Connectors/USB_G_N*%
X92987500Y-70175000D03*
%TD*%
D32*
%TO.P,C400,1*%
%TO.N,+48V*%
X121475000Y-88800000D03*
%TO.P,C400,2*%
%TO.N,GND*%
X118525000Y-88800000D03*
%TD*%
D33*
%TO.P,C414,2*%
%TO.N,/Amplifier/AMP_OUT_FLT-*%
X108680000Y-120250000D03*
D34*
%TO.P,C414,1*%
%TO.N,/Amplifier/AMP_OUT-*%
X108680000Y-116750000D03*
%TD*%
D35*
%TO.P,SW400,6,C*%
%TO.N,/Input Gating/+48V_PH*%
X174802509Y-127548923D03*
%TO.P,SW400,5,B*%
%TO.N,/Phantom Power Management/+48V_PH_SW*%
X177291709Y-127548923D03*
%TO.P,SW400,4,A*%
%TO.N,Net-(SW400B-A)*%
X179780909Y-127548923D03*
%TO.P,SW400,3,C*%
%TO.N,/Phantom Power Management/+48V_PH_SW_R*%
X174802509Y-130038123D03*
%TO.P,SW400,2,B*%
%TO.N,/Phantom Power Management/+48V_PH_R*%
X177291709Y-130038123D03*
%TO.P,SW400,1,A*%
%TO.N,unconnected-(SW400A-A-Pad1)*%
X179780909Y-130038123D03*
%TD*%
D33*
%TO.P,C407,1*%
%TO.N,/Hardware & IO Connectors/XLR In+*%
X100500000Y-85000000D03*
%TO.P,C407,2*%
%TO.N,/Input Gating/In+_R*%
X105500000Y-85000000D03*
%TD*%
D36*
%TO.P,R427,1*%
%TO.N,/Amplifier/Line Out-*%
X97425000Y-125800000D03*
%TO.P,R427,2*%
%TO.N,GND*%
X102325000Y-125800000D03*
%TD*%
D37*
%TO.P,C426,1*%
%TO.N,+48V*%
X121797754Y-86269274D03*
%TO.P,C426,2*%
%TO.N,GND1*%
X124747754Y-86269274D03*
%TD*%
D38*
%TO.P,MH402,1,1*%
%TO.N,Earth*%
X99680000Y-131200000D03*
%TD*%
D39*
%TO.P,Q401,1,C*%
%TO.N,/Phantom Power Management/+48V_FLT*%
X143620000Y-89135000D03*
%TO.P,Q401,2,B*%
%TO.N,/Phantom Power Management/+35V_AMP_G*%
X141720000Y-89135000D03*
%TO.P,Q401,3,E*%
%TO.N,/Amplifier/+35V_AMP*%
X142670000Y-91010000D03*
%TD*%
D15*
%TO.P,D401,1,K*%
%TO.N,/Phantom Power Management/+48V_PH_SW*%
X144947500Y-76750000D03*
%TO.P,D401,2,A*%
%TO.N,/Phantom Power Management/+48V_PH_G*%
X141647500Y-76750000D03*
%TD*%
D40*
%TO.P,F400,1*%
%TO.N,+48V*%
X123153010Y-88339825D03*
%TO.P,F400,2*%
%TO.N,/Phantom Power Management/+48V_FLT_R*%
X124703010Y-88339825D03*
%TD*%
D41*
%TO.P,D406,1,K*%
%TO.N,/Phantom Power Management/+35V_AMP_G*%
X144090000Y-93250000D03*
%TO.P,D406,2,A*%
%TO.N,Net-(D406-A)*%
X147390000Y-93250000D03*
%TD*%
D27*
%TO.P,R406,1*%
%TO.N,/Input Gating/+48V_PH*%
X96400000Y-84737500D03*
%TO.P,R406,2*%
%TO.N,/Hardware & IO Connectors/XLR In+*%
X96400000Y-87662500D03*
%TD*%
D38*
%TO.P,MH400,1,1*%
%TO.N,Earth*%
X99680000Y-69200000D03*
%TD*%
D42*
%TO.P,Q403,1,D*%
%TO.N,/Hardware & IO Connectors/USB_G_P*%
X89037490Y-70468888D03*
%TO.P,Q403,2,G*%
%TO.N,/Hardware & IO Connectors/USB_G_N*%
X90937490Y-70468888D03*
%TO.P,Q403,3,S*%
%TO.N,GND1*%
X89987490Y-68193888D03*
%TD*%
D43*
%TO.P,C419,1*%
%TO.N,GND*%
X146009695Y-69983093D03*
%TO.P,C419,2*%
%TO.N,Earth*%
X146009695Y-67033093D03*
%TD*%
D44*
%TO.P,D404,3,A2*%
%TO.N,/Phantom Power Management/PH_LED_GR_R*%
X202800000Y-128860000D03*
%TO.P,D404,2,K*%
%TO.N,/Phantom Power Management/GND_R*%
X205340000Y-128860000D03*
D45*
%TO.P,D404,1,A1*%
%TO.N,/Phantom Power Management/PH_LED_RED_R*%
X207880000Y-128860000D03*
%TD*%
D46*
%TO.P,R410,1*%
%TO.N,/Input Gating/In-_SW*%
X122062500Y-93600000D03*
%TO.P,R410,2*%
%TO.N,/Input Gating/In-_R*%
X119137500Y-93600000D03*
%TD*%
D47*
%TO.P,SW403,D*%
%TO.N,N/C*%
X202605418Y-97458597D03*
%TO.P,SW403,C*%
X197154578Y-97458597D03*
%TO.P,SW403,B*%
X197154578Y-102909437D03*
D48*
%TO.P,SW403,A,A*%
%TO.N,/Amplifier/RG2_R*%
X202605418Y-102909437D03*
%TO.P,SW403,12,12*%
%TO.N,Net-(R421-Pad1)*%
X210603878Y-97308737D03*
%TO.P,SW403,11,11*%
%TO.N,Net-(R420-Pad1)*%
X207731138Y-92332877D03*
%TO.P,SW403,10,10*%
%TO.N,Net-(R419-Pad1)*%
X202755278Y-89460137D03*
%TO.P,SW403,9,9*%
%TO.N,Net-(R418-Pad1)*%
X197004718Y-89460137D03*
%TO.P,SW403,8,8*%
%TO.N,Net-(R417-Pad1)*%
X192028858Y-92332877D03*
%TO.P,SW403,7,7*%
%TO.N,Net-(R416-Pad1)*%
X189156118Y-97308737D03*
%TO.P,SW403,6,6*%
%TO.N,Net-(R415-Pad1)*%
X189156118Y-103059297D03*
%TO.P,SW403,5,5*%
%TO.N,Net-(R414-Pad1)*%
X192028858Y-108035157D03*
%TO.P,SW403,4,4*%
%TO.N,Net-(R413-Pad1)*%
X197004718Y-110907897D03*
%TO.P,SW403,3,3*%
%TO.N,Net-(R412-Pad1)*%
X202755278Y-110907897D03*
%TO.P,SW403,2,2*%
%TO.N,Net-(R411-Pad1)*%
X207731138Y-108035157D03*
%TO.P,SW403,1,1*%
%TO.N,Net-(R411-Pad2)*%
X210603878Y-103059297D03*
%TD*%
D16*
%TO.P,C402,2*%
%TO.N,GND*%
X153252323Y-86500000D03*
D17*
%TO.P,C402,1*%
%TO.N,/Phantom Power Management/+48V_PH_G*%
X148252323Y-86500000D03*
%TD*%
D49*
%TO.P,U400,1,RG1*%
%TO.N,Net-(D413-A)*%
X122200000Y-102000000D03*
%TO.P,U400,2,-*%
%TO.N,/Input Gating/In-_SW*%
X120930000Y-102000000D03*
%TO.P,U400,3,+*%
%TO.N,/Input Gating/In+_SW*%
X119660000Y-102000000D03*
%TO.P,U400,4,V-*%
%TO.N,GND*%
X118390000Y-102000000D03*
%TO.P,U400,5,REF*%
%TO.N,/Amplifier/AMP_OUT-*%
X118390000Y-106950000D03*
%TO.P,U400,6*%
%TO.N,/Amplifier/AMP_OUT+*%
X119660000Y-106950000D03*
%TO.P,U400,7,V+*%
%TO.N,/Amplifier/+35V_AMP*%
X120930000Y-106950000D03*
%TO.P,U400,8,RG2*%
%TO.N,/Amplifier/RG2*%
X122200000Y-106950000D03*
%TD*%
D33*
%TO.P,C408,1*%
%TO.N,/Hardware & IO Connectors/XLR In-*%
X100500000Y-97400000D03*
%TO.P,C408,2*%
%TO.N,/Input Gating/In-_R*%
X105500000Y-97400000D03*
%TD*%
D37*
%TO.P,C425,1*%
%TO.N,+48V*%
X121797754Y-83894274D03*
%TO.P,C425,2*%
%TO.N,GND1*%
X124747754Y-83894274D03*
%TD*%
D15*
%TO.P,D405,1,K*%
%TO.N,/Phantom Power Management/+35V_AMP_G*%
X142542500Y-93250000D03*
%TO.P,D405,2,A*%
%TO.N,/Amplifier/+35V_AMP*%
X139242500Y-93250000D03*
%TD*%
D33*
%TO.P,C413,2*%
%TO.N,/Amplifier/AMP_OUT_FLT+*%
X117680000Y-120097349D03*
D34*
%TO.P,C413,1*%
%TO.N,/Amplifier/AMP_OUT+*%
X117680000Y-116597349D03*
%TD*%
D50*
%TO.P,D415,2,A*%
%TO.N,/48V Regulator/+48V_SW*%
X121622754Y-72894274D03*
%TO.P,D415,1,K*%
%TO.N,+48V*%
X121622754Y-76894274D03*
%TD*%
D51*
%TO.P,C409,1*%
%TO.N,/Hardware & IO Connectors/XLR In-*%
X96350000Y-92000000D03*
%TO.P,C409,2*%
%TO.N,/Input Gating/PH_CAP*%
X98250000Y-92000000D03*
%TD*%
D18*
%TO.P,R423,1*%
%TO.N,/Amplifier/Line Out+*%
X97450000Y-113875000D03*
%TO.P,R423,2*%
%TO.N,/Amplifier/AMP_OUT_FLT+*%
X101850000Y-113875000D03*
%TD*%
D14*
%TO.P,D403,1,K*%
%TO.N,/Phantom Power Management/+48V_FLT*%
X141730000Y-83800000D03*
%TO.P,D403,2,A*%
%TO.N,/Phantom Power Management/+35V_AMP_G*%
X141730000Y-87100000D03*
%TD*%
D52*
%TO.P,C418,1*%
%TO.N,GND*%
X145962033Y-130710668D03*
%TO.P,C418,2*%
%TO.N,Earth*%
X145962033Y-133660668D03*
%TD*%
D53*
%TO.P,L400,1,1*%
%TO.N,+5V_USB*%
X112497754Y-72650000D03*
%TO.P,L400,2,2*%
%TO.N,/48V Regulator/+48V_SW*%
X118897754Y-72650000D03*
%TD*%
D36*
%TO.P,R429,1*%
%TO.N,/Amplifier/+35V_AMP*%
X122380000Y-109875000D03*
%TO.P,R429,2*%
%TO.N,/Amplifier/AMP_OUT-*%
X117480000Y-109875000D03*
%TD*%
D54*
%TO.P,D400,1,K*%
%TO.N,/Phantom Power Management/+48V_FLT*%
X140170000Y-82117500D03*
%TO.P,D400,2,A*%
%TO.N,/Phantom Power Management/+48V_PH_G*%
X140170000Y-78817500D03*
%TD*%
D46*
%TO.P,R409,1*%
%TO.N,/Input Gating/In+_SW*%
X120662500Y-91200000D03*
%TO.P,R409,2*%
%TO.N,/Input Gating/In+_R*%
X117737500Y-91200000D03*
%TD*%
D13*
%TO.P,R446,1*%
%TO.N,/48V Regulator/+48V_RT*%
X114512754Y-83669274D03*
%TO.P,R446,2*%
%TO.N,GND1*%
X115532754Y-83669274D03*
%TD*%
D33*
%TO.P,C416,1*%
%TO.N,/Amplifier/Line Out+*%
X97460000Y-109830000D03*
%TO.P,C416,2*%
%TO.N,GND*%
X102460000Y-109830000D03*
%TD*%
D36*
%TO.P,R408,1*%
%TO.N,/Input Gating/+48V_PH*%
X113800000Y-101700000D03*
%TO.P,R408,2*%
%TO.N,GND*%
X108900000Y-101700000D03*
%TD*%
D55*
%TO.P,R405,1*%
%TO.N,/Phantom Power Management/+48V_FLT*%
X144160000Y-84070000D03*
%TO.P,R405,2*%
%TO.N,/Phantom Power Management/+35V_AMP_G*%
X144160000Y-87070000D03*
%TD*%
D56*
%TO.P,Q400,1,C*%
%TO.N,/Phantom Power Management/+48V_FLT*%
X144567500Y-81257500D03*
%TO.P,Q400,2,B*%
%TO.N,/Phantom Power Management/+48V_PH_G*%
X146467500Y-81257500D03*
%TO.P,Q400,3,E*%
%TO.N,/Phantom Power Management/+48V_PH_SW*%
X145517500Y-79382500D03*
%TD*%
D22*
%TO.P,R431,1*%
%TO.N,Earth*%
X143162033Y-133648168D03*
%TO.P,R431,2*%
%TO.N,GND*%
X143162033Y-130723168D03*
%TD*%
D57*
%TO.P,R403,1*%
%TO.N,Net-(SW400B-A)*%
X171745000Y-120035000D03*
%TO.P,R403,2*%
%TO.N,/Phantom Power Management/PH_LED_RED*%
X174745000Y-120035000D03*
%TD*%
D22*
%TO.P,R407,1*%
%TO.N,/Input Gating/+48V_PH*%
X96400000Y-97262500D03*
%TO.P,R407,2*%
%TO.N,/Hardware & IO Connectors/XLR In-*%
X96400000Y-94337500D03*
%TD*%
D58*
%TO.P,R444,1*%
%TO.N,+48V*%
X114057754Y-85669274D03*
%TO.P,R444,2*%
%TO.N,/48V Regulator/+48V_FB*%
X113037754Y-85669274D03*
%TD*%
D27*
%TO.P,R432,1*%
%TO.N,Earth*%
X143176783Y-67046772D03*
%TO.P,R432,2*%
%TO.N,GND*%
X143176783Y-69971772D03*
%TD*%
D59*
%TO.P,C420,1*%
%TO.N,GND*%
X127905000Y-75480000D03*
%TO.P,C420,2*%
%TO.N,GND1*%
X124955000Y-75480000D03*
%TD*%
D43*
%TO.P,C421,2*%
%TO.N,GND1*%
X97589767Y-75725000D03*
%TO.P,C421,1*%
%TO.N,Earth*%
X97589767Y-78675000D03*
%TD*%
D60*
%TO.P,R442,1*%
%TO.N,/48V Regulator/+48V_PG*%
X110697754Y-80304274D03*
%TO.P,R442,2*%
%TO.N,/48V Regulator/+48V_VCC*%
X110697754Y-79284274D03*
%TD*%
D51*
%TO.P,C410,1*%
%TO.N,/Hardware & IO Connectors/XLR In+*%
X96350000Y-89750000D03*
%TO.P,C410,2*%
%TO.N,/Input Gating/PH_CAP*%
X98250000Y-89750000D03*
%TD*%
D61*
%TO.P,J409,S1,SHIELD*%
%TO.N,Earth*%
X77435000Y-75770000D03*
D62*
X81635000Y-75770000D03*
D61*
X77435000Y-67130000D03*
D62*
X81635000Y-67130000D03*
D63*
%TO.P,J409,B12,GND*%
%TO.N,GND1*%
X82235000Y-68250000D03*
%TO.P,J409,B9,VBUS*%
%TO.N,/Hardware & IO Connectors/USB_PWR*%
X82235000Y-69050000D03*
D64*
%TO.P,J409,B8*%
%TO.N,N/C*%
X82235000Y-69700000D03*
%TO.P,J409,B7*%
X82235000Y-70700000D03*
%TO.P,J409,B6*%
X82235000Y-72200000D03*
%TO.P,J409,B5,CC2*%
%TO.N,/Hardware & IO Connectors/USB_CC2*%
X82235000Y-73200000D03*
D63*
%TO.P,J409,B4,VBUS*%
%TO.N,/Hardware & IO Connectors/USB_PWR*%
X82235000Y-73850000D03*
%TO.P,J409,B1,GND*%
%TO.N,GND1*%
X82235000Y-74650000D03*
%TO.P,J409,A12,GND*%
X82235000Y-74650000D03*
%TO.P,J409,A9,VBUS*%
%TO.N,/Hardware & IO Connectors/USB_PWR*%
X82235000Y-73850000D03*
D64*
%TO.P,J409,A8*%
%TO.N,N/C*%
X82235000Y-72700000D03*
%TO.P,J409,A7*%
X82235000Y-71700000D03*
%TO.P,J409,A6*%
X82235000Y-71200000D03*
%TO.P,J409,A5,CC1*%
%TO.N,/Hardware & IO Connectors/USB_CC1*%
X82235000Y-70200000D03*
D63*
%TO.P,J409,A4,VBUS*%
%TO.N,/Hardware & IO Connectors/USB_PWR*%
X82235000Y-69050000D03*
%TO.P,J409,A1,GND*%
%TO.N,GND1*%
X82235000Y-68250000D03*
%TD*%
D37*
%TO.P,C427,1*%
%TO.N,+48V*%
X121797754Y-81519274D03*
%TO.P,C427,2*%
%TO.N,GND1*%
X124747754Y-81519274D03*
%TD*%
D51*
%TO.P,C428,1*%
%TO.N,+48V*%
X122347754Y-79319274D03*
%TO.P,C428,2*%
%TO.N,GND1*%
X124247754Y-79319274D03*
%TD*%
D41*
%TO.P,D402,1,K*%
%TO.N,/Phantom Power Management/+48V_FLT_R*%
X125750000Y-90400000D03*
%TO.P,D402,2,A*%
%TO.N,GND*%
X129050000Y-90400000D03*
%TD*%
D35*
%TO.P,SW404,1,A*%
%TO.N,unconnected-(SW404A-A-Pad1)*%
X179768785Y-72839200D03*
%TO.P,SW404,2,B*%
%TO.N,GND1*%
X177279585Y-72839200D03*
%TO.P,SW404,3,C*%
%TO.N,/Hardware & IO Connectors/USB_CC_SW*%
X174790385Y-72839200D03*
%TO.P,SW404,4,A*%
%TO.N,/Hardware & IO Connectors/USB_PWR*%
X179768785Y-70350000D03*
%TO.P,SW404,5,B*%
%TO.N,/Hardware & IO Connectors/USB_SW*%
X177279585Y-70350000D03*
%TO.P,SW404,6,C*%
%TO.N,GND1*%
X174790385Y-70350000D03*
%TD*%
D55*
%TO.P,R402,1*%
%TO.N,/Phantom Power Management/+48V_FLT*%
X142560000Y-81980000D03*
%TO.P,R402,2*%
%TO.N,/Phantom Power Management/+48V_PH_G*%
X142560000Y-78980000D03*
%TD*%
D38*
%TO.P,MH401,1,1*%
%TO.N,Earth*%
X164680000Y-69200000D03*
%TD*%
D65*
%TO.P,J406,G*%
%TO.N,Earth*%
X81960000Y-128140000D03*
%TO.P,J406,3*%
%TO.N,/Amplifier/Line Out-*%
X92130000Y-119890000D03*
D66*
%TO.P,J406,2*%
%TO.N,/Amplifier/Line Out+*%
X88315000Y-116080000D03*
%TO.P,J406,1*%
%TO.N,GND*%
X87680000Y-123700000D03*
%TD*%
D38*
%TO.P,MH403,1,1*%
%TO.N,Earth*%
X164680000Y-131200000D03*
%TD*%
D46*
%TO.P,R430,1*%
%TO.N,Net-(R424-Pad2)*%
X120757500Y-112675000D03*
%TO.P,R430,2*%
%TO.N,/Amplifier/AMP_OUT-*%
X117832500Y-112675000D03*
%TD*%
D67*
%TO.P,R447,1*%
%TO.N,/48V Regulator/+48V_G_R*%
X116775000Y-82800000D03*
%TO.P,R447,2*%
%TO.N,GND1*%
X118425000Y-82800000D03*
%TD*%
D57*
%TO.P,R404,1*%
%TO.N,/Input Gating/+48V_PH*%
X171760000Y-122590000D03*
%TO.P,R404,2*%
%TO.N,/Phantom Power Management/PH_LED_GR*%
X174760000Y-122590000D03*
%TD*%
D13*
%TO.P,R441,1*%
%TO.N,/48V Regulator/+48V_G_P*%
X115934673Y-77074399D03*
%TO.P,R441,2*%
%TO.N,/48V Regulator/+48V_G*%
X116954673Y-77074399D03*
%TD*%
D33*
%TO.P,C415,1*%
%TO.N,/Amplifier/Line Out-*%
X97485000Y-122430000D03*
%TO.P,C415,2*%
%TO.N,GND*%
X102485000Y-122430000D03*
%TD*%
D58*
%TO.P,R448,1*%
%TO.N,/48V Regulator/+48V_FB*%
X112510854Y-83685206D03*
%TO.P,R448,2*%
%TO.N,GND1*%
X111490854Y-83685206D03*
%TD*%
D68*
%TO.P,R440,1*%
%TO.N,/Hardware & IO Connectors/USB_G_N*%
X92985000Y-68195000D03*
%TO.P,R440,2*%
%TO.N,GND1*%
X94810000Y-68195000D03*
%TD*%
D41*
%TO.P,D407,1,K*%
%TO.N,Net-(D406-A)*%
X149002500Y-93240000D03*
%TO.P,D407,2,A*%
%TO.N,GND*%
X152302500Y-93240000D03*
%TD*%
D69*
%TO.P,U401,13,GND*%
%TO.N,GND1*%
X114481101Y-79512999D03*
X113481101Y-79512999D03*
X112481101Y-79512999D03*
D70*
X113481101Y-80012999D03*
D69*
X114481101Y-80512999D03*
X113481101Y-80512999D03*
X112481101Y-80512999D03*
D71*
%TO.P,U401,12,VIN*%
%TO.N,+5V_USB*%
X111856101Y-77862999D03*
%TO.P,U401,11,EN/UVLO*%
X112506101Y-77862999D03*
%TO.P,U401,10,INTVcc*%
%TO.N,/48V Regulator/+48V_VCC*%
X113156101Y-77862999D03*
%TO.P,U401,9,GATEP*%
%TO.N,/48V Regulator/+48V_G_P*%
X113806101Y-77862999D03*
%TO.P,U401,8,GATEN*%
%TO.N,/48V Regulator/+48V_G*%
X114456101Y-77862999D03*
%TO.P,U401,7,SENSE*%
%TO.N,/48V Regulator/+48V_SNS*%
X115106101Y-77862999D03*
%TO.P,U401,6,SYNC/MODE*%
%TO.N,GND1*%
X115106101Y-82162999D03*
%TO.P,U401,5,RT*%
%TO.N,/48V Regulator/+48V_RT*%
X114456101Y-82162999D03*
%TO.P,U401,4,SS*%
%TO.N,/48V Regulator/+48V_SS*%
X113806101Y-82162999D03*
%TO.P,U401,3,PGOOD*%
%TO.N,/48V Regulator/+48V_PG*%
X113156101Y-82162999D03*
%TO.P,U401,2,FB*%
%TO.N,/48V Regulator/+48V_FB*%
X112506101Y-82162999D03*
%TO.P,U401,1,COMP*%
%TO.N,/48V Regulator/+48V_ITH*%
X111856101Y-82162999D03*
%TD*%
D46*
%TO.P,R433,1*%
%TO.N,GND*%
X127880000Y-72667798D03*
%TO.P,R433,2*%
%TO.N,GND1*%
X124955000Y-72667798D03*
%TD*%
D72*
%TO.P,D410,1,K*%
%TO.N,/Input Gating/In+_SW*%
X124200000Y-93475000D03*
%TO.P,D410,2,A*%
%TO.N,GND*%
X124200000Y-96275000D03*
%TD*%
D14*
%TO.P,D412,1,K*%
%TO.N,/Input Gating/In+_SW*%
X124295000Y-103425000D03*
%TO.P,D412,2,A*%
%TO.N,/Amplifier/RG2*%
X124295000Y-106725000D03*
%TD*%
D65*
%TO.P,J407,G*%
%TO.N,Earth*%
X81960000Y-101600000D03*
%TO.P,J407,3*%
%TO.N,/Hardware & IO Connectors/XLR In-*%
X92130000Y-93350000D03*
D66*
%TO.P,J407,2*%
%TO.N,/Hardware & IO Connectors/XLR In+*%
X88315000Y-89540000D03*
%TO.P,J407,1*%
%TO.N,GND*%
X87680000Y-97160000D03*
%TD*%
D17*
%TO.P,C404,1*%
%TO.N,/Amplifier/+35V_AMP*%
X132000000Y-100210000D03*
D16*
%TO.P,C404,2*%
%TO.N,GND*%
X137000000Y-100210000D03*
%TD*%
D30*
%TO.P,FB400,1*%
%TO.N,/Phantom Power Management/+48V_FLT_R*%
X126265254Y-88332454D03*
%TO.P,FB400,2*%
%TO.N,/Phantom Power Management/+48V_FLT*%
X128390254Y-88332454D03*
%TD*%
D68*
%TO.P,R434,1*%
%TO.N,/Hardware & IO Connectors/USB_PWR*%
X85610000Y-72545000D03*
%TO.P,R434,2*%
%TO.N,/Hardware & IO Connectors/USB_G_P*%
X87435000Y-72545000D03*
%TD*%
D36*
%TO.P,R428,1*%
%TO.N,/Amplifier/Line Out+*%
X97476002Y-106324730D03*
%TO.P,R428,2*%
%TO.N,GND*%
X102376002Y-106324730D03*
%TD*%
D33*
%TO.P,C417,2*%
%TO.N,GND*%
X106832651Y-109160000D03*
D34*
%TO.P,C417,1*%
%TO.N,/Amplifier/AMP_OUT-*%
X110332651Y-109160000D03*
%TD*%
D73*
%TO.P,J405,1,Pin_1*%
%TO.N,/Amplifier/RG2*%
X175477804Y-84101463D03*
D74*
%TO.P,J405,2,Pin_2*%
X175477804Y-86641463D03*
%TO.P,J405,3,Pin_3*%
%TO.N,/Amplifier/RG1*%
X175477804Y-89181463D03*
%TO.P,J405,4,Pin_4*%
X175477804Y-91721463D03*
%TD*%
D28*
%TO.P,C422,2*%
%TO.N,GND1*%
X110337754Y-76281438D03*
%TO.P,C422,1*%
%TO.N,+5V_USB*%
X110337754Y-73331438D03*
%TD*%
D74*
%TO.P,J403,4,Pin_4*%
%TO.N,/Amplifier/RG1*%
X166680000Y-91720000D03*
%TO.P,J403,3,Pin_3*%
X166680000Y-89180000D03*
%TO.P,J403,2,Pin_2*%
%TO.N,/Amplifier/RG2*%
X166680000Y-86640000D03*
D73*
%TO.P,J403,1,Pin_1*%
X166680000Y-84100000D03*
%TD*%
%TO.P,J401,1,Pin_1*%
%TO.N,/Phantom Power Management/PH_LED_GR*%
X175380000Y-108700000D03*
D74*
%TO.P,J401,2,Pin_2*%
%TO.N,GND*%
X175380000Y-111240000D03*
%TO.P,J401,3,Pin_3*%
X175380000Y-113780000D03*
%TO.P,J401,4,Pin_4*%
%TO.N,/Phantom Power Management/PH_LED_RED*%
X175380000Y-116320000D03*
%TD*%
D73*
%TO.P,J400,1,Pin_1*%
%TO.N,/Phantom Power Management/PH_LED_GR*%
X166680000Y-108700000D03*
D74*
%TO.P,J400,2,Pin_2*%
%TO.N,GND*%
X166680000Y-111240000D03*
%TO.P,J400,3,Pin_3*%
X166680000Y-113780000D03*
%TO.P,J400,4,Pin_4*%
%TO.N,/Phantom Power Management/PH_LED_RED*%
X166680000Y-116320000D03*
%TD*%
%TO.P,J404,4,Pin_4*%
%TO.N,/Amplifier/RG2_R*%
X183280000Y-108680000D03*
%TO.P,J404,3,Pin_3*%
X183280000Y-111220000D03*
%TO.P,J404,2,Pin_2*%
%TO.N,/Amplifier/RG1_R*%
X183280000Y-113760000D03*
D73*
%TO.P,J404,1,Pin_1*%
X183280000Y-116300000D03*
%TD*%
D74*
%TO.P,J402,4,Pin_4*%
%TO.N,/Phantom Power Management/PH_LED_RED_R*%
X183278435Y-84220112D03*
%TO.P,J402,3,Pin_3*%
%TO.N,/Phantom Power Management/GND_R*%
X183278435Y-86760112D03*
%TO.P,J402,2,Pin_2*%
X183278435Y-89300112D03*
D73*
%TO.P,J402,1,Pin_1*%
%TO.N,/Phantom Power Management/PH_LED_GR_R*%
X183278435Y-91840112D03*
%TD*%
D75*
%TO.N,/48V Regulator/+48V_SW*%
X119680000Y-75268000D03*
X118680000Y-75268000D03*
X119680000Y-74268000D03*
X118680000Y-74268000D03*
X117680000Y-71268000D03*
X117680000Y-72268000D03*
X117680000Y-73268000D03*
X117680000Y-74268000D03*
X117680000Y-75268000D03*
X116680000Y-75268000D03*
X116680000Y-74268000D03*
X116680000Y-73268000D03*
X116680000Y-72268000D03*
X116680000Y-71268000D03*
X119680000Y-70268000D03*
X118680000Y-70268000D03*
X117680000Y-70268000D03*
X116680000Y-70268000D03*
X116680000Y-69268000D03*
X117680000Y-69268000D03*
X118680000Y-69268000D03*
X119680000Y-69268000D03*
X120680000Y-69268000D03*
X120680000Y-70268000D03*
X121680000Y-70268000D03*
X121680000Y-71268000D03*
X120680000Y-71268000D03*
X122680000Y-71268000D03*
X119430000Y-71718000D03*
X119430000Y-72918000D03*
X118230000Y-72318000D03*
X118830000Y-72318000D03*
X118230000Y-71718000D03*
X118230000Y-72918000D03*
X118830000Y-71718000D03*
X118830000Y-72918000D03*
X118230000Y-73518000D03*
X118830000Y-73518000D03*
X119430000Y-72318000D03*
X119430000Y-73518000D03*
X122180000Y-71968000D03*
X122180000Y-73168000D03*
X120980000Y-72568000D03*
X121580000Y-72568000D03*
X120980000Y-71968000D03*
X120980000Y-73168000D03*
X121580000Y-71968000D03*
X121580000Y-73168000D03*
X120980000Y-73768000D03*
X121580000Y-73768000D03*
X122180000Y-72568000D03*
X122180000Y-73768000D03*
%TO.N,+48V*%
X122180000Y-75968000D03*
X122180000Y-77168000D03*
X120980000Y-76568000D03*
X121580000Y-76568000D03*
X120980000Y-75968000D03*
X120980000Y-77168000D03*
X121580000Y-75968000D03*
X121580000Y-77168000D03*
X120980000Y-77768000D03*
X121580000Y-77768000D03*
X122180000Y-76568000D03*
X122180000Y-77768000D03*
%TO.N,GND1*%
X109880000Y-75950000D03*
X110870000Y-75270000D03*
X109860000Y-75274274D03*
%TO.N,+5V_USB*%
X110500000Y-71500000D03*
X109500000Y-71500000D03*
X111500000Y-71500000D03*
X111000000Y-72200000D03*
X110000000Y-72200000D03*
%TO.N,GND1*%
X112200000Y-94950000D03*
%TO.N,/Hardware & IO Connectors/USB_CC_R*%
X111400000Y-87800000D03*
%TO.N,GND1*%
X119150000Y-82800000D03*
X115680000Y-74268000D03*
%TO.N,/48V Regulator/+48V_SNS*%
X115100000Y-77950000D03*
%TO.N,/48V Regulator/+48V_G_R*%
X117368500Y-82206500D03*
D76*
%TO.N,*%
X193880000Y-76984000D03*
X192580000Y-123384000D03*
X189980000Y-123384000D03*
X191280000Y-123384000D03*
X191280000Y-124584000D03*
X193880000Y-75784000D03*
X192580000Y-75784000D03*
X189980000Y-124584000D03*
X192580000Y-124584000D03*
X192580000Y-76984000D03*
X193880000Y-124584000D03*
X189980000Y-76984000D03*
X189980000Y-75784000D03*
X191280000Y-75784000D03*
X191280000Y-76984000D03*
X193880000Y-123384000D03*
D75*
%TO.N,GND*%
X107550000Y-101700000D03*
X145988293Y-130250051D03*
X147145636Y-69603099D03*
X143841974Y-70318078D03*
X112614167Y-106867295D03*
X143167826Y-130674749D03*
X127871604Y-72680000D03*
X127528775Y-76636408D03*
X147119117Y-130255168D03*
X128250251Y-73319606D03*
X145988293Y-131017578D03*
X143817666Y-131032929D03*
X101092314Y-90894703D03*
X103870624Y-106316043D03*
X142501359Y-69591485D03*
X117564006Y-88801930D03*
X128296302Y-75500467D03*
X153130000Y-93240000D03*
X143176783Y-69959899D03*
X146014812Y-70365509D03*
X126895000Y-95275000D03*
X124200000Y-97275000D03*
X142491126Y-70302727D03*
X144858404Y-69618449D03*
X133687274Y-93073473D03*
X127513424Y-71989226D03*
X128240017Y-71989226D03*
X128291185Y-76631291D03*
X127539008Y-74338942D03*
X116350000Y-104550000D03*
X127513424Y-73329840D03*
X142477052Y-130306336D03*
X144826768Y-131007345D03*
X127528775Y-75500467D03*
X143807432Y-130296102D03*
X103800000Y-125800000D03*
X142477052Y-131032929D03*
X144831885Y-130270518D03*
X144853287Y-70355276D03*
X128275835Y-74344059D03*
X147150753Y-70365509D03*
X118379836Y-100645918D03*
X147124234Y-131017578D03*
X143831740Y-69591485D03*
X129886646Y-90401865D03*
X146014812Y-69597982D03*
%TO.N,+48V*%
X122600000Y-78800000D03*
X120000000Y-86500000D03*
X122200000Y-83200000D03*
X120972754Y-81519274D03*
X121400000Y-82200000D03*
X121000000Y-79500000D03*
X122200000Y-80800000D03*
X120000000Y-80500000D03*
X121795326Y-86272964D03*
X120972754Y-82744274D03*
X122600000Y-79800000D03*
X121790209Y-81519411D03*
X121400000Y-87000000D03*
X121000000Y-78500000D03*
X120000000Y-79500000D03*
X120000000Y-81500000D03*
X120000000Y-82500000D03*
X121000000Y-86500000D03*
X120972754Y-83894274D03*
X121400000Y-83200000D03*
X120000000Y-78500000D03*
X122200000Y-87000000D03*
X122200000Y-85600000D03*
X122307010Y-79308932D03*
X122000000Y-78800000D03*
X121779975Y-83939681D03*
X122000000Y-79800000D03*
X121000000Y-80500000D03*
X120000000Y-83500000D03*
X120000000Y-84500000D03*
X120000000Y-85500000D03*
X121400000Y-84600000D03*
X122200000Y-84600000D03*
X121000000Y-85500000D03*
X122200000Y-82200000D03*
%TO.N,/Phantom Power Management/+35V_AMP_G*%
X141690000Y-89160000D03*
X142542500Y-93250000D03*
%TO.N,/Phantom Power Management/+48V_PH_SW*%
X145517500Y-79382500D03*
X114850000Y-88100000D03*
%TO.N,+5V_USB*%
X109800000Y-73000000D03*
X90562371Y-71849283D03*
X112500000Y-69500000D03*
X90943271Y-72569298D03*
X109800000Y-73600000D03*
X90255000Y-72545000D03*
X112475060Y-72394076D03*
X112500000Y-70500000D03*
X113000000Y-72000000D03*
X110500000Y-69500000D03*
X112000000Y-73600000D03*
X113000000Y-76500000D03*
X110500000Y-70500000D03*
X112000000Y-74500000D03*
X112000000Y-72000000D03*
X112493695Y-73186075D03*
X109500000Y-69500000D03*
X111500000Y-69500000D03*
X111500000Y-70500000D03*
X113000000Y-72800000D03*
X109860000Y-74314274D03*
X91250000Y-73250000D03*
X110883460Y-74315084D03*
X91388534Y-71836860D03*
X91647250Y-72569677D03*
X110800000Y-73000000D03*
X113000000Y-74500000D03*
X112000000Y-76500000D03*
X112500000Y-71500000D03*
X113000000Y-73600000D03*
X110800000Y-73600000D03*
X112000000Y-72800000D03*
X109500000Y-70500000D03*
X112000000Y-75500000D03*
X113000000Y-75500000D03*
X90500000Y-73250000D03*
%TO.N,/48V Regulator/+48V_VCC*%
X110697754Y-79284274D03*
%TO.N,/48V Regulator/+48V_ITH*%
X111856101Y-82162999D03*
%TO.N,/Input Gating/+48V_PH*%
X96400000Y-84737500D03*
X113900000Y-97870000D03*
X96400000Y-97262500D03*
X171750000Y-122600000D03*
%TO.N,/Amplifier/+35V_AMP*%
X119289688Y-99600000D03*
X120930000Y-104400000D03*
%TO.N,/Amplifier/RG2*%
X129400000Y-102800000D03*
X138200000Y-94450000D03*
X124295000Y-106725000D03*
%TO.N,/Hardware & IO Connectors/USB_CC1*%
X81250000Y-70200000D03*
%TO.N,/Hardware & IO Connectors/USB_CC2*%
X81250000Y-73200000D03*
%TO.N,/48V Regulator/+48V_SS*%
X113800000Y-83300000D03*
%TO.N,GND1*%
X94098993Y-76116576D03*
X124365067Y-82203985D03*
X126500000Y-85000000D03*
X83250000Y-68250000D03*
X98741058Y-75338815D03*
X125323413Y-71999459D03*
X109500000Y-76500000D03*
X124365067Y-86967772D03*
X111000000Y-76500000D03*
X126500000Y-87000000D03*
X125127478Y-86962655D03*
X94098993Y-75389983D03*
X125323413Y-73329840D03*
X126500000Y-82000000D03*
X124292348Y-79303815D03*
X128500000Y-87000000D03*
X110250000Y-76500000D03*
X124954999Y-72674883D03*
X124769298Y-81513211D03*
X127500000Y-83000000D03*
X124576353Y-76626174D03*
X124753948Y-83902779D03*
X98746175Y-76101225D03*
X124375301Y-84588437D03*
X112200000Y-84600000D03*
X95429373Y-75379749D03*
X124596820Y-73340074D03*
X125132595Y-83206888D03*
X95439607Y-76116576D03*
X128500000Y-83000000D03*
X128500000Y-84000000D03*
X96448709Y-76090992D03*
X128500000Y-85000000D03*
X96453826Y-75354165D03*
X126500000Y-81000000D03*
X124375301Y-83196654D03*
X126500000Y-86000000D03*
X128500000Y-86000000D03*
X124000000Y-78800000D03*
X95695000Y-68195000D03*
X124370184Y-80822436D03*
X114103965Y-81096283D03*
X124000000Y-79800000D03*
X124738597Y-86282114D03*
X125323413Y-74333825D03*
X125122361Y-84588437D03*
X97610234Y-76101225D03*
X124612171Y-71989226D03*
X127500000Y-86000000D03*
X124576353Y-75490233D03*
X115600000Y-84200000D03*
X94789767Y-75758396D03*
X83248892Y-74631436D03*
X97610234Y-75333698D03*
X125425000Y-79000000D03*
X124370184Y-85570872D03*
X127500000Y-81000000D03*
X125343880Y-75490233D03*
X124586586Y-74328708D03*
X89400000Y-67600000D03*
X125500000Y-80000000D03*
X127500000Y-84000000D03*
X126500000Y-84000000D03*
X126500000Y-83000000D03*
X124600000Y-79800000D03*
X127500000Y-85000000D03*
X125122361Y-85565755D03*
X115100000Y-83050000D03*
X127500000Y-82000000D03*
X111400000Y-84600000D03*
X124600000Y-78800000D03*
X125338763Y-76621057D03*
X127500000Y-87000000D03*
X125132595Y-80827553D03*
X125127478Y-82214219D03*
X110682402Y-80972978D03*
%TO.N,Earth*%
X147114000Y-133970000D03*
X94784650Y-78675001D03*
X97600000Y-79053647D03*
X75973338Y-113319234D03*
X143821506Y-66664647D03*
X146025046Y-67413087D03*
X98730824Y-78291237D03*
X96443592Y-78306587D03*
X96438475Y-79043414D03*
X95449841Y-79033180D03*
X98735941Y-79053647D03*
X142491126Y-66674881D03*
X146025046Y-66645560D03*
X94109226Y-78306587D03*
X147155870Y-66650677D03*
X143162709Y-133591354D03*
X143827900Y-133949533D03*
X95439607Y-78306587D03*
X147108883Y-133207590D03*
X145978059Y-133970000D03*
X143181900Y-67043294D03*
X144863521Y-67402854D03*
X94098993Y-79017829D03*
X144868638Y-66666027D03*
X142487285Y-133222940D03*
X144821651Y-133222940D03*
X142491126Y-67401474D03*
X142477052Y-133934182D03*
X145978059Y-133202473D03*
X144816534Y-133959767D03*
X97600000Y-78286120D03*
X147160987Y-67413087D03*
X143817666Y-133222940D03*
X143831740Y-67401474D03*
%TD*%
D77*
%TO.N,Net-(D413-A)*%
X139982000Y-108018000D02*
X140000000Y-108000000D01*
X127262000Y-101850000D02*
X133430000Y-108018000D01*
X133430000Y-108018000D02*
X139982000Y-108018000D01*
X122350000Y-101850000D02*
X127262000Y-101850000D01*
X122200000Y-102000000D02*
X122350000Y-101850000D01*
D78*
%TO.N,/Amplifier/AMP_OUT-*%
X117832500Y-110227500D02*
X117480000Y-109875000D01*
X117832500Y-112675000D02*
X117832500Y-110227500D01*
X117832500Y-113067500D02*
X117832500Y-112675000D01*
X114150000Y-116750000D02*
X117832500Y-113067500D01*
X108680000Y-116750000D02*
X114150000Y-116750000D01*
X118390000Y-107358283D02*
X118390000Y-106950000D01*
X117480000Y-108268283D02*
X118390000Y-107358283D01*
X117480000Y-109875000D02*
X117480000Y-108268283D01*
X118315000Y-106875000D02*
X118390000Y-106950000D01*
X116745000Y-106875000D02*
X118315000Y-106875000D01*
X114460000Y-109160000D02*
X116745000Y-106875000D01*
X110332651Y-109160000D02*
X114460000Y-109160000D01*
%TO.N,/Amplifier/AMP_OUT_FLT+*%
X114107268Y-118450000D02*
X106425000Y-118450000D01*
X115754617Y-120097349D02*
X114107268Y-118450000D01*
X117680000Y-120097349D02*
X115754617Y-120097349D01*
X106425000Y-118450000D02*
X101850000Y-113875000D01*
%TO.N,/Amplifier/AMP_OUT+*%
X117680000Y-115268000D02*
X119660000Y-113288000D01*
X117680000Y-116597349D02*
X117680000Y-115268000D01*
X119660000Y-113288000D02*
X119660000Y-106950000D01*
%TO.N,/Amplifier/AMP_OUT_FLT-*%
X103700000Y-120250000D02*
X101850000Y-118400000D01*
X108680000Y-120250000D02*
X103700000Y-120250000D01*
%TO.N,/Phantom Power Management/+48V_PH_SW*%
X147314489Y-79383511D02*
X147766908Y-78931092D01*
X147180000Y-79383511D02*
X147314489Y-79383511D01*
X147180000Y-79383511D02*
X145518511Y-79383511D01*
X147754198Y-79383511D02*
X147180000Y-79383511D01*
X148648000Y-78050000D02*
X147766908Y-78931092D01*
X169680000Y-123230000D02*
X169680000Y-81530000D01*
X172200000Y-125750000D02*
X169680000Y-123230000D01*
X169680000Y-81530000D02*
X166200000Y-78050000D01*
X147766908Y-78931092D02*
X147766908Y-79383797D01*
X175492786Y-125750000D02*
X172200000Y-125750000D01*
X177291709Y-127548923D02*
X175492786Y-125750000D01*
X166200000Y-78050000D02*
X148648000Y-78050000D01*
D79*
%TO.N,/Phantom Power Management/PH_LED_GR*%
X173470105Y-110609895D02*
X175380000Y-108700000D01*
X173470105Y-121300105D02*
X173470105Y-110609895D01*
X174760000Y-122590000D02*
X173470105Y-121300105D01*
%TO.N,Net-(SW400B-A)*%
X172930000Y-123393000D02*
X173805000Y-124268000D01*
X172930000Y-121220000D02*
X172930000Y-123393000D01*
X173805000Y-124268000D02*
X176499986Y-124268000D01*
X171745000Y-120035000D02*
X172930000Y-121220000D01*
X176499986Y-124268000D02*
X179780909Y-127548923D01*
D77*
%TO.N,/Hardware & IO Connectors/USB_PWR*%
X91378000Y-74820000D02*
X89997500Y-74820000D01*
X91930000Y-74268000D02*
X91378000Y-74820000D01*
X108882000Y-68518000D02*
X103132000Y-74268000D01*
X103132000Y-74268000D02*
X91930000Y-74268000D01*
X152549530Y-68887530D02*
X140049530Y-68887530D01*
X140049530Y-68887530D02*
X139680000Y-68518000D01*
X158180000Y-74518000D02*
X152549530Y-68887530D01*
X169056000Y-74518000D02*
X158180000Y-74518000D01*
X171974000Y-71600000D02*
X169056000Y-74518000D01*
X179768785Y-70350000D02*
X178518784Y-71600000D01*
X178518784Y-71600000D02*
X171974000Y-71600000D01*
X139680000Y-68518000D02*
X108882000Y-68518000D01*
%TO.N,/Hardware & IO Connectors/USB_SW*%
X175729585Y-68800000D02*
X177279585Y-70350000D01*
X173600000Y-68800000D02*
X175729585Y-68800000D01*
X168800000Y-73600000D02*
X173600000Y-68800000D01*
X153042326Y-68130326D02*
X158512000Y-73600000D01*
X140542326Y-68130326D02*
X153042326Y-68130326D01*
X140180000Y-67768000D02*
X140542326Y-68130326D01*
X108432000Y-67768000D02*
X140180000Y-67768000D01*
X102806772Y-73393228D02*
X108432000Y-67768000D01*
X158512000Y-73600000D02*
X168800000Y-73600000D01*
X94812500Y-70175000D02*
X98030728Y-73393228D01*
X98030728Y-73393228D02*
X102806772Y-73393228D01*
D80*
%TO.N,/48V Regulator/+48V_G_P*%
X115934673Y-78339718D02*
X115934673Y-77074399D01*
X115374391Y-78900000D02*
X115934673Y-78339718D01*
X114100000Y-78900000D02*
X115374391Y-78900000D01*
X113806101Y-77862999D02*
X113806101Y-78606101D01*
X113806101Y-78606101D02*
X114100000Y-78900000D01*
%TO.N,/48V Regulator/+48V_G*%
X116922755Y-77042482D02*
X116922755Y-78244874D01*
X115344709Y-76405291D02*
X116285564Y-76405291D01*
X114456101Y-77293899D02*
X115344709Y-76405291D01*
X116285564Y-76405291D02*
X116922755Y-77042482D01*
X114456101Y-77862999D02*
X114456101Y-77293899D01*
%TO.N,/48V Regulator/+48V_G_R*%
X116775000Y-82800000D02*
X117368500Y-82206500D01*
D77*
%TO.N,/Input Gating/In+_SW*%
X122095000Y-96075000D02*
X122095000Y-96530000D01*
X122095000Y-96530000D02*
X120695000Y-97930000D01*
X119660000Y-100710000D02*
X119660000Y-102000000D01*
X120695000Y-99675000D02*
X119660000Y-100710000D01*
X120695000Y-94185000D02*
X120695000Y-99675000D01*
D78*
%TO.N,GND*%
X133692412Y-93078611D02*
X133687274Y-93073473D01*
X134435832Y-93078611D02*
X133692412Y-93078611D01*
D77*
%TO.N,/Phantom Power Management/+48V_FLT_N*%
X137500000Y-92142500D02*
X137500000Y-86502323D01*
X136562500Y-93080000D02*
X137500000Y-92142500D01*
X137500000Y-86502323D02*
X137502323Y-86500000D01*
%TO.N,/Amplifier/RG2*%
X129400000Y-99350000D02*
X129400000Y-102800000D01*
X134300000Y-94450000D02*
X129400000Y-99350000D01*
X138200000Y-94450000D02*
X134300000Y-94450000D01*
%TO.N,/Phantom Power Management/+48V_FLT*%
X142000000Y-84070000D02*
X144160000Y-84070000D01*
X141730000Y-83800000D02*
X142000000Y-84070000D01*
X130669869Y-88332454D02*
X136884823Y-82117500D01*
X128390254Y-88332454D02*
X130669869Y-88332454D01*
X136884823Y-82117500D02*
X140170000Y-82117500D01*
%TO.N,/Amplifier/+35V_AMP*%
X139242500Y-93027500D02*
X139242500Y-93250000D01*
X142670000Y-91010000D02*
X141260000Y-91010000D01*
X141260000Y-91010000D02*
X139242500Y-93027500D01*
%TO.N,/48V Regulator/+48V_SW*%
X117886759Y-77930868D02*
X117572753Y-78244874D01*
X118222755Y-75400000D02*
X117886759Y-75735996D01*
X118650000Y-75827245D02*
X118222755Y-75400000D01*
X118650000Y-78022121D02*
X118650000Y-75827245D01*
X117886759Y-75735996D02*
X117886759Y-77930868D01*
X118872753Y-78244874D02*
X118650000Y-78022121D01*
%TO.N,/Amplifier/+35V_AMP*%
X136025000Y-98000000D02*
X139242500Y-94782500D01*
X139242500Y-94782500D02*
X139242500Y-93250000D01*
X134000000Y-98000000D02*
X136025000Y-98000000D01*
X132000000Y-100000000D02*
X134000000Y-98000000D01*
%TO.N,/Amplifier/RG1*%
X153000000Y-108000000D02*
X145000000Y-108000000D01*
X166680000Y-94320000D02*
X153000000Y-108000000D01*
X166680000Y-91720000D02*
X166680000Y-94320000D01*
D78*
%TO.N,/Phantom Power Management/+48V_PH_G*%
X146467500Y-82367500D02*
X146467500Y-81257500D01*
X148252323Y-84152323D02*
X146467500Y-82367500D01*
X148252323Y-86500000D02*
X148252323Y-84152323D01*
%TO.N,/Phantom Power Management/+48V_PH_SW_R*%
X168550000Y-123785614D02*
X174802509Y-130038123D01*
X168550000Y-82100000D02*
X168550000Y-123785614D01*
X165833511Y-79383511D02*
X168550000Y-82100000D01*
X148774198Y-79383511D02*
X165833511Y-79383511D01*
D77*
%TO.N,/Phantom Power Management/+48V_FLT*%
X144567500Y-81257500D02*
X144567500Y-83662500D01*
D78*
%TO.N,/Input Gating/+48V_PH*%
X113900000Y-101600000D02*
X113800000Y-101700000D01*
X113900000Y-97870000D02*
X113900000Y-101600000D01*
%TO.N,/Phantom Power Management/+48V_PH_SW*%
X145518511Y-79383511D02*
X145517500Y-79382500D01*
D77*
X144947500Y-77547500D02*
X144947500Y-76750000D01*
X145517500Y-78117500D02*
X144947500Y-77547500D01*
X145517500Y-79382500D02*
X145517500Y-78117500D01*
%TO.N,/Hardware & IO Connectors/USB_CC_R*%
X111380000Y-87820000D02*
X111380000Y-88950000D01*
%TO.N,/Amplifier/+35V_AMP*%
X120930000Y-104400000D02*
X120930000Y-108660000D01*
X120930000Y-108660000D02*
X122145000Y-109875000D01*
%TO.N,/Input Gating/In+_SW*%
X122095000Y-95595000D02*
X120695000Y-94195000D01*
X120695000Y-94195000D02*
X120695000Y-94185000D01*
X122095000Y-96075000D02*
X122095000Y-95595000D01*
%TO.N,GND1*%
X112200000Y-94950000D02*
X111380000Y-95770000D01*
X111380000Y-95770000D02*
X111380000Y-97850000D01*
D78*
%TO.N,/Phantom Power Management/+48V_PH_SW*%
X114770000Y-88100000D02*
X113920000Y-88950000D01*
X114850000Y-88100000D02*
X114770000Y-88100000D01*
D77*
%TO.N,/Input Gating/In-_R*%
X110700000Y-93600000D02*
X119137500Y-93600000D01*
X106900000Y-97400000D02*
X110700000Y-93600000D01*
X105500000Y-97400000D02*
X106900000Y-97400000D01*
%TO.N,/Input Gating/In+_R*%
X110800000Y-91200000D02*
X105500000Y-85900000D01*
X105500000Y-85900000D02*
X105500000Y-85000000D01*
X117737500Y-91200000D02*
X110800000Y-91200000D01*
%TO.N,/Hardware & IO Connectors/XLR In+*%
X96350000Y-89750000D02*
X96350000Y-87712500D01*
X99062500Y-85000000D02*
X100500000Y-85000000D01*
X96350000Y-87712500D02*
X99062500Y-85000000D01*
%TO.N,/Hardware & IO Connectors/XLR In-*%
X99562500Y-97500000D02*
X100600000Y-97500000D01*
X96350000Y-94287500D02*
X99562500Y-97500000D01*
X96350000Y-94287500D02*
X96350000Y-92000000D01*
X96400000Y-94337500D02*
X96350000Y-94287500D01*
%TO.N,GND1*%
X115100000Y-83050000D02*
X115106101Y-83043899D01*
X115106101Y-83043899D02*
X115106101Y-82162999D01*
D81*
%TO.N,/48V Regulator/+48V_SS*%
X113806101Y-83293899D02*
X113806101Y-82162999D01*
X113800000Y-83300000D02*
X113806101Y-83293899D01*
D80*
%TO.N,+5V_USB*%
X112506101Y-77862999D02*
X112506101Y-76993899D01*
X112506101Y-76993899D02*
X113000000Y-76500000D01*
%TO.N,/48V Regulator/+48V_VCC*%
X113156101Y-78593899D02*
X113156101Y-77862999D01*
X112850000Y-78900000D02*
X113156101Y-78593899D01*
X111082028Y-78900000D02*
X112850000Y-78900000D01*
X110697754Y-79284274D02*
X111082028Y-78900000D01*
%TO.N,GND1*%
X118425000Y-82800000D02*
X119150000Y-82800000D01*
D77*
%TO.N,GND*%
X126895000Y-96275000D02*
X126895000Y-95275000D01*
D78*
X129885944Y-90401163D02*
X129064064Y-90401163D01*
D77*
X118379836Y-100645918D02*
X118379836Y-101989836D01*
X124200000Y-96275000D02*
X124200000Y-97275000D01*
X101084717Y-90887106D02*
X101092314Y-90894703D01*
X112621872Y-106875000D02*
X112614167Y-106867295D01*
D78*
X103861937Y-106324730D02*
X103870624Y-106316043D01*
X117565936Y-88800000D02*
X118639792Y-88800000D01*
X102325000Y-125800000D02*
X103800000Y-125800000D01*
X116350000Y-103625000D02*
X116350000Y-104550000D01*
X102376002Y-106324730D02*
X103861937Y-106324730D01*
D77*
X100526940Y-90887106D02*
X101084717Y-90887106D01*
X152302500Y-93240000D02*
X153130000Y-93240000D01*
D78*
X108900000Y-101700000D02*
X107550000Y-101700000D01*
D77*
X118379836Y-101989836D02*
X118390000Y-102000000D01*
X113445000Y-106875000D02*
X112621872Y-106875000D01*
%TO.N,+48V*%
X121475000Y-88800000D02*
X121859919Y-88415081D01*
X121797754Y-87047175D02*
X121400000Y-87000000D01*
X121797754Y-81297754D02*
X121000000Y-80500000D01*
X122200000Y-87449421D02*
X122200000Y-87000000D01*
X114057754Y-84724274D02*
X114002754Y-84669274D01*
X121859919Y-88415081D02*
X123077754Y-88415081D01*
X114388480Y-86000000D02*
X121522362Y-86000000D01*
X121750579Y-87000000D02*
X121797754Y-87047175D01*
X121400000Y-87000000D02*
X121797754Y-86602246D01*
X123090404Y-88339825D02*
X122200000Y-87449421D01*
X122200000Y-87000000D02*
X121750579Y-87000000D01*
X114057754Y-85669274D02*
X114388480Y-86000000D01*
X121797754Y-81519274D02*
X121797754Y-81297754D01*
X114057754Y-85669274D02*
X114057754Y-84724274D01*
%TO.N,/Phantom Power Management/+48V_FLT*%
X144567500Y-81257500D02*
X143282500Y-81257500D01*
X144825000Y-89135000D02*
X145730000Y-88230000D01*
X142560000Y-81980000D02*
X142440000Y-82100000D01*
X145730000Y-88230000D02*
X145730000Y-85640000D01*
X144567500Y-83662500D02*
X144160000Y-84070000D01*
X142440000Y-82100000D02*
X140187500Y-82100000D01*
X143282500Y-81257500D02*
X142560000Y-81980000D01*
X143620000Y-89135000D02*
X144825000Y-89135000D01*
X145730000Y-85640000D02*
X144160000Y-84070000D01*
%TO.N,/Phantom Power Management/+35V_AMP_G*%
X141760000Y-87070000D02*
X141730000Y-87100000D01*
X144090000Y-93250000D02*
X142542500Y-93250000D01*
X148252323Y-100210000D02*
X148252323Y-97412323D01*
X141720000Y-89135000D02*
X141690000Y-89160000D01*
X148252323Y-97412323D02*
X144090000Y-93250000D01*
X141690000Y-89160000D02*
X141720000Y-87110000D01*
X144160000Y-87070000D02*
X141760000Y-87070000D01*
%TO.N,/Phantom Power Management/+48V_PH_G*%
X142560000Y-77662500D02*
X142560000Y-78980000D01*
D80*
X146467500Y-81257500D02*
X146007500Y-81257500D01*
X143730000Y-78980000D02*
X142560000Y-78980000D01*
X146007500Y-81257500D02*
X143730000Y-78980000D01*
D77*
X141440000Y-76750000D02*
X140170000Y-78020000D01*
X141647500Y-76750000D02*
X142560000Y-77662500D01*
X140170000Y-78020000D02*
X140170000Y-78817500D01*
X141647500Y-76750000D02*
X141440000Y-76750000D01*
%TO.N,/Phantom Power Management/+48V_PH_SW*%
X144300000Y-76750000D02*
X141740000Y-74190000D01*
X144947500Y-76750000D02*
X144300000Y-76750000D01*
X141740000Y-74190000D02*
X136897677Y-74190000D01*
%TO.N,/Hardware & IO Connectors/XLR In+*%
X96350000Y-89750000D02*
X88525000Y-89750000D01*
%TO.N,/Input Gating/PH_CAP*%
X99362894Y-90887106D02*
X98250000Y-92000000D01*
X99387106Y-90887106D02*
X98250000Y-89750000D01*
%TO.N,/Amplifier/Line Out-*%
X97425000Y-125800000D02*
X97425000Y-118425000D01*
X93620000Y-118400000D02*
X97450000Y-118400000D01*
X92130000Y-119890000D02*
X93620000Y-118400000D01*
%TO.N,/Amplifier/Line Out+*%
X97476002Y-106324730D02*
X97476002Y-113848998D01*
X81070000Y-121350000D02*
X77070000Y-121350000D01*
X84070000Y-121350000D02*
X84550000Y-121350000D01*
X84550000Y-121350000D02*
X88315000Y-117585000D01*
X81070000Y-121350000D02*
X84070000Y-121350000D01*
X88315000Y-117585000D02*
X88315000Y-116080000D01*
X88315000Y-116080000D02*
X90520000Y-113875000D01*
X90520000Y-113875000D02*
X97450000Y-113875000D01*
%TO.N,+5V_USB*%
X90947500Y-72802500D02*
X90500000Y-73250000D01*
X91647250Y-72569677D02*
X91622573Y-72545000D01*
X91622573Y-72545000D02*
X90947500Y-72545000D01*
D80*
X111856101Y-76643899D02*
X112000000Y-76500000D01*
X111856101Y-77862999D02*
X111856101Y-76643899D01*
D77*
X90947500Y-72947500D02*
X91250000Y-73250000D01*
X90255000Y-72545000D02*
X90947500Y-72545000D01*
X90562371Y-71849283D02*
X90947500Y-72234412D01*
X91388534Y-71836860D02*
X90947500Y-72277894D01*
%TO.N,/Phantom Power Management/+48V_FLT_R*%
X125750000Y-90400000D02*
X124703010Y-89353010D01*
X124703010Y-88339825D02*
X126257883Y-88339825D01*
X124703010Y-89353010D02*
X124703010Y-88339825D01*
%TO.N,Net-(D406-A)*%
X147400000Y-93240000D02*
X147390000Y-93250000D01*
X149002500Y-93240000D02*
X147400000Y-93240000D01*
%TO.N,/Input Gating/In+_SW*%
X125457500Y-108650000D02*
X124895000Y-109212500D01*
X119660000Y-103240000D02*
X119660000Y-102000000D01*
X124200000Y-92400000D02*
X124200000Y-93475000D01*
X123000000Y-91200000D02*
X124200000Y-92400000D01*
X124199000Y-103329000D02*
X119749000Y-103329000D01*
X125457500Y-104587500D02*
X125457500Y-108650000D01*
X120695000Y-91200000D02*
X120695000Y-94185000D01*
X119749000Y-103329000D02*
X119660000Y-103240000D01*
X120662500Y-91200000D02*
X123000000Y-91200000D01*
X124295000Y-103425000D02*
X125457500Y-104587500D01*
%TO.N,/Hardware & IO Connectors/XLR In-*%
X93480000Y-92000000D02*
X92130000Y-93350000D01*
X96350000Y-92000000D02*
X93480000Y-92000000D01*
%TO.N,/Input Gating/In-_SW*%
X126245000Y-98425000D02*
X125695000Y-98425000D01*
X120930000Y-100440000D02*
X120930000Y-102000000D01*
X125695000Y-98425000D02*
X124295000Y-98425000D01*
X125695000Y-95695000D02*
X124800000Y-94800000D01*
X124800000Y-94800000D02*
X123262500Y-94800000D01*
X126895000Y-99075000D02*
X126245000Y-98425000D01*
X122145000Y-98425000D02*
X122095000Y-98475000D01*
X124295000Y-98425000D02*
X122145000Y-98425000D01*
X122145000Y-98425000D02*
X122145000Y-99225000D01*
X123262500Y-94800000D02*
X122062500Y-93600000D01*
X125695000Y-98425000D02*
X125695000Y-95695000D01*
X122145000Y-99225000D02*
X120930000Y-100440000D01*
X126895000Y-100812500D02*
X126895000Y-99075000D01*
%TO.N,/48V Regulator/+48V_SW*%
X118222755Y-78244874D02*
X118222755Y-73569273D01*
X118222755Y-73569273D02*
X118897754Y-72894274D01*
%TO.N,Net-(R424-Pad2)*%
X124895000Y-112137500D02*
X124357500Y-112675000D01*
X126895000Y-103737500D02*
X126895000Y-110137500D01*
X124357500Y-112675000D02*
X120757500Y-112675000D01*
X126895000Y-110137500D02*
X124895000Y-112137500D01*
%TO.N,/Amplifier/+35V_AMP*%
X119295000Y-96075000D02*
X119295000Y-99594688D01*
X119295000Y-99594688D02*
X119289688Y-99600000D01*
D78*
X118550000Y-98475000D02*
X116350000Y-100675000D01*
X119295000Y-98475000D02*
X118550000Y-98475000D01*
D80*
%TO.N,/48V Regulator/+48V_RT*%
X114456101Y-83612621D02*
X114456101Y-82162999D01*
%TO.N,/48V Regulator/+48V_FB*%
X113042754Y-84217106D02*
X113042754Y-85664274D01*
X112510854Y-83685206D02*
X113042754Y-84217106D01*
X112506101Y-82162999D02*
X112506101Y-83680453D01*
D77*
%TO.N,/Amplifier/RG2*%
X124284645Y-106714645D02*
X122435355Y-106714645D01*
X122435355Y-106714645D02*
X122200000Y-106950000D01*
X124295000Y-106725000D02*
X124284645Y-106714645D01*
%TO.N,/Hardware & IO Connectors/USB_PWR*%
X82235000Y-69050000D02*
X83063000Y-69050000D01*
X87885000Y-74820000D02*
X85610000Y-72545000D01*
X85610000Y-72545000D02*
X84305000Y-73850000D01*
X85610000Y-71597000D02*
X85610000Y-72545000D01*
X89997500Y-74820000D02*
X87885000Y-74820000D01*
X84305000Y-73850000D02*
X82235000Y-73850000D01*
X83063000Y-69050000D02*
X85610000Y-71597000D01*
D80*
%TO.N,/Hardware & IO Connectors/USB_CC1*%
X81250000Y-70200000D02*
X82235000Y-70200000D01*
%TO.N,/Hardware & IO Connectors/USB_CC2*%
X81250000Y-73200000D02*
X82235000Y-73200000D01*
D77*
%TO.N,/Hardware & IO Connectors/USB_G_N*%
X92985000Y-68195000D02*
X92985000Y-70172500D01*
X92693612Y-70468888D02*
X92987500Y-70175000D01*
X90937490Y-70468888D02*
X92693612Y-70468888D01*
%TO.N,/Hardware & IO Connectors/USB_G_P*%
X89037490Y-70468888D02*
X89037490Y-72534990D01*
X89047500Y-72545000D02*
X87435000Y-72545000D01*
D81*
%TO.N,/48V Regulator/+48V_PG*%
X113156101Y-81438000D02*
X112856100Y-81137999D01*
X111531479Y-81137999D02*
X110697754Y-80304274D01*
X112856100Y-81137999D02*
X111531479Y-81137999D01*
X113156101Y-82162999D02*
X113156101Y-81438000D01*
D77*
%TO.N,GND1*%
X82235000Y-68250000D02*
X83250000Y-68250000D01*
X83230328Y-74650000D02*
X83248892Y-74631436D01*
X89400000Y-67600000D02*
X89987490Y-68187490D01*
X115532754Y-84132754D02*
X115600000Y-84200000D01*
X95695000Y-68195000D02*
X94810000Y-68195000D01*
X111400000Y-83776060D02*
X111400000Y-84600000D01*
X111490854Y-83685206D02*
X111400000Y-83776060D01*
X82235000Y-74650000D02*
X83230328Y-74650000D01*
X115532754Y-83669274D02*
X115532754Y-84132754D01*
%TO.N,Earth*%
X75973338Y-113319234D02*
X75970000Y-113322572D01*
X75970000Y-113322572D02*
X75970000Y-114850000D01*
%TO.N,/Phantom Power Management/PH_LED_RED*%
X175380000Y-119400000D02*
X174745000Y-120035000D01*
X175380000Y-116320000D02*
X175380000Y-119400000D01*
%TD*%
%TA.AperFunction,Conductor*%
%TO.N,+5V_USB*%
G36*
X112912294Y-69044952D02*
G01*
X112926309Y-69066275D01*
X113795563Y-71258086D01*
X113800000Y-71281311D01*
X113800000Y-75710055D01*
X113789096Y-75745481D01*
X113030015Y-76861748D01*
X112989706Y-76888209D01*
X112987003Y-76888664D01*
X112953551Y-76893538D01*
X112953550Y-76893538D01*
X112847262Y-76945499D01*
X112763602Y-77029159D01*
X112711640Y-77135447D01*
X112706620Y-77169901D01*
X112703070Y-77194274D01*
X112701601Y-77204355D01*
X112701601Y-78455500D01*
X112683149Y-78500048D01*
X112638601Y-78518500D01*
X111375803Y-78518500D01*
X111331255Y-78500048D01*
X111312803Y-78455525D01*
X111312299Y-77194274D01*
X111204528Y-77194274D01*
X111159980Y-77175822D01*
X111141528Y-77131274D01*
X111159980Y-77086726D01*
X111182509Y-77072247D01*
X111232021Y-77053780D01*
X111348158Y-76966842D01*
X111435096Y-76850705D01*
X111458120Y-76788970D01*
X111467174Y-76772628D01*
X111468719Y-76770615D01*
X111468721Y-76770611D01*
X111522787Y-76640085D01*
X111522787Y-76640083D01*
X111522788Y-76640081D01*
X111541230Y-76500000D01*
X111522788Y-76359919D01*
X111497048Y-76297779D01*
X111492253Y-76273671D01*
X111492253Y-75908186D01*
X111485794Y-75848098D01*
X111485794Y-75848096D01*
X111435096Y-75712171D01*
X111348802Y-75596894D01*
X111336877Y-75550174D01*
X111341032Y-75535031D01*
X111392787Y-75410084D01*
X111392787Y-75410083D01*
X111392788Y-75410081D01*
X111411230Y-75270000D01*
X111392788Y-75129919D01*
X111392787Y-75129916D01*
X111392787Y-75129914D01*
X111353797Y-75035787D01*
X111338719Y-74999385D01*
X111252707Y-74887293D01*
X111140615Y-74801281D01*
X111140613Y-74801280D01*
X111010083Y-74747212D01*
X110870000Y-74728770D01*
X110729917Y-74747212D01*
X110729914Y-74747212D01*
X110599386Y-74801280D01*
X110599384Y-74801281D01*
X110487296Y-74887290D01*
X110487293Y-74887293D01*
X110413341Y-74983668D01*
X110371582Y-75007776D01*
X110325007Y-74995296D01*
X110313379Y-74983667D01*
X110242709Y-74891570D01*
X110242707Y-74891567D01*
X110130615Y-74805555D01*
X110120297Y-74801281D01*
X110000083Y-74751486D01*
X109860000Y-74733044D01*
X109719917Y-74751486D01*
X109719914Y-74751486D01*
X109589386Y-74805554D01*
X109589384Y-74805555D01*
X109477296Y-74891564D01*
X109477290Y-74891570D01*
X109391281Y-75003658D01*
X109391280Y-75003660D01*
X109337212Y-75134188D01*
X109337212Y-75134191D01*
X109323215Y-75240510D01*
X109305220Y-75271678D01*
X109305302Y-75271712D01*
X109323215Y-75308037D01*
X109337212Y-75414356D01*
X109337212Y-75414359D01*
X109373591Y-75502183D01*
X109373591Y-75550401D01*
X109353142Y-75576726D01*
X109327350Y-75596033D01*
X109311188Y-75617624D01*
X109269720Y-75642229D01*
X109223000Y-75630304D01*
X109198395Y-75588836D01*
X109197754Y-75579870D01*
X109197754Y-75316260D01*
X109215516Y-75273377D01*
X109210773Y-75270639D01*
X109197754Y-75232287D01*
X109197754Y-69145370D01*
X109216206Y-69100822D01*
X109272076Y-69044952D01*
X109316624Y-69026500D01*
X112867746Y-69026500D01*
X112912294Y-69044952D01*
G37*
%TD.AperFunction*%
%TD*%
%TA.AperFunction,Conductor*%
%TO.N,GND1*%
G36*
X124983678Y-78021164D02*
G01*
X125027736Y-78039404D01*
X128981629Y-81981683D01*
X129000000Y-82025849D01*
X129000000Y-87436612D01*
X128981694Y-87480806D01*
X128937500Y-87499112D01*
X128936619Y-87499106D01*
X128754636Y-87496541D01*
X128733676Y-87492606D01*
X128710637Y-87484013D01*
X128710639Y-87484013D01*
X128654283Y-87477954D01*
X128654276Y-87477954D01*
X128126232Y-87477954D01*
X128126224Y-87477954D01*
X128069868Y-87484013D01*
X128066066Y-87484912D01*
X128065861Y-87484047D01*
X128050710Y-87486619D01*
X123334373Y-87420142D01*
X123290441Y-87401215D01*
X123272754Y-87357648D01*
X123272754Y-78081843D01*
X123291060Y-78037649D01*
X123335253Y-78019343D01*
X124983678Y-78021164D01*
G37*
%TD.AperFunction*%
%TD*%
%TA.AperFunction,Conductor*%
%TO.N,/48V Regulator/+48V_SW*%
G36*
X120798286Y-69044806D02*
G01*
X123254448Y-71500968D01*
X123272754Y-71545162D01*
X123272754Y-74572274D01*
X123254448Y-74616468D01*
X123210254Y-74634774D01*
X120773850Y-74634774D01*
X120674544Y-74654527D01*
X120674541Y-74654527D01*
X120632831Y-74671805D01*
X120630511Y-74672634D01*
X120545808Y-74729231D01*
X120545806Y-74729233D01*
X120006122Y-75268916D01*
X120006108Y-75268931D01*
X119973847Y-75308242D01*
X119973843Y-75308247D01*
X119960193Y-75328676D01*
X119936218Y-75373531D01*
X119936209Y-75373550D01*
X119925191Y-75400148D01*
X119917035Y-75414274D01*
X119882639Y-75459101D01*
X119871101Y-75470639D01*
X119826274Y-75505035D01*
X119812148Y-75513191D01*
X119785550Y-75524209D01*
X119785531Y-75524218D01*
X119740676Y-75548193D01*
X119720247Y-75561843D01*
X119720242Y-75561847D01*
X119680931Y-75594108D01*
X119680916Y-75594122D01*
X119235851Y-76039187D01*
X119234919Y-76039995D01*
X119232707Y-76042331D01*
X119176455Y-76126521D01*
X119158004Y-76171067D01*
X119138254Y-76270366D01*
X119138254Y-79020811D01*
X119119948Y-79065005D01*
X119075754Y-79083311D01*
X119063562Y-79082110D01*
X119040757Y-79077574D01*
X119040754Y-79077574D01*
X117303709Y-79077574D01*
X117259515Y-79059268D01*
X117247515Y-79042432D01*
X117194708Y-78933967D01*
X117191821Y-78886219D01*
X117216179Y-78854643D01*
X117245939Y-78834758D01*
X117302189Y-78750575D01*
X117316955Y-78676341D01*
X117316954Y-77813408D01*
X117305456Y-77755598D01*
X117304255Y-77743406D01*
X117304255Y-77621541D01*
X117322561Y-77577347D01*
X117336173Y-77563735D01*
X117408713Y-77491195D01*
X117460828Y-77388912D01*
X117464725Y-77381265D01*
X117464725Y-77381264D01*
X117464727Y-77381261D01*
X117479173Y-77290052D01*
X117479172Y-76858747D01*
X117464727Y-76767537D01*
X117408713Y-76657603D01*
X117321469Y-76570359D01*
X117321468Y-76570358D01*
X117211539Y-76514346D01*
X117211529Y-76514343D01*
X117120339Y-76499900D01*
X117120327Y-76499899D01*
X117120326Y-76499899D01*
X117120324Y-76499899D01*
X116945583Y-76499899D01*
X116901389Y-76481593D01*
X116519809Y-76100013D01*
X116484128Y-76079412D01*
X116484128Y-76079413D01*
X116432820Y-76049791D01*
X116432815Y-76049789D01*
X116335793Y-76023791D01*
X116335789Y-76023791D01*
X116320016Y-76023791D01*
X116275822Y-76005485D01*
X116257516Y-75961291D01*
X116257516Y-69089000D01*
X116275822Y-69044806D01*
X116320016Y-69026500D01*
X120754092Y-69026500D01*
X120798286Y-69044806D01*
G37*
%TD.AperFunction*%
%TD*%
%TA.AperFunction,Conductor*%
%TO.N,/48V Regulator/+48V_G_R*%
G36*
X116537570Y-79112726D02*
G01*
X116556022Y-79157274D01*
X116545404Y-79192275D01*
X116515007Y-79237765D01*
X116506308Y-79281500D01*
X116495254Y-79337074D01*
X116495254Y-81038874D01*
X116508422Y-81105078D01*
X116515007Y-81138182D01*
X116571257Y-81222364D01*
X116571260Y-81222368D01*
X116571263Y-81222370D01*
X116655445Y-81278620D01*
X116655447Y-81278620D01*
X116655448Y-81278621D01*
X116754754Y-81298374D01*
X116754757Y-81298374D01*
X119040753Y-81298374D01*
X119040754Y-81298374D01*
X119062963Y-81293956D01*
X119110254Y-81303362D01*
X119137043Y-81343453D01*
X119138254Y-81355745D01*
X119138254Y-82086424D01*
X119119802Y-82130972D01*
X119075284Y-82149424D01*
X118902367Y-82149506D01*
X118864926Y-82137195D01*
X118839775Y-82118632D01*
X118839773Y-82118631D01*
X118775112Y-82096005D01*
X118710449Y-82073378D01*
X118690979Y-82071553D01*
X118679749Y-82070500D01*
X118679744Y-82070500D01*
X118170261Y-82070500D01*
X118170249Y-82070501D01*
X118139550Y-82073378D01*
X118139549Y-82073379D01*
X118010224Y-82118632D01*
X117984463Y-82137644D01*
X117947085Y-82149953D01*
X117850000Y-82150000D01*
X117807178Y-82341654D01*
X117805159Y-82348723D01*
X117773379Y-82439548D01*
X117770500Y-82470252D01*
X117770500Y-82498867D01*
X117768984Y-82512604D01*
X117564871Y-83426153D01*
X117537149Y-83465606D01*
X117503107Y-83475415D01*
X116174921Y-83469506D01*
X116130456Y-83450856D01*
X116113255Y-83417981D01*
X115873807Y-82124960D01*
X115872754Y-82113488D01*
X115872754Y-79157274D01*
X115891206Y-79112726D01*
X115935754Y-79094274D01*
X116493022Y-79094274D01*
X116537570Y-79112726D01*
G37*
%TD.AperFunction*%
%TD*%
%TA.AperFunction,Conductor*%
%TO.N,+48V*%
G36*
X123254302Y-74912726D02*
G01*
X123272754Y-74957274D01*
X123272754Y-77722255D01*
X123254302Y-77766803D01*
X123233864Y-77780459D01*
X123191755Y-77797901D01*
X123191743Y-77797908D01*
X123107570Y-77854151D01*
X123107564Y-77854157D01*
X123051318Y-77938334D01*
X123051311Y-77938346D01*
X123034194Y-77979671D01*
X123033129Y-77981922D01*
X123013254Y-78081842D01*
X123013254Y-87357648D01*
X123015510Y-87369202D01*
X123005936Y-87416460D01*
X122965749Y-87443107D01*
X122953677Y-87444274D01*
X119460754Y-87444274D01*
X119416206Y-87425822D01*
X119397754Y-87381274D01*
X119397754Y-83317328D01*
X119416206Y-83272780D01*
X119422394Y-83267353D01*
X119532707Y-83182707D01*
X119618719Y-83070615D01*
X119669817Y-82947254D01*
X119672787Y-82940085D01*
X119672787Y-82940083D01*
X119672788Y-82940081D01*
X119691230Y-82800000D01*
X119672788Y-82659919D01*
X119672787Y-82659916D01*
X119672787Y-82659914D01*
X119618719Y-82529386D01*
X119618718Y-82529384D01*
X119532709Y-82417296D01*
X119532707Y-82417293D01*
X119463657Y-82364308D01*
X119422401Y-82332651D01*
X119398293Y-82290892D01*
X119397754Y-82282670D01*
X119397754Y-76270369D01*
X119416205Y-76225822D01*
X119864416Y-75777611D01*
X119884844Y-75763962D01*
X119950615Y-75736719D01*
X120062707Y-75650707D01*
X120148719Y-75538615D01*
X120175962Y-75472844D01*
X120189611Y-75452416D01*
X120729302Y-74912726D01*
X120773850Y-74894274D01*
X123209754Y-74894274D01*
X123254302Y-74912726D01*
G37*
%TD.AperFunction*%
%TD*%
%TA.AperFunction,Conductor*%
%TO.N,Earth*%
G36*
X193937555Y-63599947D02*
G01*
X193981732Y-63618290D01*
X194000001Y-63662446D01*
X194000098Y-68464084D01*
X193981793Y-68508278D01*
X193937599Y-68526585D01*
X193937560Y-68526585D01*
X176190479Y-68515916D01*
X176146323Y-68497610D01*
X176041817Y-68393103D01*
X176041808Y-68393096D01*
X175925864Y-68326155D01*
X175925855Y-68326151D01*
X175796536Y-68291501D01*
X175796531Y-68291500D01*
X175796530Y-68291500D01*
X173666945Y-68291500D01*
X173533055Y-68291500D01*
X173533054Y-68291500D01*
X173533048Y-68291501D01*
X173403729Y-68326151D01*
X173403720Y-68326155D01*
X173287776Y-68393096D01*
X173185093Y-68495778D01*
X173140898Y-68514083D01*
X173140861Y-68514083D01*
X154159650Y-68502672D01*
X154115494Y-68484366D01*
X153354558Y-67723429D01*
X153354549Y-67723422D01*
X153238605Y-67656481D01*
X153238596Y-67656477D01*
X153109277Y-67621827D01*
X153109272Y-67621826D01*
X153109271Y-67621826D01*
X153109270Y-67621826D01*
X140778842Y-67621826D01*
X140734648Y-67603520D01*
X140492232Y-67361103D01*
X140492223Y-67361096D01*
X140376279Y-67294155D01*
X140376270Y-67294151D01*
X140246951Y-67259501D01*
X140246946Y-67259500D01*
X140246945Y-67259500D01*
X108498946Y-67259500D01*
X108365055Y-67259500D01*
X108365054Y-67259500D01*
X108365048Y-67259501D01*
X108235726Y-67294152D01*
X108235723Y-67294153D01*
X108119774Y-67361098D01*
X108119768Y-67361103D01*
X107024865Y-68456005D01*
X106980671Y-68474311D01*
X106980633Y-68474311D01*
X96509186Y-68468017D01*
X96465003Y-68449685D01*
X96461209Y-68445527D01*
X96244773Y-68185787D01*
X96230823Y-68153935D01*
X96217788Y-68054919D01*
X96163719Y-67924385D01*
X96077707Y-67812293D01*
X95965615Y-67726281D01*
X95965611Y-67726279D01*
X95835085Y-67672213D01*
X95831128Y-67671153D01*
X95831744Y-67668850D01*
X95798934Y-67650745D01*
X95480000Y-67268000D01*
X95248528Y-67268000D01*
X95226686Y-67264059D01*
X95180843Y-67246960D01*
X95120755Y-67240500D01*
X94499253Y-67240500D01*
X94499236Y-67240501D01*
X94439158Y-67246960D01*
X94439154Y-67246961D01*
X94393314Y-67264059D01*
X94371472Y-67268000D01*
X93423528Y-67268000D01*
X93401686Y-67264059D01*
X93355843Y-67246960D01*
X93295755Y-67240500D01*
X92674253Y-67240500D01*
X92674236Y-67240501D01*
X92614158Y-67246960D01*
X92614154Y-67246961D01*
X92568314Y-67264059D01*
X92546472Y-67268000D01*
X89852438Y-67268000D01*
X89808244Y-67249694D01*
X89802853Y-67243548D01*
X89800514Y-67240500D01*
X89782707Y-67217293D01*
X89670615Y-67131281D01*
X89670611Y-67131279D01*
X89540084Y-67077213D01*
X89540074Y-67077210D01*
X89400002Y-67058770D01*
X89399998Y-67058770D01*
X89259925Y-67077210D01*
X89259915Y-67077213D01*
X89129388Y-67131279D01*
X89129385Y-67131280D01*
X89129385Y-67131281D01*
X89017293Y-67217293D01*
X88999486Y-67240500D01*
X88997147Y-67243548D01*
X88955720Y-67267465D01*
X88947562Y-67268000D01*
X83480002Y-67268000D01*
X83480000Y-67268000D01*
X83479999Y-67268000D01*
X83479998Y-67268001D01*
X83028808Y-67701054D01*
X82984247Y-67718450D01*
X82960648Y-67711029D01*
X82959989Y-67712622D01*
X82954300Y-67710265D01*
X82880067Y-67695500D01*
X81589935Y-67695500D01*
X81589931Y-67695501D01*
X81515700Y-67710265D01*
X81515696Y-67710267D01*
X81431515Y-67766515D01*
X81375266Y-67850697D01*
X81375266Y-67850699D01*
X81365588Y-67899349D01*
X81339011Y-67939123D01*
X81304318Y-67949655D01*
X80550000Y-67950000D01*
X80549999Y-67950001D01*
X80554963Y-75105200D01*
X80554963Y-75105201D01*
X81378548Y-75104309D01*
X81422760Y-75122566D01*
X81430579Y-75132082D01*
X81431514Y-75133482D01*
X81431518Y-75133486D01*
X81515697Y-75189733D01*
X81515699Y-75189734D01*
X81589933Y-75204500D01*
X82880066Y-75204499D01*
X82954301Y-75189734D01*
X82985282Y-75169032D01*
X83020005Y-75158500D01*
X83033520Y-75158500D01*
X83071085Y-75171048D01*
X83115562Y-75204498D01*
X83175066Y-75249248D01*
X83199383Y-75290442D01*
X83200000Y-75299199D01*
X83200000Y-77200000D01*
X100864015Y-77200266D01*
X100908209Y-77218572D01*
X100926514Y-77262686D01*
X100929964Y-79972052D01*
X100911714Y-80016270D01*
X100909194Y-80018660D01*
X98680001Y-82017998D01*
X98679998Y-82018003D01*
X97950000Y-83799996D01*
X97648579Y-85156391D01*
X97633540Y-85177845D01*
X97636842Y-85209208D01*
X97560876Y-85551058D01*
X97533419Y-85590229D01*
X97499864Y-85600000D01*
X97319915Y-85600000D01*
X97275721Y-85581694D01*
X97257415Y-85537500D01*
X97275721Y-85493306D01*
X97282460Y-85487466D01*
X97299587Y-85474645D01*
X97385404Y-85410404D01*
X97472342Y-85294267D01*
X97517271Y-85173807D01*
X97530828Y-85159246D01*
X97525425Y-85136153D01*
X97529500Y-85098255D01*
X97529499Y-84376746D01*
X97523040Y-84316658D01*
X97472342Y-84180733D01*
X97385404Y-84064596D01*
X97269267Y-83977658D01*
X97269265Y-83977657D01*
X97269263Y-83977656D01*
X97133343Y-83926960D01*
X97073255Y-83920500D01*
X95726753Y-83920500D01*
X95726736Y-83920501D01*
X95666656Y-83926960D01*
X95530736Y-83977656D01*
X95530731Y-83977659D01*
X95414596Y-84064596D01*
X95327659Y-84180731D01*
X95327656Y-84180736D01*
X95276960Y-84316656D01*
X95270500Y-84376737D01*
X95270500Y-85098246D01*
X95270501Y-85098263D01*
X95276960Y-85158343D01*
X95327656Y-85294263D01*
X95327657Y-85294264D01*
X95327658Y-85294267D01*
X95414596Y-85410404D01*
X95500413Y-85474645D01*
X95517540Y-85487466D01*
X95541949Y-85528605D01*
X95530119Y-85574955D01*
X95488980Y-85599364D01*
X95480085Y-85600000D01*
X85000000Y-85600000D01*
X85000000Y-117470613D01*
X84981694Y-117514807D01*
X84970537Y-117525963D01*
X84970535Y-117525965D01*
X84871987Y-117673451D01*
X84804105Y-117837335D01*
X84769500Y-118011308D01*
X84769500Y-118188691D01*
X84804105Y-118362664D01*
X84871987Y-118526548D01*
X84970535Y-118674034D01*
X84981694Y-118685193D01*
X85000000Y-118729387D01*
X85000000Y-119929756D01*
X84981694Y-119973950D01*
X84937500Y-119992256D01*
X84893306Y-119973950D01*
X84885533Y-119964480D01*
X84853483Y-119916514D01*
X84769302Y-119860266D01*
X84769300Y-119860265D01*
X84695067Y-119845500D01*
X83444935Y-119845500D01*
X83444931Y-119845501D01*
X83370700Y-119860265D01*
X83370696Y-119860267D01*
X83286515Y-119916515D01*
X83230266Y-120000697D01*
X83230265Y-120000699D01*
X83215500Y-120074932D01*
X83215500Y-120779000D01*
X83197194Y-120823194D01*
X83153000Y-120841500D01*
X81986999Y-120841500D01*
X81942805Y-120823194D01*
X81924499Y-120779000D01*
X81924499Y-120074935D01*
X81924499Y-120074933D01*
X81909734Y-120000699D01*
X81909732Y-120000696D01*
X81853484Y-119916515D01*
X81769302Y-119860266D01*
X81769300Y-119860265D01*
X81695067Y-119845500D01*
X80444935Y-119845500D01*
X80444931Y-119845501D01*
X80370700Y-119860265D01*
X80370696Y-119860267D01*
X80286515Y-119916515D01*
X80230266Y-120000697D01*
X80230265Y-120000699D01*
X80215500Y-120074932D01*
X80215500Y-120779000D01*
X80197194Y-120823194D01*
X80153000Y-120841500D01*
X77986999Y-120841500D01*
X77942805Y-120823194D01*
X77924499Y-120779000D01*
X77924499Y-120074935D01*
X77924499Y-120074933D01*
X77909734Y-120000699D01*
X77909732Y-120000696D01*
X77853484Y-119916515D01*
X77769302Y-119860266D01*
X77769300Y-119860265D01*
X77695067Y-119845500D01*
X76444935Y-119845500D01*
X76444931Y-119845501D01*
X76370700Y-119860265D01*
X76370696Y-119860267D01*
X76286515Y-119916515D01*
X76230266Y-120000697D01*
X76230265Y-120000699D01*
X76215500Y-120074932D01*
X76215500Y-122625064D01*
X76215501Y-122625068D01*
X76230265Y-122699299D01*
X76230267Y-122699303D01*
X76286515Y-122783484D01*
X76370697Y-122839733D01*
X76370699Y-122839734D01*
X76444933Y-122854500D01*
X77695066Y-122854499D01*
X77769301Y-122839734D01*
X77853484Y-122783484D01*
X77909734Y-122699301D01*
X77924500Y-122625067D01*
X77924500Y-121921000D01*
X77942806Y-121876806D01*
X77987000Y-121858500D01*
X80153001Y-121858500D01*
X80197195Y-121876806D01*
X80215501Y-121921000D01*
X80215501Y-122625068D01*
X80230265Y-122699299D01*
X80230267Y-122699303D01*
X80286515Y-122783484D01*
X80370697Y-122839733D01*
X80370699Y-122839734D01*
X80444933Y-122854500D01*
X81695066Y-122854499D01*
X81769301Y-122839734D01*
X81853484Y-122783484D01*
X81909734Y-122699301D01*
X81924500Y-122625067D01*
X81924500Y-121921000D01*
X81942806Y-121876806D01*
X81987000Y-121858500D01*
X83153001Y-121858500D01*
X83197195Y-121876806D01*
X83215501Y-121921000D01*
X83215501Y-122625068D01*
X83230265Y-122699299D01*
X83230267Y-122699303D01*
X83286515Y-122783484D01*
X83370697Y-122839733D01*
X83370699Y-122839734D01*
X83444933Y-122854500D01*
X84695066Y-122854499D01*
X84769301Y-122839734D01*
X84853484Y-122783484D01*
X84885533Y-122735520D01*
X84925307Y-122708944D01*
X84972223Y-122718276D01*
X84998799Y-122758050D01*
X85000000Y-122770243D01*
X85000000Y-132216271D01*
X85000000Y-132216272D01*
X194446332Y-132168109D01*
X194490534Y-132186395D01*
X194508859Y-132230581D01*
X194508859Y-132230725D01*
X194500116Y-136937616D01*
X194481728Y-136981776D01*
X194437616Y-137000000D01*
X95000000Y-137000000D01*
X75285135Y-137000000D01*
X75240941Y-136981694D01*
X75222635Y-136937521D01*
X75221085Y-132230581D01*
X75218305Y-123788691D01*
X77889500Y-123788691D01*
X77924105Y-123962664D01*
X77991987Y-124126548D01*
X78090535Y-124274034D01*
X78215965Y-124399464D01*
X78363451Y-124498012D01*
X78363452Y-124498012D01*
X78363453Y-124498013D01*
X78527334Y-124565894D01*
X78701309Y-124600500D01*
X78878691Y-124600500D01*
X79052666Y-124565894D01*
X79216547Y-124498013D01*
X79364035Y-124399464D01*
X79489464Y-124274035D01*
X79588013Y-124126547D01*
X79655894Y-123962666D01*
X79690500Y-123788691D01*
X79690500Y-123611309D01*
X79655894Y-123437334D01*
X79588013Y-123273453D01*
X79584353Y-123267976D01*
X79489464Y-123125965D01*
X79364034Y-123000535D01*
X79216548Y-122901987D01*
X79052664Y-122834105D01*
X78878691Y-122799500D01*
X78701309Y-122799500D01*
X78527335Y-122834105D01*
X78363451Y-122901987D01*
X78215965Y-123000535D01*
X78090535Y-123125965D01*
X77991987Y-123273451D01*
X77924105Y-123437335D01*
X77889500Y-123611308D01*
X77889500Y-123788691D01*
X75218305Y-123788691D01*
X75216461Y-118188691D01*
X77769500Y-118188691D01*
X77804105Y-118362664D01*
X77871987Y-118526548D01*
X77970535Y-118674034D01*
X78095965Y-118799464D01*
X78243451Y-118898012D01*
X78243452Y-118898012D01*
X78243453Y-118898013D01*
X78407334Y-118965894D01*
X78581309Y-119000500D01*
X78758691Y-119000500D01*
X78932666Y-118965894D01*
X79096547Y-118898013D01*
X79244035Y-118799464D01*
X79369464Y-118674035D01*
X79468013Y-118526547D01*
X79535894Y-118362666D01*
X79570500Y-118188691D01*
X79570500Y-118011309D01*
X79535894Y-117837334D01*
X79468013Y-117673453D01*
X79402272Y-117575066D01*
X79369464Y-117525965D01*
X79244034Y-117400535D01*
X79096548Y-117301987D01*
X78932664Y-117234105D01*
X78758691Y-117199500D01*
X78581309Y-117199500D01*
X78407335Y-117234105D01*
X78243451Y-117301987D01*
X78095965Y-117400535D01*
X77970535Y-117525965D01*
X77871987Y-117673451D01*
X77804105Y-117837335D01*
X77769500Y-118011308D01*
X77769500Y-118188691D01*
X75216461Y-118188691D01*
X75215796Y-116168691D01*
X82969500Y-116168691D01*
X83004105Y-116342664D01*
X83071987Y-116506548D01*
X83170535Y-116654034D01*
X83295965Y-116779464D01*
X83443451Y-116878012D01*
X83443452Y-116878012D01*
X83443453Y-116878013D01*
X83607334Y-116945894D01*
X83781309Y-116980500D01*
X83958691Y-116980500D01*
X84132666Y-116945894D01*
X84296547Y-116878013D01*
X84444035Y-116779464D01*
X84569464Y-116654035D01*
X84668013Y-116506547D01*
X84735894Y-116342666D01*
X84770500Y-116168691D01*
X84770500Y-115991309D01*
X84735894Y-115817334D01*
X84668013Y-115653453D01*
X84569464Y-115505965D01*
X84444035Y-115380536D01*
X84444034Y-115380535D01*
X84296548Y-115281987D01*
X84132664Y-115214105D01*
X83958691Y-115179500D01*
X83781309Y-115179500D01*
X83607335Y-115214105D01*
X83443451Y-115281987D01*
X83295965Y-115380535D01*
X83170535Y-115505965D01*
X83071987Y-115653451D01*
X83004105Y-115817335D01*
X82969500Y-115991308D01*
X82969500Y-116168691D01*
X75215796Y-116168691D01*
X75209565Y-97248691D01*
X77889500Y-97248691D01*
X77924105Y-97422664D01*
X77991987Y-97586548D01*
X78090535Y-97734034D01*
X78215965Y-97859464D01*
X78363451Y-97958012D01*
X78363452Y-97958012D01*
X78363453Y-97958013D01*
X78527334Y-98025894D01*
X78701309Y-98060500D01*
X78878691Y-98060500D01*
X79052666Y-98025894D01*
X79216547Y-97958013D01*
X79364035Y-97859464D01*
X79489464Y-97734035D01*
X79588013Y-97586547D01*
X79655894Y-97422666D01*
X79690500Y-97248691D01*
X79690500Y-97071309D01*
X79655894Y-96897334D01*
X79588013Y-96733453D01*
X79489464Y-96585965D01*
X79364035Y-96460536D01*
X79364034Y-96460535D01*
X79216548Y-96361987D01*
X79052664Y-96294105D01*
X78878691Y-96259500D01*
X78701309Y-96259500D01*
X78527335Y-96294105D01*
X78363451Y-96361987D01*
X78215965Y-96460535D01*
X78090535Y-96585965D01*
X77991987Y-96733451D01*
X77924105Y-96897335D01*
X77889500Y-97071308D01*
X77889500Y-97248691D01*
X75209565Y-97248691D01*
X75207056Y-89628691D01*
X82969500Y-89628691D01*
X83004105Y-89802664D01*
X83071987Y-89966548D01*
X83170535Y-90114034D01*
X83295965Y-90239464D01*
X83443451Y-90338012D01*
X83443452Y-90338012D01*
X83443453Y-90338013D01*
X83607334Y-90405894D01*
X83781309Y-90440500D01*
X83958691Y-90440500D01*
X84132666Y-90405894D01*
X84296547Y-90338013D01*
X84444035Y-90239464D01*
X84569464Y-90114035D01*
X84668013Y-89966547D01*
X84735894Y-89802666D01*
X84770500Y-89628691D01*
X84770500Y-89451309D01*
X84735894Y-89277334D01*
X84668013Y-89113453D01*
X84638527Y-89069325D01*
X84569464Y-88965965D01*
X84444034Y-88840535D01*
X84296548Y-88741987D01*
X84132664Y-88674105D01*
X83958691Y-88639500D01*
X83781309Y-88639500D01*
X83607335Y-88674105D01*
X83443451Y-88741987D01*
X83295965Y-88840535D01*
X83170535Y-88965965D01*
X83071987Y-89113451D01*
X83004105Y-89277335D01*
X82969500Y-89451308D01*
X82969500Y-89628691D01*
X75207056Y-89628691D01*
X75198472Y-63562571D01*
X75216763Y-63518372D01*
X75260949Y-63500052D01*
X193937555Y-63599947D01*
G37*
%TD.AperFunction*%
%TD*%
M02*
