%TF.GenerationSoftware,KiCad,Pcbnew,8.0.1*%
%TF.CreationDate,2024-11-27T15:43:16-06:00*%
%TF.ProjectId,XAmplifier,58416d70-6c69-4666-9965-722e6b696361,rev?*%
%TF.SameCoordinates,Original*%
%TF.FileFunction,Soldermask,Bot*%
%TF.FilePolarity,Negative*%
%FSLAX46Y46*%
G04 Gerber Fmt 4.6, Leading zero omitted, Abs format (unit mm)*
G04 Created by KiCad (PCBNEW 8.0.1) date 2024-11-27 15:43:16*
%MOMM*%
%LPD*%
G01*
G04 APERTURE LIST*
G04 Aperture macros list*
%AMRoundRect*
0 Rectangle with rounded corners*
0 $1 Rounding radius*
0 $2 $3 $4 $5 $6 $7 $8 $9 X,Y pos of 4 corners*
0 Add a 4 corners polygon primitive as box body*
4,1,4,$2,$3,$4,$5,$6,$7,$8,$9,$2,$3,0*
0 Add four circle primitives for the rounded corners*
1,1,$1+$1,$2,$3*
1,1,$1+$1,$4,$5*
1,1,$1+$1,$6,$7*
1,1,$1+$1,$8,$9*
0 Add four rect primitives between the rounded corners*
20,1,$1+$1,$2,$3,$4,$5,0*
20,1,$1+$1,$4,$5,$6,$7,0*
20,1,$1+$1,$6,$7,$8,$9,0*
20,1,$1+$1,$8,$9,$2,$3,0*%
G04 Aperture macros list end*
%ADD10RoundRect,0.135000X-0.135000X-0.185000X0.135000X-0.185000X0.135000X0.185000X-0.135000X0.185000X0*%
%ADD11RoundRect,0.135000X0.185000X-0.135000X0.185000X0.135000X-0.185000X0.135000X-0.185000X-0.135000X0*%
%ADD12RoundRect,0.200000X-0.275000X0.200000X-0.275000X-0.200000X0.275000X-0.200000X0.275000X0.200000X0*%
%ADD13C,2.000000*%
%ADD14R,2.000000X2.000000*%
%ADD15C,1.600000*%
%ADD16R,1.600000X1.600000*%
%ADD17C,1.498600*%
%ADD18RoundRect,0.140000X-0.170000X0.140000X-0.170000X-0.140000X0.170000X-0.140000X0.170000X0.140000X0*%
%ADD19C,6.400000*%
%ADD20C,1.800000*%
%ADD21R,1.800000X1.800000*%
%ADD22C,3.098800*%
%ADD23O,1.800000X1.000000*%
%ADD24O,2.100000X1.000000*%
%ADD25C,0.650000*%
%ADD26C,2.900000*%
%ADD27C,3.400000*%
%ADD28R,1.700000X1.700000*%
%ADD29O,1.700000X1.700000*%
%ADD30RoundRect,0.250000X0.450000X-0.262500X0.450000X0.262500X-0.450000X0.262500X-0.450000X-0.262500X0*%
%ADD31RoundRect,0.250000X0.262500X0.450000X-0.262500X0.450000X-0.262500X-0.450000X0.262500X-0.450000X0*%
%ADD32RoundRect,0.250000X-0.450000X0.262500X-0.450000X-0.262500X0.450000X-0.262500X0.450000X0.262500X0*%
%ADD33RoundRect,0.250000X-0.262500X-0.450000X0.262500X-0.450000X0.262500X0.450000X-0.262500X0.450000X0*%
%ADD34RoundRect,0.200000X0.275000X-0.200000X0.275000X0.200000X-0.275000X0.200000X-0.275000X-0.200000X0*%
%ADD35RoundRect,0.140000X0.140000X0.170000X-0.140000X0.170000X-0.140000X-0.170000X0.140000X-0.170000X0*%
%ADD36RoundRect,0.140000X0.170000X-0.140000X0.170000X0.140000X-0.170000X0.140000X-0.170000X-0.140000X0*%
%ADD37RoundRect,0.140000X-0.140000X-0.170000X0.140000X-0.170000X0.140000X0.170000X-0.140000X0.170000X0*%
G04 APERTURE END LIST*
D10*
%TO.C,R439*%
X101740000Y-74268000D03*
X102760000Y-74268000D03*
%TD*%
D11*
%TO.C,R400*%
X113899191Y-104933480D03*
X113899191Y-103913480D03*
%TD*%
D12*
%TO.C,R443*%
X115950000Y-78675000D03*
X115950000Y-80325000D03*
%TD*%
D13*
%TO.C,C412*%
X140000000Y-108000000D03*
D14*
X145000000Y-108000000D03*
%TD*%
%TO.C,C401*%
X132502323Y-86500000D03*
D13*
X137502323Y-86500000D03*
%TD*%
%TO.C,C403*%
X131897677Y-74190000D03*
D14*
X136897677Y-74190000D03*
%TD*%
D15*
%TO.C,J408*%
X78670000Y-118100000D03*
X85670000Y-118100000D03*
%TD*%
D14*
%TO.C,C406*%
X148252323Y-100210000D03*
D13*
X153252323Y-100210000D03*
%TD*%
D15*
%TO.C,C414*%
X108680000Y-120250000D03*
D16*
X108680000Y-116750000D03*
%TD*%
D17*
%TO.C,SW400*%
X174802509Y-127548923D03*
X177291709Y-127548923D03*
X179780909Y-127548923D03*
X174802509Y-130038123D03*
X177291709Y-130038123D03*
X179780909Y-130038123D03*
%TD*%
D15*
%TO.C,C407*%
X100500000Y-85000000D03*
X105500000Y-85000000D03*
%TD*%
D18*
%TO.C,C424*%
X109860000Y-75274274D03*
X109860000Y-74314274D03*
%TD*%
D19*
%TO.C,MH402*%
X99680000Y-131200000D03*
%TD*%
%TO.C,MH400*%
X99680000Y-69200000D03*
%TD*%
D20*
%TO.C,D404*%
X202800000Y-128860000D03*
X205340000Y-128860000D03*
D21*
X207880000Y-128860000D03*
%TD*%
D22*
%TO.C,SW403*%
X202605418Y-102909437D03*
X210603878Y-97308737D03*
X207731138Y-92332877D03*
X202755278Y-89460137D03*
X197004718Y-89460137D03*
X192028858Y-92332877D03*
X189156118Y-97308737D03*
X189156118Y-103059297D03*
X192028858Y-108035157D03*
X197004718Y-110907897D03*
X202755278Y-110907897D03*
X207731138Y-108035157D03*
X210603878Y-103059297D03*
%TD*%
D13*
%TO.C,C402*%
X153252323Y-86500000D03*
D14*
X148252323Y-86500000D03*
%TD*%
D15*
%TO.C,C408*%
X100500000Y-97400000D03*
X105500000Y-97400000D03*
%TD*%
%TO.C,C413*%
X117680000Y-120097349D03*
D16*
X117680000Y-116597349D03*
%TD*%
D15*
%TO.C,C416*%
X97460000Y-109830000D03*
X102460000Y-109830000D03*
%TD*%
D18*
%TO.C,C423*%
X110870000Y-75270000D03*
X110870000Y-74310000D03*
%TD*%
D23*
%TO.C,J409*%
X77435000Y-75770000D03*
D24*
X81635000Y-75770000D03*
D23*
X77435000Y-67130000D03*
D24*
X81635000Y-67130000D03*
D25*
X81115000Y-74340000D03*
X81115000Y-68560000D03*
%TD*%
D17*
%TO.C,SW404*%
X179768785Y-72839200D03*
X177279585Y-72839200D03*
X174790385Y-72839200D03*
X179768785Y-70350000D03*
X177279585Y-70350000D03*
X174790385Y-70350000D03*
%TD*%
D19*
%TO.C,MH401*%
X164680000Y-69200000D03*
%TD*%
D26*
%TO.C,J406*%
X81960000Y-128140000D03*
X92130000Y-119890000D03*
D27*
X88315000Y-116080000D03*
X87680000Y-123700000D03*
D15*
X78790000Y-123700000D03*
X83870000Y-116080000D03*
%TD*%
D19*
%TO.C,MH403*%
X164680000Y-131200000D03*
%TD*%
D15*
%TO.C,C415*%
X97485000Y-122430000D03*
X102485000Y-122430000D03*
%TD*%
D26*
%TO.C,J407*%
X81960000Y-101600000D03*
X92130000Y-93350000D03*
D27*
X88315000Y-89540000D03*
X87680000Y-97160000D03*
D15*
X78790000Y-97160000D03*
X83870000Y-89540000D03*
%TD*%
D14*
%TO.C,C404*%
X132000000Y-100210000D03*
D13*
X137000000Y-100210000D03*
%TD*%
D15*
%TO.C,C417*%
X106832651Y-109160000D03*
D16*
X110332651Y-109160000D03*
%TD*%
D28*
%TO.C,J405*%
X175477804Y-84101463D03*
D29*
X175477804Y-86641463D03*
X175477804Y-89181463D03*
X175477804Y-91721463D03*
%TD*%
D30*
%TO.C,R411*%
X210500000Y-107662500D03*
X210500000Y-105837500D03*
%TD*%
D31*
%TO.C,R420*%
X207412500Y-89250000D03*
X205587500Y-89250000D03*
%TD*%
D32*
%TO.C,R416*%
X186781218Y-99271517D03*
X186781218Y-101096517D03*
%TD*%
D33*
%TO.C,R413*%
X198967498Y-113282797D03*
X200792498Y-113282797D03*
%TD*%
%TO.C,R414*%
X192337500Y-111000000D03*
X194162500Y-111000000D03*
%TD*%
D29*
%TO.C,J403*%
X166680000Y-91720000D03*
X166680000Y-89180000D03*
X166680000Y-86640000D03*
D28*
X166680000Y-84100000D03*
%TD*%
D33*
%TO.C,R412*%
X205587500Y-111000000D03*
X207412500Y-111000000D03*
%TD*%
D34*
%TO.C,R421*%
X210500000Y-94575000D03*
X210500000Y-92925000D03*
%TD*%
D28*
%TO.C,J401*%
X175380000Y-108700000D03*
D29*
X175380000Y-111240000D03*
X175380000Y-113780000D03*
X175380000Y-116320000D03*
%TD*%
D35*
%TO.C,C433*%
X113410854Y-83685206D03*
X112450854Y-83685206D03*
%TD*%
D28*
%TO.C,J400*%
X166680000Y-108700000D03*
D29*
X166680000Y-111240000D03*
X166680000Y-113780000D03*
X166680000Y-116320000D03*
%TD*%
D31*
%TO.C,R418*%
X194162500Y-89500000D03*
X192337500Y-89500000D03*
%TD*%
D18*
%TO.C,C429*%
X110697754Y-79214274D03*
X110697754Y-80174274D03*
%TD*%
D29*
%TO.C,J404*%
X183280000Y-108680000D03*
X183280000Y-111220000D03*
X183280000Y-113760000D03*
D28*
X183280000Y-116300000D03*
%TD*%
D29*
%TO.C,J402*%
X183278435Y-84220112D03*
X183278435Y-86760112D03*
X183278435Y-89300112D03*
D28*
X183278435Y-91840112D03*
%TD*%
D31*
%TO.C,R422*%
X205837500Y-103000000D03*
X207662500Y-103000000D03*
%TD*%
D18*
%TO.C,C432*%
X111397754Y-83014274D03*
X111397754Y-83974274D03*
%TD*%
D32*
%TO.C,R415*%
X189250000Y-105837500D03*
X189250000Y-107662500D03*
%TD*%
D11*
%TO.C,R445*%
X111497754Y-82104274D03*
X111497754Y-81084274D03*
%TD*%
D36*
%TO.C,R435*%
X80250000Y-73230000D03*
X80250000Y-72270000D03*
%TD*%
D32*
%TO.C,R417*%
X189250000Y-92837500D03*
X189250000Y-94662500D03*
%TD*%
D37*
%TO.C,C434*%
X112617754Y-81594274D03*
X113577754Y-81594274D03*
%TD*%
D36*
%TO.C,C431*%
X115100000Y-77020000D03*
X115100000Y-77980000D03*
%TD*%
D31*
%TO.C,R419*%
X200792498Y-87085237D03*
X198967498Y-87085237D03*
%TD*%
D18*
%TO.C,R436*%
X80250000Y-70270000D03*
X80250000Y-71230000D03*
%TD*%
M02*
