%TF.GenerationSoftware,KiCad,Pcbnew,8.0.1*%
%TF.CreationDate,2024-11-27T15:43:16-06:00*%
%TF.ProjectId,XAmplifier,58416d70-6c69-4666-9965-722e6b696361,rev?*%
%TF.SameCoordinates,Original*%
%TF.FileFunction,Profile,NP*%
%FSLAX46Y46*%
G04 Gerber Fmt 4.6, Leading zero omitted, Abs format (unit mm)*
G04 Created by KiCad (PCBNEW 8.0.1) date 2024-11-27 15:43:16*
%MOMM*%
%LPD*%
G01*
G04 APERTURE LIST*
%TA.AperFunction,Profile*%
%ADD10C,0.050000*%
%TD*%
G04 APERTURE END LIST*
D10*
X214680000Y-127700000D02*
X209780000Y-132600000D01*
X196780000Y-77384000D02*
X196780000Y-68700000D01*
X194680000Y-77384000D02*
X196780000Y-77384000D01*
X212180000Y-88100000D02*
G75*
G02*
X209180000Y-88100000I-1500000J0D01*
G01*
X209180000Y-88100000D02*
G75*
G02*
X212180000Y-88100000I1500000J0D01*
G01*
X210680000Y-68700000D02*
X214680000Y-72700000D01*
X189180000Y-125000000D02*
X189180000Y-123000000D01*
X210680000Y-68700000D02*
X196780000Y-68700000D01*
X180780000Y-123000000D02*
X180780000Y-77400000D01*
X194680000Y-137268000D02*
X194680000Y-122984000D01*
X178780000Y-124984000D02*
X189180000Y-125000000D01*
X189180000Y-77400000D02*
X180780000Y-77400000D01*
X194680000Y-77384000D02*
X194680000Y-63100000D01*
X194680000Y-63100000D02*
X74680000Y-63100000D01*
X178780000Y-75400000D02*
X178780000Y-124984000D01*
X189180000Y-77400000D02*
X189180000Y-75400000D01*
X196780000Y-122984000D02*
X194680000Y-122984000D01*
X189180000Y-123000000D02*
X180780000Y-123000000D01*
X74680000Y-63100000D02*
X74680000Y-137268000D01*
X178780000Y-75400000D02*
X189180000Y-75400000D01*
X212180000Y-112100000D02*
G75*
G02*
X209180000Y-112100000I-1500000J0D01*
G01*
X209180000Y-112100000D02*
G75*
G02*
X212180000Y-112100000I1500000J0D01*
G01*
X196780000Y-132600000D02*
X209780000Y-132600000D01*
X196780000Y-122984000D02*
X196780000Y-132600000D01*
X214680000Y-127700000D02*
X214680000Y-72700000D01*
X194680000Y-137268000D02*
X74680000Y-137268000D01*
M02*
