M48
; DRILL file {KiCad 8.0.1} date 2024-11-27T15:43:21-0600
; FORMAT={-:-/ absolute / metric / decimal}
; #@! TF.CreationDate,2024-11-27T15:43:21-06:00
; #@! TF.GenerationSoftware,Kicad,Pcbnew,8.0.1
; #@! TF.FileFunction,Plated,1,4,PTH
FMAT,2
METRIC
; #@! TA.AperFunction,Plated,PTH,ComponentDrill
T1C0.200
; #@! TA.AperFunction,Plated,PTH,ViaDrill
T2C0.203
; #@! TA.AperFunction,Plated,PTH,ComponentDrill
T3C0.600
; #@! TA.AperFunction,Plated,PTH,ViaDrill
T4C0.800
; #@! TA.AperFunction,Plated,PTH,ComponentDrill
T5C0.800
; #@! TA.AperFunction,Plated,PTH,ComponentDrill
T6C0.900
; #@! TA.AperFunction,Plated,PTH,ComponentDrill
T7C0.991
; #@! TA.AperFunction,Plated,PTH,ComponentDrill
T8C1.000
; #@! TA.AperFunction,Plated,PTH,ComponentDrill
T9C1.200
; #@! TA.AperFunction,Plated,PTH,ComponentDrill
T10C1.501
; #@! TA.AperFunction,Plated,PTH,ComponentDrill
T11C1.600
; #@! TA.AperFunction,Plated,PTH,ComponentDrill
T12C3.200
%
G90
G05
T1
X112.481Y-79.513
X112.481Y-80.513
X113.481Y-79.513
X113.481Y-80.513
X114.481Y-79.513
X114.481Y-80.513
T2
X75.973Y-113.319
X81.25Y-70.2
X81.25Y-73.2
X83.249Y-74.631
X83.25Y-68.25
X89.4Y-67.6
X90.255Y-72.545
X90.5Y-73.25
X90.562Y-71.849
X90.943Y-72.569
X91.25Y-73.25
X91.389Y-71.837
X91.647Y-72.57
X94.099Y-75.39
X94.099Y-76.117
X94.099Y-79.018
X94.109Y-78.307
X94.785Y-78.675
X94.79Y-75.758
X95.429Y-75.38
X95.44Y-76.117
X95.44Y-78.307
X95.45Y-79.033
X95.695Y-68.195
X96.4Y-84.737
X96.4Y-97.262
X96.438Y-79.043
X96.444Y-78.307
X96.449Y-76.091
X96.454Y-75.354
X97.6Y-78.286
X97.6Y-79.054
X97.61Y-75.334
X97.61Y-76.101
X98.731Y-78.291
X98.736Y-79.054
X98.741Y-75.339
X98.746Y-76.101
X101.092Y-90.895
X103.8Y-125.8
X103.871Y-106.316
X107.55Y-101.7
X109.5Y-69.5
X109.5Y-70.5
X109.5Y-71.5
X109.5Y-76.5
X109.8Y-73.0
X109.8Y-73.6
X109.86Y-74.314
X109.86Y-75.274
X109.88Y-75.95
X110.0Y-72.2
X110.25Y-76.5
X110.5Y-69.5
X110.5Y-70.5
X110.5Y-71.5
X110.682Y-80.973
X110.698Y-79.284
X110.8Y-73.0
X110.8Y-73.6
X110.87Y-75.27
X110.883Y-74.315
X111.0Y-72.2
X111.0Y-76.5
X111.4Y-84.6
X111.4Y-87.8
X111.5Y-69.5
X111.5Y-70.5
X111.5Y-71.5
X111.856Y-82.163
X112.0Y-72.0
X112.0Y-72.8
X112.0Y-73.6
X112.0Y-74.5
X112.0Y-75.5
X112.0Y-76.5
X112.2Y-84.6
X112.2Y-94.95
X112.475Y-72.394
X112.494Y-73.186
X112.5Y-69.5
X112.5Y-70.5
X112.5Y-71.5
X112.614Y-106.867
X113.0Y-72.0
X113.0Y-72.8
X113.0Y-73.6
X113.0Y-74.5
X113.0Y-75.5
X113.0Y-76.5
X113.8Y-83.3
X113.9Y-97.87
X114.104Y-81.096
X114.85Y-88.1
X115.1Y-77.95
X115.1Y-83.05
X115.6Y-84.2
X115.68Y-74.268
X116.35Y-104.55
X116.68Y-69.268
X116.68Y-70.268
X116.68Y-71.268
X116.68Y-72.268
X116.68Y-73.268
X116.68Y-74.268
X116.68Y-75.268
X117.368Y-82.206
X117.564Y-88.802
X117.68Y-69.268
X117.68Y-70.268
X117.68Y-71.268
X117.68Y-72.268
X117.68Y-73.268
X117.68Y-74.268
X117.68Y-75.268
X118.23Y-71.718
X118.23Y-72.318
X118.23Y-72.918
X118.23Y-73.518
X118.38Y-100.646
X118.68Y-69.268
X118.68Y-70.268
X118.68Y-74.268
X118.68Y-75.268
X118.83Y-71.718
X118.83Y-72.318
X118.83Y-72.918
X118.83Y-73.518
X119.15Y-82.8
X119.29Y-99.6
X119.43Y-71.718
X119.43Y-72.318
X119.43Y-72.918
X119.43Y-73.518
X119.68Y-69.268
X119.68Y-70.268
X119.68Y-74.268
X119.68Y-75.268
X120.0Y-78.5
X120.0Y-79.5
X120.0Y-80.5
X120.0Y-81.5
X120.0Y-82.5
X120.0Y-83.5
X120.0Y-84.5
X120.0Y-85.5
X120.0Y-86.5
X120.68Y-69.268
X120.68Y-70.268
X120.68Y-71.268
X120.93Y-104.4
X120.973Y-81.519
X120.973Y-82.744
X120.973Y-83.894
X120.98Y-71.968
X120.98Y-72.568
X120.98Y-73.168
X120.98Y-73.768
X120.98Y-75.968
X120.98Y-76.568
X120.98Y-77.168
X120.98Y-77.768
X121.0Y-78.5
X121.0Y-79.5
X121.0Y-80.5
X121.0Y-85.5
X121.0Y-86.5
X121.4Y-82.2
X121.4Y-83.2
X121.4Y-84.6
X121.4Y-87.0
X121.58Y-71.968
X121.58Y-72.568
X121.58Y-73.168
X121.58Y-73.768
X121.58Y-75.968
X121.58Y-76.568
X121.58Y-77.168
X121.58Y-77.768
X121.68Y-70.268
X121.68Y-71.268
X121.78Y-83.94
X121.79Y-81.519
X121.795Y-86.273
X122.0Y-78.8
X122.0Y-79.8
X122.18Y-71.968
X122.18Y-72.568
X122.18Y-73.168
X122.18Y-73.768
X122.18Y-75.968
X122.18Y-76.568
X122.18Y-77.168
X122.18Y-77.768
X122.2Y-80.8
X122.2Y-82.2
X122.2Y-83.2
X122.2Y-84.6
X122.2Y-85.6
X122.2Y-87.0
X122.307Y-79.309
X122.6Y-78.8
X122.6Y-79.8
X122.68Y-71.268
X124.0Y-78.8
X124.0Y-79.8
X124.2Y-97.275
X124.292Y-79.304
X124.295Y-106.725
X124.365Y-82.204
X124.365Y-86.968
X124.37Y-80.822
X124.37Y-85.571
X124.375Y-83.197
X124.375Y-84.588
X124.576Y-75.49
X124.576Y-76.626
X124.587Y-74.329
X124.597Y-73.34
X124.6Y-78.8
X124.6Y-79.8
X124.612Y-71.989
X124.739Y-86.282
X124.754Y-83.903
X124.769Y-81.513
X124.955Y-72.675
X125.122Y-84.588
X125.122Y-85.566
X125.127Y-82.214
X125.127Y-86.963
X125.133Y-80.828
X125.133Y-83.207
X125.323Y-71.999
X125.323Y-73.33
X125.323Y-74.334
X125.339Y-76.621
X125.344Y-75.49
X125.425Y-79.0
X125.5Y-80.0
X126.5Y-81.0
X126.5Y-82.0
X126.5Y-83.0
X126.5Y-84.0
X126.5Y-85.0
X126.5Y-86.0
X126.5Y-87.0
X126.895Y-95.275
X127.5Y-81.0
X127.5Y-82.0
X127.5Y-83.0
X127.5Y-84.0
X127.5Y-85.0
X127.5Y-86.0
X127.5Y-87.0
X127.513Y-71.989
X127.513Y-73.33
X127.529Y-75.5
X127.529Y-76.636
X127.539Y-74.339
X127.872Y-72.68
X128.24Y-71.989
X128.25Y-73.32
X128.276Y-74.344
X128.291Y-76.631
X128.296Y-75.5
X128.5Y-83.0
X128.5Y-84.0
X128.5Y-85.0
X128.5Y-86.0
X128.5Y-87.0
X129.4Y-102.8
X129.887Y-90.402
X133.687Y-93.073
X138.2Y-94.45
X141.69Y-89.16
X142.477Y-130.306
X142.477Y-131.033
X142.477Y-133.934
X142.487Y-133.223
X142.491Y-66.675
X142.491Y-67.401
X142.491Y-70.303
X142.501Y-69.591
X142.542Y-93.25
X143.163Y-133.591
X143.168Y-130.675
X143.177Y-69.96
X143.182Y-67.043
X143.807Y-130.296
X143.818Y-131.033
X143.818Y-133.223
X143.822Y-66.665
X143.828Y-133.95
X143.832Y-67.401
X143.832Y-69.591
X143.842Y-70.318
X144.817Y-133.96
X144.822Y-133.223
X144.827Y-131.007
X144.832Y-130.271
X144.853Y-70.355
X144.858Y-69.618
X144.864Y-67.403
X144.869Y-66.666
X145.517Y-79.382
X145.978Y-133.202
X145.978Y-133.97
X145.988Y-130.25
X145.988Y-131.018
X146.015Y-69.598
X146.015Y-70.366
X146.025Y-66.646
X146.025Y-67.413
X147.109Y-133.208
X147.114Y-133.97
X147.119Y-130.255
X147.124Y-131.018
X147.146Y-69.603
X147.151Y-70.366
X147.156Y-66.651
X147.161Y-67.413
X153.13Y-93.24
X171.75Y-122.6
T4
X189.98Y-75.784
X189.98Y-76.984
X189.98Y-123.384
X189.98Y-124.584
X191.28Y-75.784
X191.28Y-76.984
X191.28Y-123.384
X191.28Y-124.584
X192.58Y-75.784
X192.58Y-76.984
X192.58Y-123.384
X192.58Y-124.584
X193.88Y-75.784
X193.88Y-76.984
X193.88Y-123.384
X193.88Y-124.584
T5
X97.46Y-109.83
X97.485Y-122.43
X100.5Y-85.0
X100.5Y-97.4
X102.46Y-109.83
X102.485Y-122.43
X105.5Y-85.0
X105.5Y-97.4
X106.833Y-109.16
X108.68Y-116.75
X108.68Y-120.25
X110.333Y-109.16
X117.68Y-116.597
X117.68Y-120.097
T6
X202.8Y-128.86
X205.34Y-128.86
X207.88Y-128.86
T7
X174.79Y-70.35
X174.79Y-72.839
X174.803Y-127.549
X174.803Y-130.038
X177.28Y-70.35
X177.28Y-72.839
X177.292Y-127.549
X177.292Y-130.038
X179.769Y-70.35
X179.769Y-72.839
X179.781Y-127.549
X179.781Y-130.038
T8
X131.898Y-74.19
X132.0Y-100.21
X132.502Y-86.5
X136.898Y-74.19
X137.0Y-100.21
X137.502Y-86.5
X140.0Y-108.0
X145.0Y-108.0
X148.252Y-86.5
X148.252Y-100.21
X153.252Y-86.5
X153.252Y-100.21
X166.68Y-84.1
X166.68Y-86.64
X166.68Y-89.18
X166.68Y-91.72
X166.68Y-108.7
X166.68Y-111.24
X166.68Y-113.78
X166.68Y-116.32
X175.38Y-108.7
X175.38Y-111.24
X175.38Y-113.78
X175.38Y-116.32
X175.478Y-84.101
X175.478Y-86.641
X175.478Y-89.181
X175.478Y-91.721
X183.278Y-84.22
X183.278Y-86.76
X183.278Y-89.3
X183.278Y-91.84
X183.28Y-108.68
X183.28Y-111.22
X183.28Y-113.76
X183.28Y-116.3
T9
X81.96Y-101.6
X81.96Y-128.14
X92.13Y-93.35
X92.13Y-119.89
T10
X189.156Y-97.309
X189.156Y-103.059
X192.029Y-92.333
X192.029Y-108.035
X197.005Y-89.46
X197.005Y-110.908
X202.605Y-102.909
X202.755Y-89.46
X202.755Y-110.908
X207.731Y-92.333
X207.731Y-108.035
X210.604Y-97.309
X210.604Y-103.059
T11
X87.68Y-97.16
X87.68Y-123.7
X88.315Y-89.54
X88.315Y-116.08
T12
X99.68Y-69.2
X99.68Y-131.2
X164.68Y-69.2
X164.68Y-131.2
T3
G00X77.835Y-67.13
M15
G01X77.035Y-67.13
M16
G05
G00X77.835Y-75.77
M15
G01X77.035Y-75.77
M16
G05
G00X82.185Y-67.13
M15
G01X81.085Y-67.13
M16
G05
G00X82.185Y-75.77
M15
G01X81.085Y-75.77
M16
G05
M30
